<svg width="1308" height="184" viewBox="0 0 1308 184" fill="none" xmlns="http://www.w3.org/2000/svg">
<g clip-path="url(#clip0_1198_814)">
<path d="M196.57 131.23V130.66L182.87 124.57V36.0998H149.96V36.6698L163.66 42.7598V90.6998C163.66 103.64 155.86 121.52 139.31 121.52C123.9 121.52 119.9 110.49 119.9 94.6898V36.0898H86.9902V36.6598L100.69 42.7498V96.2098C100.69 118.66 110.77 132.17 131.32 132.17C148.44 132.17 160.05 119.61 163.66 105.73V131.22H196.57V131.23Z" fill="#342B19"/>
<path d="M258.95 31.9202C241.82 31.9202 229.26 42.6802 224.88 54.4302V32.9102H223.49L190.42 47.6502V48.2502H204.76V173.76L190.42 180.14V180.74H239.23V180.14L224.89 173.76V111C229.27 122.75 241.82 133.51 258.96 133.51C281.47 133.51 299.6 111.79 299.6 82.7102C299.6 53.6302 281.47 31.9102 258.96 31.9102L258.95 31.9202ZM251.58 125.36C235.64 125.36 224.88 110.62 224.88 97.0702V68.3802C224.88 54.8302 235.64 40.0902 251.58 40.0902C267.52 40.0902 278.28 54.0402 278.28 82.7202C278.28 111.4 266.92 125.36 251.58 125.36Z" fill="#342B19"/>
<path d="M623.55 70.9911V35.7311H622.16L589.09 50.4711V51.0711H603.43V128.371L589.09 134.751V135.351H637.9V134.751L623.56 128.371V84.1411C623.56 69.4011 633.72 53.6611 651.85 53.6611C660.02 53.6611 666.39 54.4611 670.38 55.2511V36.1211C668.79 35.7211 665 35.1211 660.22 35.1211C642.29 35.1211 625.95 57.0411 623.56 70.9811L623.55 70.9911Z" fill="#342B19"/>
<path d="M864.49 60.2405C864.49 46.8905 852.93 35.7305 838.79 35.7305H800.94L779.03 64.0205H795.67L815.52 38.5205H827.83C838.39 38.5205 845.56 45.2905 845.56 54.2605C845.56 63.2305 839.78 69.0005 830.62 72.5905L799.34 84.7405C789.18 88.7205 780.02 97.0905 780.02 110.641C780.02 127.181 792.57 136.341 810.1 136.341C827.63 136.341 841.98 121.401 845.16 105.861V135.351H878.83V134.751L864.49 128.371V60.2305V60.2405ZM844.37 94.9105C844.37 111.051 833.01 120.811 818.67 120.811C807.31 120.811 798.55 115.831 798.55 102.681C798.55 94.1105 803.73 86.1405 814.69 81.9605L831.62 75.3905C837.2 73.2005 841.58 70.2105 844.37 66.6205V94.9105Z" fill="#342B19"/>
<path d="M980.13 72.3902C980.13 48.8802 969.57 34.7402 948.05 34.7402C930.12 34.7402 917.97 47.8902 914.18 62.4302V35.7302H879.71V36.3302L894.05 42.7102V128.38L879.71 134.76V135.36H928.52V134.76L914.18 128.38V78.1702C914.18 64.6202 922.35 45.9002 939.68 45.9002C955.82 45.9002 960 57.4502 960 73.9902V128.38L945.66 134.76V135.36H994.47V134.76L980.13 128.38V72.4002V72.3902Z" fill="#342B19"/>
<path d="M1029.63 72.5103C1045.26 52.4203 1043.73 17.0703 1020.86 3.30026C1018.28 1.75026 1015.42 0.480259 1012.41 0.440259C1009.4 0.400259 1006.23 1.85026 1004.9 4.55026C1003.06 8.29026 1005.41 13.0003 1008.96 15.1903C1010.49 16.1303 1012.51 16.6803 1014.75 16.9903C1026.53 18.5903 1036.02 27.9703 1036.21 39.8503C1036.33 47.4403 1034.83 55.0203 1031.18 62.5003L1029.63 67.7303V35.7303H995.16V36.3303L1009.5 42.7103V128.38L995.16 134.76V135.36H1043.97V134.76L1029.63 128.38V72.5203V72.5103Z" fill="#342B19"/>
<path d="M1293.08 128.37V72.3902C1293.08 48.8802 1282.52 34.7402 1261 34.7402C1243.47 34.7402 1230.72 48.0902 1226.33 62.4302C1223.34 44.9002 1213.58 34.7402 1195.05 34.7402C1176.52 34.7402 1164.97 47.8902 1161.18 62.4302V35.7302H1126.71V36.3302L1141.05 42.7102V128.38L1126.71 134.76V135.36H1175.52V134.76L1161.18 128.38V78.1702C1161.18 64.6202 1169.35 45.9002 1186.68 45.9002C1202.82 45.9002 1207 57.4502 1207 73.9902V128.38L1192.66 134.76V135.36H1241.47V134.76L1227.13 128.38V78.1702C1227.13 64.6202 1235.3 45.9002 1252.63 45.9002C1268.77 45.9002 1272.95 57.4502 1272.95 73.9902V128.38L1258.61 134.76V135.36H1307.42V134.76L1293.08 128.38V128.37Z" fill="#342B19"/>
<path d="M1092.41 73.4914C1073.25 68.1714 1064.31 62.4214 1064.31 50.9214C1064.31 41.9814 1071.97 35.8014 1083.26 35.8014C1095.25 35.8014 1116 47.8114 1121.12 67.7714H1122.01C1122.01 55.6314 1121.37 45.5914 1122.01 35.8014C1115.83 33.6714 1106.25 30.6914 1091.78 30.6914C1068.15 30.6914 1049.2 45.5914 1049.2 63.4814C1049.2 77.3214 1058.78 85.8414 1080.71 92.2214C1104.13 98.8214 1115.63 103.932 1115.63 115.852C1115.63 124.152 1111.37 129.052 1095.4 129.052C1071.77 129.052 1053.77 116.192 1049.52 99.1614H1048.73C1048.14 112.192 1048.14 120.112 1047.5 129.052C1054.1 133.092 1065.17 137.572 1080.08 137.572C1110.31 137.572 1126.71 121.602 1126.71 104.572C1126.71 87.5414 1114.15 79.6614 1092.43 73.4814L1092.41 73.4914Z" fill="#342B19"/>
<path d="M408.68 84.2214C405.23 103.302 387.78 117.502 367.28 117.502C344.55 117.502 325.68 100.052 325.68 75.0914C325.68 70.4214 326.29 65.9614 327.3 61.9014H407.05C400.76 42.2214 381.48 30.4414 360.17 30.4414C331.35 30.4414 308.22 51.7514 308.22 82.5914C308.22 113.432 330.95 133.932 358.75 133.932C386.55 133.932 408.87 111.202 409.28 84.2114H408.67L408.68 84.2214ZM359.77 33.4914C372.76 33.4914 382.5 43.4314 386.96 58.8614H328.11C333.59 42.8314 346.58 33.4914 359.77 33.4914Z" fill="#342B19"/>
<path d="M472.4 49.7216C480.72 49.7216 487.21 50.5316 491.27 51.3416V31.8616C489.65 31.4516 485.79 30.8516 480.92 30.8516C462.66 30.8516 446.02 53.1716 443.58 67.3816V31.4616H442.16L408.47 46.4816V47.0916H423.08V125.832L408.47 132.322V132.932H458.19V132.322L443.58 125.832V80.7816C443.58 65.7616 453.93 49.7316 472.4 49.7316V49.7216Z" fill="#342B19"/>
<path d="M756.97 132.231C740.63 132.231 719.91 134.221 705.17 134.221C698.6 134.221 695.41 132.231 695.41 129.041C695.41 126.131 698.42 122.831 707.09 120.831C710.81 121.891 714.64 122.571 718.51 122.811C719.31 122.861 720.13 122.891 720.96 122.891C724.05 122.891 727.37 122.541 731.21 121.801C734.63 121.151 737.98 120.141 741.16 118.811C746.71 116.491 751.32 113.631 755.26 110.061C761.3 104.591 765.28 98.0906 767.42 90.2006C767.96 88.2206 768.35 86.2906 768.59 84.4506C768.98 81.4806 769.09 78.2606 768.94 74.3106C768.72 68.7206 767.7 63.8706 765.81 59.4906C763.87 55.0006 761.05 51.0506 757.19 47.4006C756.89 47.1206 756.59 46.8506 756.28 46.5706H769.57V29.8906L752.03 43.0507C749.95 41.4507 747.6 39.8206 744.84 38.0406C744.26 37.6606 743.64 37.3006 743.01 36.9606C739.55 35.0906 735.41 33.7306 730.35 32.8206C725.76 31.9906 721.99 31.8106 718.47 32.2406L718.24 32.2707C715.82 32.5607 713.33 32.8707 710.9 33.4107C707.75 34.1107 704.47 35.2107 701.16 36.6607C697.49 38.2707 694.24 40.1206 691.24 42.3106C686.71 45.6106 683.11 49.5406 680.23 54.3506C678.15 57.8106 676.67 61.3807 675.71 65.2707C674.97 68.2307 674.64 71.2206 674.42 73.7606C673.95 79.0907 674.08 83.4607 674.83 87.5106C676.17 94.6907 679.11 101.101 683.56 106.571C684.84 108.141 686.21 109.611 687.64 110.921C690.27 113.361 693.21 115.401 696.37 116.991C699 118.321 701.85 119.231 704.64 120.091C690.86 122.641 680.47 128.261 680.47 136.411C680.47 142.791 687.44 147.571 701.39 148.161V148.961C687.05 152.751 674.3 159.121 674.3 168.281C674.3 177.441 685.26 183.621 713.55 183.621C759.37 183.621 777.7 162.101 777.7 147.361C777.7 137.401 771.72 132.221 756.98 132.221L756.97 132.231ZM703.47 108.841C701.15 105.801 699.29 102.141 697.76 97.6307C696.22 93.0807 695.2 88.1006 694.52 81.9407C694.05 77.6506 694.48 73.4606 694.96 69.5406C695.66 63.8806 697.09 58.4606 699.23 53.4506C701.45 48.2306 704.44 44.1606 708.12 41.3506C710.97 39.1606 714.07 37.8306 717.32 37.3806C718.29 37.2506 719.29 37.1806 720.26 37.1106C720.71 37.0806 721.15 37.0506 721.6 37.0106C724.65 36.9306 727.64 37.4907 730.48 38.6607C735.35 40.6807 739.33 44.4506 742.33 49.8606C744.82 54.3606 746.62 59.7506 747.85 66.3606C748.46 69.6306 748.8 73.0906 748.87 76.6406C748.92 78.9806 748.8 81.4006 748.52 83.8306C747.69 91.1006 746.04 97.2806 743.48 102.731C741.09 107.831 737.99 111.731 734.27 114.311C731.7 116.101 728.89 117.191 725.71 117.661C723.15 118.041 720.48 118.041 717.79 117.671C712.18 116.911 707.37 113.941 703.48 108.851L703.47 108.841ZM728.87 172.071C699.58 172.071 692.61 167.091 692.61 160.511C692.61 154.731 699.58 148.761 711.54 148.161C725.49 148.161 742.42 147.761 755.77 147.761C765.73 147.761 768.92 151.151 768.92 156.131C768.92 166.291 751.16 172.071 728.88 172.071H728.87Z" fill="#342B19"/>
<path d="M50.23 60.3212C25.43 52.0512 19.02 43.7813 19.02 29.9413C19.02 18.7813 26.87 12.1612 39.69 12.1612C56.02 12.1612 78.25 25.1112 80.2 48.7112H82.3C82.51 32.5912 81.44 25.1812 82.47 11.9512C75.44 10.0912 65.11 6.78125 49.4 6.78125C23.15 6.78125 2.69 23.7313 2.69 44.1913C2.69 58.6613 11.58 69.6112 37.21 77.6712C69.87 88.8312 77.1 95.6512 77.1 108.472C77.1 119.222 72.35 125.012 53.95 125.012C25.84 125.012 4.6 113.722 2.58 89.0712H0.740005C0.530006 104.782 0.62 113.442 0 125.012C7.03 129.142 20.46 134.721 36.38 134.721C70.07 134.721 88.67 116.322 88.67 95.6613C88.67 79.3312 79.16 70.0312 50.23 60.3212Z" fill="#342B19"/>
<path d="M538.88 32.291C533.17 32.291 527.68 33.121 522.52 34.661C520.88 35.151 519.27 35.711 517.7 36.351C514.84 37.511 512.1 38.901 509.52 40.511C509.73 32.391 514.41 24.491 521.82 20.091C525.85 17.701 530.53 16.461 535.22 16.491C537.49 16.501 539.57 16.241 541.22 15.521C546 13.431 549.49 7.17093 544.92 2.69093C544.16 1.95093 543.24 1.38093 542.25 1.00093C538.51 -0.41907 534.6 0.560929 531.08 2.05093C519.23 7.08093 511.58 17.761 508.24 29.951C508.27 29.941 508.31 29.931 508.34 29.921C506.95 34.161 505.98 38.371 506.24 42.721C493.38 52.151 485.11 67.301 485.11 85.401C485.11 116.221 509.07 138.501 538.87 138.501C568.67 138.501 592.63 116.221 592.63 85.401C592.63 54.581 568.67 32.301 538.87 32.301L538.88 32.291ZM516.28 48.611C517.41 47.001 518.61 45.521 519.88 44.181C525.23 38.541 531.78 35.341 538.87 35.341C539.28 35.341 539.69 35.361 540.1 35.381C553.37 36.071 564.56 47.981 569.24 66.061C569.41 66.711 569.56 67.361 569.71 68.021C569.22 67.381 568.69 66.771 568.09 66.221C564 62.501 558.58 61.181 549.78 62.011C548.83 62.101 547.88 62.191 546.93 62.291C533.77 63.611 521.32 64.841 513.4 53.311C514.29 51.641 515.25 50.061 516.27 48.601L516.28 48.611ZM538.88 135.581C520.75 135.581 506.16 114.531 506.16 85.361C506.16 74.341 508.25 65.521 511.82 57.561C520.88 69.111 534.85 67.721 547.26 66.481C548.21 66.391 549.15 66.291 550.09 66.201C557.83 65.471 563.45 66.641 566.79 69.681C568.74 71.461 570.38 73.441 571.16 76.901C571.44 79.631 571.59 82.451 571.59 85.351C571.59 114.531 557 135.571 538.87 135.571L538.88 135.581Z" fill="#342B19"/>
</g>
<defs>
<clipPath id="clip0_1198_814">
<rect width="1308" height="184" fill="white"/>
</clipPath>
</defs>
</svg>
