<svg width="2542" height="471" viewBox="0 0 2542 471" fill="none" xmlns="http://www.w3.org/2000/svg">
<path fill-rule="evenodd" clip-rule="evenodd" d="M744.866 11.3665C714.6 25.9893 693.222 45.6078 681.148 69.835L671.449 89.3018V272.525V455.752H735.888H800.331L801.321 309.179L802.314 162.602L808.729 158.558L815.147 154.511L822.396 161.073C826.386 164.68 866.04 232.461 910.516 311.694L991.387 455.752L1054.27 455.688L1117.15 455.619L1190.15 321.977C1230.3 248.472 1266.55 182.782 1270.7 176.003C1278.95 162.53 1289.48 160.159 1298.96 169.634L1304.91 175.597V315.673V455.752H1369.4H1433.88V274.285V92.8143L1422.37 69.7667C1409.71 44.4471 1389.9 24.3772 1364.83 11.4841C1341.94 -0.290002 1297.68 -2.67214 1270.29 6.39363L1249.91 13.1417L1225.18 38.1466L1200.44 63.1552L1126.74 193.073C1086.21 264.525 1051.98 322.99 1050.66 322.99C1049.35 322.99 1021.2 273.917 988.113 213.935C920.112 90.6673 900.209 58.6033 877.621 35.9162C853.568 11.7572 834.098 3.30596 798.521 1.57626L768.176 0.104492L744.866 11.3665ZM1781.31 6.53398C1752.09 17.2384 1730.62 37.5055 1715.3 68.845L1705.1 89.7076L1704.01 272.73L1702.92 455.752H1767.55H1832.17V302.127V148.502L1839.76 140.916C1848.34 132.328 1852.35 131.679 1862.66 137.202C1866.64 139.33 1925.64 208.519 1993.76 290.949C2061.89 373.379 2123.48 445.647 2130.63 451.546C2148.32 466.119 2166.68 470.925 2204.69 470.925H2236.83L2260.18 459.257C2287.21 445.75 2307.2 423.612 2317.99 395.232L2325.29 376.015V192.083V8.15368H2260.8H2196.32V158.236C2196.32 254.435 2194.91 310.95 2192.39 315.654C2186.78 326.142 2171.81 324.769 2158.64 312.559C2152.45 306.819 2097.74 243.238 2037.06 171.262C1976.38 99.2855 1918.68 34.0309 1908.85 26.2473C1899.01 18.4674 1883.41 9.50406 1874.17 6.33294C1853.06 -0.912087 1801.33 -0.802085 1781.31 6.53398ZM3.84416 62.9276V117.914L217.212 118.984L430.58 120.053L443.845 127.845C451.139 132.131 460.952 141.345 465.656 148.32L474.202 161.005V185.809V210.612L463.771 200.852C458.031 195.485 447.877 188.339 441.201 184.97L429.059 178.848H240.1H51.1417L37.9223 185.877C30.6546 189.746 19.586 200.128 13.3272 208.955L1.94756 224.996L0.74132 312.873C-0.0211151 368.342 1.04478 405.868 3.63174 414.622C8.6274 431.533 28.9704 450.153 48.3119 455.525C57.4194 458.055 129.676 459.481 246.609 459.439L430.58 459.378L445.753 452.479C454.098 448.682 463.486 442.468 466.616 438.668L472.305 431.76L474.202 444.703L476.099 457.649L543.542 458.684L610.989 459.72L609.923 293.593L608.861 127.465L596.066 101.482C580.131 69.1257 547.6 35.8441 517.422 21.0278L495.065 10.0503L249.454 8.99577L3.84416 7.94126V62.9276ZM1505.95 231.953V455.752H1572.34H1638.72V231.953V8.15368H1572.34H1505.95V231.953ZM2412.53 231.953V455.752H2477.02H2541.5V231.953V8.15368H2477.02H2412.53V231.953ZM432.204 294.401C449.815 303.508 453.024 322.47 439.403 336.972L431.153 345.749H289.571H147.986L140.4 338.163C130.606 328.369 130.723 311.497 140.677 298.846L148.536 288.851H285.004H421.473L432.204 294.401Z" fill="white"/>
</svg>
