<svg width="1984" height="605" viewBox="0 0 1984 605" fill="none" xmlns="http://www.w3.org/2000/svg">
<path fill-rule="evenodd" clip-rule="evenodd" d="M1538.36 5.88738C1525.92 12.4577 1514.23 26.4505 1510.93 38.6888C1505.31 59.5586 1514.51 83.8367 1532.78 96.3566C1550.17 108.271 1584.69 105.27 1598.43 90.6459C1601.33 87.5542 1606.16 79.4783 1609.16 72.7018L1614.62 60.378L1613.12 47.7375C1611.07 30.452 1600.47 14.0588 1586.6 6.73443C1572.57 -0.672921 1551.47 -1.0424 1538.36 5.88738ZM192.615 19.5283C94.1983 38.4827 31.9333 105.476 7.86381 218.303C1.02451 250.358 -1.79064 330.24 2.6231 367.003C15.4421 473.8 60.7232 546.855 136.285 582.655C166.188 596.824 190.039 602.027 231.575 603.447L268.021 604.691L290.643 600.456C359.287 587.602 409.065 548.444 440.28 482.74C449.859 462.582 462.819 422.335 462.819 412.754V407.943L424.892 408.637L386.966 409.33L378.84 433.606C369.019 462.936 357.827 482.197 340.451 499.666C315.361 524.885 284.99 536.263 242.76 536.263C152.321 536.263 96.85 482.067 79.2881 376.547C73.5673 342.172 73.6402 276.747 79.4364 243.581C88.6384 190.93 104.79 155.45 132.276 127.509C162.443 96.8442 195.564 83.9348 244.243 83.8669C288.7 83.8041 318.749 95.3135 343.263 121.791C360.408 140.311 370.072 157.297 379.596 185.647L387.19 208.249L425.003 208.942L462.819 209.636V204.825C462.819 194.268 449.553 154.195 438.991 132.843C423.982 102.505 405.496 78.7343 383.015 60.8682C362.673 44.7062 331.822 28.7328 308.237 22.1549C287.737 16.4391 216.999 14.8305 192.615 19.5283ZM1689.42 52.4102V83.8292H1738.43H1787.45V341.465V599.101H1885.47H1983.5V567.682V536.263H1919.41H1855.31V278.627V20.9911H1772.36H1689.42V52.4102ZM678.557 174.205C656.918 178.169 637.657 184.752 617.401 195.105L597.292 205.383L574.598 228.181L551.903 250.978L539.959 274.857C525.202 304.361 518.999 325.919 515.206 360.892L512.27 387.965L515.286 415.78C525.34 508.484 576.895 572.953 660.274 597.088L680.239 602.869H720.455L760.671 602.872L779.523 596.985C836.157 579.302 879.33 538.344 898.666 483.957C902.261 473.853 905.199 463.391 905.199 460.707V455.831H871.188H837.175L835.707 460.229C819.076 510.055 784.231 536.683 727.996 542.542C708.888 544.533 676.3 538.857 657.546 530.271C637.107 520.913 613.497 497.17 602.684 475.099C594.115 457.613 585.982 426.244 585.982 410.693V403.047H749.682H913.383L912.078 368.486C910.538 327.711 904.89 303.169 890.238 273.6C866.056 224.795 827.013 193.326 773.093 179.172C750.816 173.323 698.399 170.571 678.557 174.205ZM1137.23 174.165C1070.11 184.855 1017.62 223.687 989.047 283.805C983.095 296.33 975.751 316.689 972.727 329.048L967.228 351.519L967.145 387.965C967.057 425.113 969.367 441.888 978.564 470.912C998.528 533.916 1047.07 580.489 1111.31 598.264L1127.65 602.786L1169.12 602.821L1210.59 602.857L1226.93 598.398C1277.73 584.535 1317.78 552.747 1340.02 508.632C1346.98 494.843 1357.63 463.489 1357.63 456.823V453.317H1321.48H1285.32L1281.01 466.49C1269.28 502.346 1241.64 528.474 1204.31 538.995C1185.96 544.166 1148.03 542.846 1128.9 536.374C1065.62 514.956 1029.4 447.42 1038.44 367.661C1046.36 297.727 1083.41 250.647 1141.14 237.152C1159.94 232.755 1199.1 235.075 1217.57 241.681C1247.14 252.255 1269.06 275.164 1280.89 307.852L1286.7 323.871H1321.54H1356.38L1355.53 315.073C1354.21 301.375 1339.66 265.047 1329.18 249.292C1306.76 215.581 1266.93 187.841 1226.93 178.079C1207.88 173.426 1156.06 171.167 1137.23 174.165ZM1400.36 208.249V239.668H1463.2H1526.04V387.965V536.263H1463.2H1400.36V567.682V599.101H1561.23H1722.09V567.682V536.263H1659.26H1596.42V356.546V176.83H1498.39H1400.36V208.249ZM751.874 237.672C798.465 248.762 828.871 283.26 838.372 335.81L840.076 345.236H715.541H591.009L591.039 340.837C591.152 324.162 605.21 292.497 620.233 275.078C636.978 255.666 670.398 237.868 697.833 233.753C708.103 232.213 738.067 234.384 751.874 237.672Z" fill="white"/>
</svg>
