<svg width="2054" height="584" viewBox="0 0 2054 584" fill="none" xmlns="http://www.w3.org/2000/svg">
<path fill-rule="evenodd" clip-rule="evenodd" d="M284.26 0.758537C275.738 2.98534 269.5 9.76929 267.864 18.5905L267.274 21.7699L267.839 25.0744C268.416 28.4528 270.602 33.5141 272.562 36.0128C274.494 38.4754 279.459 41.7492 282.857 42.8013C288.38 44.5119 294.923 43.9001 300.549 41.1481C304.015 39.4531 308.345 34.8612 310.219 30.8947L311.834 27.4756V21.6844V15.8927L310.154 12.4701C308.006 8.09692 304.126 4.18821 299.825 2.06546L296.51 0.428287L291.638 0.265927C288.713 0.16841 285.765 0.364951 284.26 0.758537ZM221.483 33.2412C215.97 34.5546 209.793 39.5757 207.406 44.6828L206.051 47.5822L206.054 52.8601L206.058 58.1381L207.475 60.8439C209.567 64.8366 212.972 68.2185 216.785 70.0894L220.088 71.71H224.851H229.614L233.374 69.8788C238.02 67.6158 240.891 64.8185 243.019 60.481L244.654 57.1483L244.631 52.1137L244.608 47.0795L243.474 44.5828C239.617 36.0867 230.112 31.1848 221.483 33.2412ZM405.701 58.0979C400.576 60.2111 396.941 63.8076 394.738 68.9454L393.553 71.71L393.56 76.234L393.566 80.758L395.158 84.0253C397.02 87.8425 397.658 88.6231 401.231 91.4486C406.507 95.6212 413.841 96.6894 420.421 94.2439L424.034 92.9008L426.975 90.0155C428.782 88.2426 430.44 85.9987 431.275 84.1957L432.634 81.2606V76.234V71.2073L431.311 68.3532C427.873 60.9394 421.252 56.885 412.604 56.899L408.593 56.9051L405.701 58.0979ZM336.4 59.7325C329.431 62.6465 325.302 68.7845 325.429 76.0415C325.56 83.6086 330.821 90.0321 338.43 91.9146L341.732 92.7319L345.082 92.1172C350.501 91.1229 354.57 88.0612 357.309 82.9169L358.459 80.758L358.459 75.7313L358.458 70.7047L357.132 68.1914C355.301 64.721 352.52 62.0066 349.218 60.4659L346.427 59.164L342.416 59.0293C339.553 58.9328 337.831 59.1339 336.4 59.7325ZM472.144 79.2108C456.78 84.9341 452.855 104.888 464.939 115.835C467.861 118.481 473.396 121.118 477.514 121.827L481.037 122.432L484.624 121.816C499.669 119.229 507.502 102.462 499.812 89.3042C494.476 80.1764 481.884 75.5825 472.144 79.2108ZM94.0421 80.8022C86.1078 82.941 80.4211 88.9076 78.2122 97.4122C77.2536 101.101 77.2571 103.657 78.2247 107.382C82.61 124.262 103.294 129.876 115.078 117.384C123.657 108.287 123.284 94.5355 114.226 85.9751C108.831 80.8766 101.108 78.8976 94.0421 80.8022ZM270.652 85.0412C267.293 86.3762 264.009 89.3143 262.447 92.381L261.198 94.8325L261.212 98.8538L261.226 102.875L262.298 104.908C263.618 107.412 267.397 110.972 269.877 112.049C272.695 113.273 278.179 113.125 281.252 111.744C286.704 109.293 290.013 104.334 290.02 98.6025L290.025 95.3352L288.592 92.2976C286.25 87.3343 282.021 84.5033 276.489 84.1967C274.06 84.0615 272.574 84.2766 270.652 85.0412ZM169.4 86.2174C163.787 88.0576 159.231 93.4748 158.137 99.6088L157.546 102.929L158.127 105.646C159.348 111.355 162.666 115.566 167.851 117.986L170.455 119.202H174.466H178.477L181.08 117.987C186.325 115.538 188.91 112.64 190.775 107.118C193.266 99.741 189.969 91.5481 182.869 87.4751L180.004 85.8318L175.731 85.6876C173.123 85.5991 170.656 85.8057 169.4 86.2174ZM341.393 124.271C338.939 124.986 335.901 127.957 334.656 130.858L333.523 133.501L333.785 136.407C334.126 140.174 336.087 143.353 339.386 145.488L341.871 147.096L345.653 147.081C349.77 147.065 350.769 146.685 353.719 144.013C355.695 142.224 357.707 137.951 357.707 135.547C357.707 133.677 356.232 129.739 354.852 127.925C353.004 125.496 349.095 123.726 345.702 123.781C344.17 123.806 342.232 124.026 341.393 124.271ZM216.949 130.753C213.983 131.226 210.827 133.594 209.196 136.572L207.829 139.067L207.817 142.05C207.796 147.28 211.276 152.161 215.924 153.422C222.912 155.317 229.361 151.54 230.899 144.651L231.49 142.004L230.673 139.187C228.892 133.047 223.467 129.713 216.949 130.753ZM411.224 130.958C408.831 131.852 406.234 133.836 404.538 136.065C400.401 141.502 401.055 149.572 406.037 154.567C408.325 156.86 409.855 157.648 413.467 158.395L416.336 158.987L419.455 158.186C424.316 156.938 427.663 154.004 429.389 149.478C431.878 142.95 429.513 135.973 423.47 132.011L421.301 130.589L417.203 130.422C414.54 130.314 412.447 130.501 411.224 130.958ZM70.8053 149.918C62.1497 151.963 55.6583 161.546 56.5411 170.975C57.1167 177.121 60.9459 183.218 66.1514 186.276C69.1449 188.035 74.5699 189.253 77.6241 188.852C88.0511 187.482 95.0563 179.424 95.1225 168.724C95.1511 164.086 94.0205 160.586 91.2947 156.874C89.2202 154.049 84.5893 150.893 81.2423 150.022C78.4388 149.293 73.655 149.245 70.8053 149.918ZM137.868 153.069C132.703 155.489 129.477 160.712 129.44 166.713C129.392 174.643 135.925 181.039 144.074 181.039H146.983L150.051 179.502C153.314 177.867 155.046 176.148 156.798 172.804L157.882 170.735L157.902 166.211L157.922 161.687L157.016 160.023C155.466 157.176 152.514 154.29 149.9 153.068C146.416 151.437 141.349 151.438 137.868 153.069ZM880.357 156.178C874.045 157.215 869.119 159.209 863.312 163.079C858.795 166.088 708.072 317.185 708.257 318.518L708.397 319.523L730.205 319.639L752.013 319.754L779.195 292.746C794.144 277.892 824.204 247.982 845.993 226.279C873.773 198.611 886.32 186.444 887.983 185.563L890.354 184.307L905.783 184.154L921.213 184.002L921.34 251.763L921.467 319.523L937.199 319.656C948.54 319.752 953.127 319.627 953.63 319.208L954.328 318.627L954.191 246.692L954.055 174.756L952.429 170.986C949.006 163.045 942.816 157.858 934.731 156.153L931.178 155.404L907.773 155.461C891.092 155.502 883.216 155.708 880.357 156.178ZM1014.05 156.202C1004.82 158.226 996.904 166.536 995.408 175.761C994.877 179.043 994.693 317.606 995.218 318.979L995.523 319.775H1011.48H1027.44L1027.85 319.146C1028.07 318.801 1028.37 310.601 1028.5 300.925L1028.75 283.331L1030.47 279.813C1033.71 273.195 1040.63 267.78 1047.5 266.495C1049.21 266.174 1071.53 265.989 1108.44 265.989H1166.69L1167.61 267.874C1168.66 270.028 1179.06 291.861 1181.91 297.909C1182.96 300.12 1185.74 305.948 1188.1 310.859L1192.38 319.788L1210.08 319.655L1227.79 319.523L1227.94 318.476C1228.02 317.9 1226.47 314.055 1224.5 309.931C1222.52 305.807 1219.04 298.474 1216.76 293.636C1214.48 288.798 1211.09 281.673 1209.23 277.802C1207.37 273.932 1204.89 268.702 1203.72 266.18L1201.59 261.595L1203.41 260.728C1206.17 259.41 1211.47 255.713 1214.04 253.308C1220.92 246.863 1225.33 239.188 1227.84 229.295L1228.79 225.525L1228.78 210.697L1228.77 195.868L1227.66 191.508C1222.89 172.634 1207.88 158.923 1188.93 156.126L1184.17 155.423L1100.7 155.464L1017.22 155.505L1014.05 156.202ZM1290.41 156.149C1286.03 157.106 1281.38 159.638 1278.41 162.684C1275.32 165.859 1273.66 168.629 1272.22 173.004L1271.15 176.28L1271.28 247.901L1271.4 319.523L1287.14 319.656C1298.33 319.751 1303.07 319.624 1303.56 319.218L1304.24 318.646V302.675V286.705L1305.3 283.258C1305.88 281.363 1306.89 278.896 1307.55 277.776C1310.58 272.575 1317.62 267.62 1323.51 266.536C1325.54 266.162 1344.92 265.989 1384.73 265.989H1442.97L1444.64 269.634C1445.55 271.638 1447.93 276.671 1449.91 280.818C1454.1 289.575 1457.94 297.669 1462.45 307.208C1464.21 310.94 1466.28 315.238 1467.05 316.759L1468.44 319.523L1486.12 319.655L1503.8 319.788L1504.1 319.017C1504.44 318.13 1503.68 316.27 1498.86 306.203C1494.96 298.05 1492.16 292.167 1485.73 278.556C1483.31 273.441 1480.52 267.584 1479.53 265.539L1477.72 261.821L1478.59 261.156C1479.07 260.791 1479.7 260.485 1480 260.476C1480.97 260.447 1487.93 255.408 1490.66 252.754C1496.41 247.179 1500.55 240.539 1503.09 232.814L1504.5 228.541L1504.67 212.538L1504.84 196.534L1503.54 191.447C1498.63 172.362 1484.11 159.037 1465.05 156.145L1460.17 155.404L1376.82 155.443L1293.46 155.483L1290.41 156.149ZM1582.99 156.165C1573.29 157.646 1564.94 162.019 1557.86 169.319C1551.67 175.702 1547.94 182.257 1545.31 191.356L1544.15 195.365L1544 256.995L1543.86 318.624L1544.56 319.206C1545.06 319.627 1549.63 319.752 1560.99 319.656L1576.72 319.523L1576.99 302.181L1577.25 284.839L1578.96 280.818L1580.66 276.797L1584.21 273.252C1588.02 269.439 1591.8 267.296 1596.16 266.466C1597.67 266.18 1627.8 265.989 1671.79 265.989H1744.91L1745.04 292.756L1745.17 319.523H1761.47H1777.76V257.193V194.863L1776.58 190.841C1774.81 184.82 1773.19 181.223 1770.24 176.767C1762.72 165.405 1751.15 158.019 1737.9 156.11L1733.14 155.423L1660.2 155.468L1587.25 155.514L1582.99 156.165ZM1810.81 156.073C1810.67 156.441 1810.62 168.599 1810.7 183.091L1810.85 209.44L1812.04 212.707C1814.28 218.866 1816.15 221.85 1820.46 226.121L1824.61 230.236L1828.76 232.249C1831.04 233.357 1836.52 235.775 1840.93 237.623C1851.43 242.02 1858.44 244.992 1863.99 247.397C1866.47 248.472 1870.87 250.352 1873.77 251.575C1892.89 259.657 1898.94 262.237 1901.63 263.46C1906.16 265.524 1910.81 270.128 1913.19 274.915L1915.13 278.807L1915.38 298.663C1915.52 309.583 1915.81 318.801 1916.04 319.146L1916.44 319.775H1932.1C1943.62 319.775 1947.93 319.615 1948.37 319.171C1948.81 318.724 1948.97 313.732 1948.97 299.821V281.073L1950.05 277.93C1951.47 273.766 1953.78 270.214 1956.79 267.555C1960.17 264.567 1959.25 265.008 1985.82 253.692C1988.02 252.753 1992.54 250.826 1995.85 249.409C2003.23 246.248 2008.22 244.13 2015.4 241.106C2032.2 234.029 2037.08 231.784 2039.91 229.834C2045.06 226.281 2049.32 220.776 2051.96 214.243L2053.5 210.445V183.05V155.655L2037.77 155.522C2026.58 155.427 2021.84 155.554 2021.35 155.96L2020.66 156.532L2020.66 177.456C2020.66 190.917 2020.46 199.08 2020.11 200.341C2019.36 203.047 2017.89 205.151 2015.46 206.996C2012.7 209.087 2012.55 209.16 2003.62 212.893C1989.91 218.616 1988.16 219.353 1962.88 230.013C1938.08 240.474 1937 240.856 1932.18 240.856C1927.35 240.856 1926.2 240.451 1901.34 229.959C1897.07 228.155 1891.54 225.813 1889.06 224.754C1886.58 223.696 1880.94 221.317 1876.53 219.468C1867.66 215.755 1861.05 212.951 1854.97 210.331C1850.04 208.207 1847.24 206.115 1845.37 203.158L1843.94 200.897L1843.79 178.8C1843.69 164.02 1843.46 156.488 1843.1 156.053L1842.56 155.404H1826.82H1811.07L1810.81 156.073ZM475.883 158.937C467.73 160.995 462.442 168.383 463.114 176.779C463.594 182.775 467.17 187.88 473.016 190.917L475.773 192.349H480.285H484.797L487.733 190.858C493.209 188.076 496.502 182.991 496.955 176.62L497.215 172.956L496.02 169.889C494.393 165.717 491.425 162.52 487.314 160.51C483.638 158.713 479.195 158.101 475.883 158.937ZM1186.28 184.864C1189.73 186.027 1192.64 188.608 1194.29 191.978L1195.7 194.863V210.697V226.53L1194.65 228.818C1193.09 232.193 1190.53 234.838 1187.54 236.164L1184.89 237.338H1106.45H1028V211.492C1028 197.276 1028.14 185.288 1028.31 184.851L1028.61 184.055H1106.25H1183.89L1186.28 184.864ZM1462.52 184.87C1465.69 185.943 1468.27 188.049 1470.02 190.975L1471.44 193.355L1471.59 209.542C1471.69 220.017 1471.55 226.44 1471.2 227.742C1470.32 231.013 1467.81 233.874 1464.22 235.704L1461.01 237.338H1382.63H1304.24V210.697V184.055H1382.18H1460.13L1462.52 184.87ZM1736.65 185.238C1739.26 186.461 1742.22 189.347 1743.77 192.193L1744.67 193.857L1744.82 215.597L1744.97 237.338H1660.94H1576.92L1577.07 215.597L1577.22 193.857L1578.6 191.516C1580.39 188.461 1582.97 186.059 1585.62 184.98L1587.75 184.112L1660.95 184.089L1734.14 184.065L1736.65 185.238ZM523.479 207.132C519.038 208.604 515.569 211.164 513.205 214.715C512.072 216.416 510.9 218.64 510.602 219.656C507.822 229.132 512.272 239.403 521.025 243.712L523.902 245.129H529.417H534.932L537.852 243.669C541.725 241.733 545.03 238.328 546.923 234.323L548.468 231.054V226.269V221.483L546.86 218.226C543.093 210.596 537.856 206.941 529.918 206.4C527.291 206.221 525.672 206.405 523.479 207.132ZM434.914 209.231C431.983 210.563 430.576 211.916 429.099 214.827C425.951 221.026 428.804 228.364 435.32 230.826C441.943 233.329 448.746 229.845 450.753 222.923L451.579 220.075L450.99 217.433C449.361 210.136 441.616 206.184 434.914 209.231ZM70.0924 224.306C66.0887 225.577 62.0935 229.139 60.1323 233.185L58.728 236.081L58.6919 240.102L58.6558 244.124L59.9693 246.932C62.3176 251.953 66.7094 255.357 72.3174 256.502L75.4508 257.143L78.5661 256.498C84.0032 255.372 88.0445 252.206 90.4761 247.17C91.8703 244.283 92.3867 238.63 91.5424 235.499C90.1943 230.501 85.1578 225.519 79.9814 224.062C76.3116 223.03 73.9212 223.089 70.0924 224.306ZM130.206 225.837C120.055 230.875 121.114 245.239 131.886 248.637C135.006 249.62 137.166 249.403 140.351 247.784C144.612 245.619 146.822 241.878 146.822 236.835C146.822 231.78 143.925 227.4 139.299 225.462C136.818 224.423 132.716 224.592 130.206 225.837ZM478.05 263.074C469.188 266.485 466.188 277.838 472.164 285.347C472.902 286.274 474.972 287.756 476.764 288.642L480.024 290.25L483.664 290.013C487.721 289.75 489.644 288.935 492.677 286.193C495.646 283.51 497.07 280.137 497.07 275.791V272.273L495.884 269.719C493.792 265.213 488.356 261.934 483.079 261.994C481.818 262.009 479.555 262.494 478.05 263.074ZM554.208 269.421C548.05 271.032 542.892 275.42 540.028 281.482L538.441 284.839V290.62V296.401L540.057 299.82C542.036 304.01 546.356 308.493 550.223 310.37C551.739 311.106 554.613 311.985 556.61 312.324L560.241 312.94L563.378 312.314C572.803 310.435 579.709 303.414 581.378 294.016L581.979 290.627L581.097 286.476C579.224 277.663 573.777 271.77 565.335 269.423C561.288 268.298 558.499 268.297 554.208 269.421ZM16.0416 271.764C10.1233 273.374 4.98151 277.702 2.15945 283.449L0.5 286.829V292.898V298.966L2.37653 302.773C6.33814 310.81 13.3264 315.3 21.8667 315.296C32.055 315.292 40.5593 308.694 43.0771 298.842C44.1184 294.765 44.0722 292.092 42.88 287.418C39.8294 275.459 27.9445 268.526 16.0416 271.764ZM95.7552 293.103C84.6259 295.025 80.3234 309.261 88.4747 317.192C95.4604 323.989 107.046 321.852 111.229 312.994L112.55 310.196L112.539 306.817C112.51 297.843 104.798 291.542 95.7552 293.103ZM501.342 327.478C494.209 329.844 489.56 336.282 489.561 343.796L489.561 347.17L490.99 350.186C493.86 356.247 498.594 359.471 505.22 359.878L509.098 360.116L512.127 358.98C516.099 357.49 519.654 354.142 521.464 350.186L522.844 347.17L522.82 343.148L522.796 339.127L521.452 336.47C519.587 332.785 517.174 330.267 513.933 328.622L511.175 327.223L507.261 327.018C504.819 326.891 502.593 327.064 501.342 327.478ZM444.298 334.399C438.543 335.754 434.769 340.512 434.769 346.416C434.769 351.414 437.129 355.124 441.682 357.282C446.995 359.8 452.84 358.156 456.256 353.183L458.06 350.557L458.338 347.484C458.812 342.235 456.499 337.902 452.02 335.652C449.143 334.207 446.757 333.82 444.298 334.399ZM46.3699 338.34C40.6977 340.07 36.0578 344.681 33.8514 350.779L32.7273 353.887L32.9148 357.817L33.1028 361.747L34.6685 365.076C39.3917 375.12 49.5263 379.364 59.6585 375.54L62.6665 374.405L65.9709 371.092C70.2017 366.85 71.595 363.556 71.624 357.726L71.6441 353.704L70.505 350.819C68.2801 345.182 64.0127 340.775 58.8874 338.822C56.2784 337.828 48.9709 337.547 46.3699 338.34ZM136.538 352.707C126.016 358.202 129.291 374.112 141.121 374.97L144.046 375.182L146.776 373.929C152.311 371.388 155.247 364.253 152.985 358.841C150.335 352.503 142.515 349.586 136.538 352.707ZM1543.99 389.519L1544.14 414.024L1545.47 416.877C1548.03 422.356 1552.69 426.109 1558.42 427.319C1560.41 427.738 1571.33 427.858 1597.28 427.749L1633.37 427.596V422.318V417.04L1596.61 416.789L1559.85 416.537L1558.38 414.896L1556.92 413.254V389.134V365.014H1550.38H1543.85L1543.99 389.519ZM1664.46 365.705C1663.35 366.058 1661.9 366.643 1661.23 367.005C1659 368.206 1655.1 372.249 1653.93 374.572C1651.81 378.758 1651.62 381.484 1651.78 405.227L1651.92 427.596H1658.19H1664.46L1664.59 417.417L1664.73 407.238H1696.54H1728.36L1728.49 417.417L1728.63 427.596L1735.04 427.737L1741.45 427.877L1741.31 403.106L1741.16 378.335L1739.85 375.57C1737.99 371.664 1735.47 368.986 1731.8 366.99L1728.63 365.266L1697.55 365.164L1666.46 365.063L1664.46 365.705ZM1759.7 365.627C1759.56 365.981 1759.51 380.069 1759.58 396.933L1759.71 427.596L1796.06 427.744C1823.15 427.854 1833.16 427.736 1835.37 427.28C1841.24 426.071 1847.27 420.474 1848.67 414.932C1849.44 411.899 1849.33 406.328 1848.44 403.329C1848.02 401.908 1846.91 399.738 1845.97 398.507L1844.26 396.268L1845.15 395.463C1845.64 395.021 1846.69 393.36 1847.49 391.775L1848.95 388.891V383.361V377.832L1847.72 375.319C1846.15 372.101 1842.13 368.074 1838.93 366.498L1836.42 365.266L1798.18 365.125L1759.94 364.984L1759.7 365.627ZM1875.52 365.713C1870.72 367.228 1866.06 371.658 1864.17 376.502C1862.64 380.447 1862.65 386.296 1864.19 390.272C1865.66 394.043 1869.36 398.07 1873.1 399.969L1876.02 401.457L1906.27 401.709L1936.52 401.96L1937.98 403.602L1939.44 405.243V409.249V413.254L1937.98 414.896L1936.52 416.537L1901.51 416.789L1866.5 417.04V422.318V427.596L1901.32 427.725L1936.13 427.854L1939.03 427.11C1947.01 425.061 1952.48 417.791 1952.48 409.241C1952.48 401.817 1948.44 395.467 1941.7 392.311L1938.69 390.901L1908.75 390.65L1878.8 390.399L1877.46 389.049L1876.11 387.699L1875.88 384.925C1875.57 381.092 1876.11 378.727 1877.6 377.428L1878.86 376.324L1913.79 376.073L1948.72 375.821L1948.86 370.418L1949 365.014L1913.27 365.048L1877.53 365.082L1875.52 365.713ZM1726.91 377.542L1728.38 379.011V387.595V396.179H1696.54H1664.71V388.104C1664.71 379.746 1664.94 378.551 1666.9 376.964L1667.97 376.095L1696.71 376.084L1725.45 376.073L1726.91 377.542ZM1834.78 377.54L1836.42 379.006V383.361V387.717L1834.78 389.183L1833.14 390.65H1802.82H1772.5V383.361V376.073H1802.82H1833.14L1834.78 377.54ZM98.2619 391.593C93.619 392.83 89.3626 396.276 87.2038 400.549L85.7283 403.468V407.992V412.516L86.9511 415.008C88.6998 418.57 91.2301 421.16 94.7224 422.962L97.7606 424.53L102.022 424.555L106.283 424.58L109.041 423.276C112.548 421.617 115.65 418.493 117.396 414.861L118.764 412.013L118.766 407.992L118.769 403.971L117.636 401.474C115.931 397.715 113.478 395.039 110.065 393.216L106.995 391.575L103.381 391.383C101.392 391.278 99.0891 391.372 98.2619 391.593ZM501.133 394.967C493.101 397.132 487.88 403.073 486.496 411.622L485.908 415.252L486.79 418.911C487.843 423.277 489.264 425.862 492.168 428.688C495.055 431.497 498.336 433.151 502.504 433.898L505.955 434.516L509.665 433.675C515.873 432.268 520.454 428.639 523.275 422.895L524.905 419.575V414.286V408.997L523.323 405.65C520.737 400.178 516.239 396.487 510.294 394.96C506.571 394.004 504.7 394.005 501.133 394.967ZM1833.96 402.663C1835.57 403.731 1836.23 405.096 1836.52 407.928C1836.9 411.685 1835.97 414.607 1834.01 415.804L1832.41 416.785L1802.45 416.787L1772.5 416.789V409.234V401.679L1802.7 401.819L1832.91 401.96L1833.96 402.663ZM433.351 403.408C428.923 404.994 426.553 407.171 424.603 411.442L423.258 414.387L423.493 418.048C423.668 420.79 424.054 422.269 425.031 423.94C426.761 426.901 429.716 429.512 432.573 430.606L434.897 431.496L438.791 431.268L442.685 431.04L444.941 429.631C453.226 424.457 454.422 413.58 447.451 406.797C443.816 403.259 437.8 401.814 433.351 403.408ZM161.755 425.119C158.596 425.971 156.871 427.114 154.426 429.978C151.346 433.586 150.461 438.395 151.95 443.423L152.747 446.113L155.622 448.996C158.781 452.163 160.708 452.973 165.094 452.977C169.229 452.982 171.958 452.073 174.47 449.856C177.637 447.061 179.266 444.068 179.594 440.443C180.273 432.935 176.198 426.943 169.13 425.057C165.873 424.188 165.184 424.194 161.755 425.119ZM359.721 429.462C356.765 430.121 353.633 432.428 352.147 435.042L350.95 437.146L350.963 440.414C350.997 449.213 359.728 454.955 367.483 451.28C370.602 449.802 372.481 447.832 373.48 444.993C375.9 438.117 372.172 431.169 365.13 429.433C362.493 428.782 362.772 428.781 359.721 429.462ZM232.15 436.609C229.493 437.599 227.89 438.853 226.177 441.281L224.745 443.31L224.479 446.636C224.06 451.865 226.271 456.135 230.542 458.35C232.602 459.418 237.187 459.747 239.891 459.021C242.861 458.225 246.619 454.418 247.439 451.377C248.837 446.191 246.677 440.454 242.306 437.745C239.458 435.979 235.136 435.496 232.15 436.609ZM477.027 459.711C468.837 461.537 462.643 468.252 460.746 477.36C458.952 485.974 463.28 495.496 471.119 500.183C473.605 501.669 479.237 503.247 482.059 503.247C490.077 503.247 498.191 498.07 501.638 490.757C509.675 473.703 495.346 455.627 477.027 459.711ZM95.129 461.8C93.6816 462.191 91.5484 462.995 90.3888 463.589C87.0584 465.292 82.6621 470.053 80.8297 473.94L79.2179 477.36V482.889V488.418L80.8192 491.816C83.6823 497.888 88.7915 502.177 95.9327 504.5C97.9406 505.153 99.7715 505.322 103.202 505.17L107.787 504.968L111.681 503.039C128.035 494.931 127.851 471.955 111.367 463.811C105.747 461.034 100.412 460.374 95.129 461.8ZM402.327 464.509C395.394 466.631 390.275 473.086 389.873 480.214C389.393 488.731 394.927 495.929 403.33 497.717L406.279 498.345L409.581 497.72C416.477 496.416 421.519 491.463 423.191 484.353L424.048 480.708L423.214 477.318C421.762 471.417 418.846 467.898 413.239 465.281L410.599 464.049L407.089 464.087C405.159 464.108 403.016 464.298 402.327 464.509ZM302.759 470.516C298.265 471.681 294.141 475.579 292.972 479.768C290.577 488.347 295.483 496.493 304.141 498.314L306.95 498.905L310.259 498.007C322.385 494.716 324.298 477.922 313.227 471.94C310.433 470.43 305.617 469.774 302.759 470.516ZM161.824 488.809C148.266 493.669 144.283 510.043 154.114 520.494C158.002 524.627 163.289 526.581 169.786 526.286L173.965 526.097L176.831 524.76C180.753 522.932 184.249 519.51 186.266 515.526L187.942 512.216L187.956 507.354L187.971 502.493L186.616 499.558C185.87 497.945 184.663 495.909 183.933 495.034C178.626 488.679 169.418 486.085 161.824 488.809ZM234.75 491.416C228.94 492.691 223.702 497.735 222.306 503.397C221.464 506.813 221.953 512.172 223.375 515.118C229.63 528.072 248.263 527.736 254.505 514.557L255.933 511.541L255.931 508.022C255.928 503.61 255.335 501.448 253.289 498.396C251.021 495.013 247.412 492.437 243.594 491.475C239.944 490.556 238.708 490.548 234.75 491.416ZM350.187 512.385C348.67 512.959 347.074 513.739 346.638 514.118C346.203 514.497 345.615 514.808 345.332 514.808C344.568 514.808 339.915 519.89 338.93 521.8C333.524 532.282 338.2 544.763 349.106 548.965C353.09 550.499 356.452 550.749 360.19 549.789C368.625 547.622 374.817 541.068 375.725 533.344C376.88 523.526 371.919 515.381 362.884 512.265C359.089 510.956 353.833 511.005 350.187 512.385ZM286.148 540.214C279.532 542 274.329 546.272 271.463 552.27L269.789 555.775L269.567 559.911C269.323 564.469 269.888 567.414 271.769 571.401C273.444 574.951 277.831 579.261 281.727 581.184L284.911 582.756L288.948 583.033C299.294 583.744 307.537 579.113 311.733 570.231L313.338 566.834V561.304V555.775L311.741 552.396C307.098 542.568 296.359 537.456 286.148 540.214Z" fill="white"/>
</svg>
