<svg width="2722" height="441" viewBox="0 0 2722 441" fill="none" xmlns="http://www.w3.org/2000/svg">
<path fill-rule="evenodd" clip-rule="evenodd" d="M2081.44 0.737271C2080.34 0.883419 2076.91 1.32983 2073.8 1.72908C2043.46 5.62923 2016.21 18.5281 1997.53 37.8322C1990.8 44.7954 1988.41 48.2651 1983.98 57.4903C1977.19 71.64 1974.47 83.203 1974.52 97.6809C1974.65 131.532 1995.18 162.046 2040.9 196.319C2045.85 200.027 2074.76 219.644 2105.15 239.914C2135.55 260.184 2162.47 278.451 2164.98 280.506C2178.67 291.708 2190.4 308.461 2196.27 325.206C2203.2 344.954 2202.88 368.141 2195.42 386.197C2185.7 409.748 2165.89 425.317 2137.65 431.596L2131.26 433.016L2113.86 433.309L2096.45 433.601L2087.62 432.491C2069.45 430.206 2056.58 426.814 2044.65 421.163C2017.24 408.176 2000.83 384.362 1993.2 346.464C1990.44 332.758 1988.92 319.244 1987.71 297.803L1987.31 290.662H1984.06H1980.8V349.468V408.273L1983.95 410.288C1993.73 416.526 2016.81 426.402 2028.96 429.539C2030.06 429.822 2033.05 430.657 2035.6 431.393C2045.3 434.185 2061.86 437.166 2081.11 439.586C2090.62 440.781 2133.1 440.792 2140.9 439.601C2152.64 437.807 2155.38 437.289 2162.82 435.465C2201.41 425.994 2228.15 404.814 2238.72 375.361C2253.29 334.761 2241.44 291.191 2205.9 254.724C2194.43 242.955 2184.27 234.82 2165.48 222.379C2159.08 218.146 2142.34 207.069 2128.27 197.765C2068.18 158.015 2057.86 151.023 2051.86 145.994C2029.39 127.151 2017.33 105.073 2017.33 82.734C2017.33 48.7148 2045.93 16.5876 2083.01 8.94877L2089.23 7.66732H2102.96C2130.3 7.66732 2152.11 11.9176 2170.04 20.7429C2178.98 25.1439 2186.27 30.461 2192.43 37.0715C2204 49.502 2210.75 64.1666 2215.27 86.7198C2217.47 97.6842 2219.28 114.298 2219.28 123.482C2219.28 126.952 2219.47 130.264 2219.69 130.842C2219.99 131.62 2221.02 131.893 2223.67 131.893H2227.26V80.187V28.4814L2221.44 25.7478C2209.91 20.3237 2196.21 15.3979 2180.42 11.0015C2171.36 8.47711 2149.45 4.09003 2140.56 3.02182C2136.91 2.58271 2131.83 1.93435 2129.27 1.58094C2124.6 0.935899 2085.17 0.24037 2081.44 0.737271ZM0.5 8.99593V12.3175L5.98053 12.3274C15.7651 12.3447 23.8936 15.087 28.8533 20.044C33.0902 24.2783 35.3455 29.3211 37.1332 38.5576L38.0333 43.2077V216.592V389.976L37.1471 394.958C35.9428 401.731 33.9007 408.576 31.9117 412.507C29.6059 417.064 24.326 422.422 20.1057 424.487C15.9033 426.543 8.87292 428.146 3.98761 428.162L0.5 428.173V431.827V435.481H62.9448H125.39V431.827V428.173H122.19C113.48 428.173 104.56 424.752 99.3641 419.417C94.6004 414.526 91.4987 407.418 89.4168 396.619L88.5206 391.969V215.927V39.8862L89.9841 34.4409C91.805 27.6623 93.4936 24.3115 97.0111 20.4957C101.936 15.1534 109.808 12.3454 119.909 12.3274L125.39 12.3175V8.99593V5.6744H62.9448H0.5V8.99593ZM189.957 8.82985L190.16 11.9853L195.806 12.4005C212.058 13.5963 224.166 19.7517 239.669 34.698C250.098 44.7529 257.925 54.018 274.139 75.497L287.48 93.1709V199.813C287.48 306.831 287.078 331.949 285.087 349.121C280.289 390.505 267.203 411.83 240.359 422.007C231.913 425.209 221.679 427.146 209.258 427.894L201.785 428.344V431.915V435.486L286.982 435.317L372.18 435.149L372.378 431.749L372.575 428.349L365.734 427.89C348.948 426.762 337.554 423.563 327.57 417.176C313.103 407.922 303.285 390.571 298.834 366.393C294.89 344.968 294.672 336.463 294.907 213.333L295.12 102.457L303.852 114.019C308.655 120.379 316.569 130.813 321.439 137.207C331.216 150.043 345.398 168.72 358.515 186.034C368.591 199.332 377.406 210.944 387.514 224.231C397.949 237.949 412.492 257.112 423.317 271.41C434.951 286.776 477.263 342.516 495.419 366.393C498.336 370.229 510.13 385.774 521.628 400.937C533.126 416.1 543.736 430.075 545.207 431.993L547.882 435.481H554.51H561.138L561.379 266.581L561.622 97.6809L562.703 88.7127C565.697 63.8776 569.212 52.0556 577.416 39.2299C583.818 29.2227 596.867 20.0885 610.32 16.1983C617.446 14.1377 630.146 12.3175 637.404 12.3175H644.213V8.99593V5.6744H560.51H476.808V8.99593V12.3175L482.953 12.3195C498.927 12.3254 515.42 17.5256 526.114 25.9284C537.723 35.0507 546.381 52.3698 549.861 73.4337C553.612 96.1337 553.964 111.87 553.735 246.122L553.535 363.34L539.54 344.771C531.842 334.558 513.626 310.359 499.059 290.994C425.683 193.449 360.864 107.305 333.106 70.4443C320.725 54.0027 304.721 32.7084 297.543 23.1237L284.491 5.69632L237.123 5.68569L189.754 5.6744L189.957 8.82985ZM701.344 8.89429V12.1142L708.485 12.5314C721.135 13.2701 727.58 14.9328 734.092 19.1379C739.026 22.3246 741.915 25.1472 746.151 30.9181C752.441 39.4883 755.005 45.5541 771.423 90.7056C786.098 131.064 788.562 137.82 790.683 143.518C791.908 146.806 795.799 157.419 799.329 167.101C802.859 176.783 806.744 187.395 807.963 190.684C811.286 199.651 814.824 209.237 817.282 215.927C818.49 219.216 820.531 224.746 821.818 228.217C823.105 231.688 826.587 241.105 829.555 249.143C837.356 270.27 839.097 274.973 841.724 282.026C843.017 285.497 845.61 292.478 847.488 297.538C849.366 302.598 851.16 307.381 851.475 308.166C851.79 308.952 853.386 313.182 855.021 317.566C856.656 321.951 860.141 331.218 862.764 338.16C865.387 345.102 869.624 356.312 872.179 363.071C874.733 369.831 877.698 377.603 878.766 380.343C886.056 399.049 893.918 419.189 896.852 426.679L900.302 435.481H904.139H907.976L908.69 433.654C909.083 432.649 910.417 429.061 911.656 425.68C912.894 422.298 914.953 416.692 916.232 413.221C917.511 409.75 919.603 404.07 920.882 400.599C922.161 397.128 924.254 391.449 925.532 387.978C926.811 384.507 928.904 378.827 930.183 375.356C931.461 371.885 933.554 366.205 934.833 362.734C936.111 359.263 938.204 353.583 939.483 350.112C940.762 346.641 942.854 340.961 944.133 337.49C945.412 334.019 947.504 328.339 948.783 324.868C950.062 321.397 952.154 315.718 953.433 312.247C954.712 308.776 956.773 303.172 958.014 299.794C965.799 278.599 972.805 259.572 974.831 254.125C977.219 247.699 980.084 239.936 984.023 229.214C985.231 225.925 987.275 220.395 988.565 216.924C993.197 204.464 999.546 187.223 1002.27 179.723C1003.79 175.521 1006.04 169.393 1007.26 166.104C1008.49 162.816 1010.88 156.239 1012.58 151.49C1018.3 135.526 1019.01 133.576 1021.35 127.243C1035.11 89.9337 1043.41 69.7116 1051.47 53.8366C1061.27 34.5372 1068.41 25.0509 1077.34 19.4774C1084.88 14.7734 1091.77 13.1432 1106.74 12.5194L1116.54 12.1109V8.89296V5.6744H1046.45H976.366V8.86506V12.0564L985.501 12.8795C1011.96 15.2643 1024.11 22.7763 1029.2 39.8862L1030.38 43.872L1030.34 53.8366C1030.29 67.0942 1028.73 75.6538 1022.41 97.3487C1019.61 106.986 1012.34 129.263 1007.56 142.854C1006.41 146.142 1004.42 151.822 1003.15 155.476C1001.87 159.129 999.09 166.902 996.963 172.748C994.836 178.593 991.703 187.263 990.001 192.012C988.299 196.762 986.505 201.695 986.015 202.973C984.949 205.755 983.102 210.808 980.674 217.588C979.692 220.328 977.894 225.261 976.679 228.549C975.463 231.838 973.071 238.414 971.364 243.164C966.474 256.772 960.512 273.178 958.089 279.701C956.867 282.989 954.471 289.566 952.764 294.316C947.863 307.951 933.796 346.646 927.142 364.795C924.986 370.676 923.213 375.908 923.202 376.421C923.176 377.604 921.995 375.653 921.224 373.153C920.702 371.459 916.004 358.187 911.895 346.796C910.841 343.873 908.803 338.193 907.368 334.174C905.932 330.155 903.355 322.98 901.641 318.231C899.928 313.481 898.279 308.847 897.978 307.934C897.471 306.395 896.054 302.443 888.691 282.026C887.175 277.824 885.085 271.995 884.046 269.072C883.007 266.149 880.915 260.32 879.396 256.118C877.878 251.916 875.785 246.087 874.746 243.164C873.707 240.241 871.614 234.412 870.094 230.21C868.575 226.008 866.329 219.731 865.105 216.26C863.881 212.789 861.78 206.959 860.436 203.306C859.092 199.652 857.753 195.915 857.461 195.002C857.169 194.088 855.524 189.455 853.806 184.705C852.087 179.955 849.247 172.033 847.493 167.101C845.739 162.168 843.213 155.143 841.879 151.49C840.545 147.836 838.893 143.202 838.209 141.193C837.525 139.183 835.559 133.653 833.841 128.903C830.984 121.001 828.887 115.153 823.602 100.338C822.559 97.4151 820.463 91.5859 818.944 87.3841C817.426 83.1824 815.335 77.3531 814.297 74.4301C813.259 71.5072 811.355 66.2014 810.065 62.6387C808.775 59.0767 807.35 53.9635 806.899 51.2764L806.077 46.3904L806.86 41.6526C807.975 34.8986 809.394 31.1419 812.513 26.6884C818.194 18.5739 828.334 13.9902 843.682 12.5998L848.82 12.1341V8.90426V5.6744H775.082H701.344V8.89429ZM1188.28 8.86174V12.0484L1194.43 12.8277C1202.53 13.8553 1206.17 15.174 1209.86 18.4271C1214.51 22.5186 1216.57 27.6052 1218.3 39.2219C1219.41 46.684 1219.92 363.72 1218.85 382.271C1217.67 402.844 1215.46 412.417 1210.34 419.205C1206.15 424.754 1198.71 428.173 1190.83 428.173H1188.28V431.827V435.481H1331.11H1473.93V373.368V311.255H1470.61C1468.78 311.255 1467.29 311.479 1467.28 311.754C1467.25 313.408 1465.23 332.19 1464.72 335.503C1457.33 383.524 1434.37 410.96 1392.38 421.946C1373.26 426.95 1356.31 428.168 1305.7 428.171L1269.33 428.173V324.874V221.574L1294.07 221.588C1341.59 221.614 1355.13 223.796 1370.32 233.883C1383.67 242.742 1391.74 257.888 1393.25 276.878L1393.71 282.69H1396.95H1400.19V218.585V154.479H1396.96H1393.72L1393.3 156.555C1393.07 157.697 1392.89 159.864 1392.89 161.371C1392.88 167.276 1389.61 179.178 1386.37 185.037C1382.31 192.383 1379.37 195.994 1373.95 200.286C1364.82 207.525 1354.6 211.329 1338.08 213.632C1335.14 214.043 1318.47 214.533 1300.71 214.731L1268.66 215.089V113.615V12.1414L1306.36 12.5207C1343.61 12.8961 1355.46 13.4182 1370.22 15.3354C1409.67 20.4572 1433.62 34.5604 1447.17 60.6438C1453.41 72.6458 1457.36 88.4058 1458.4 105.486L1458.83 112.628H1462.4H1465.96V59.1511V5.6744H1327.12H1188.28V8.86174ZM1572.91 8.85244V12.0305L1581.14 12.8184C1597.52 14.3874 1602.84 18.6237 1605.94 32.5841L1607.13 37.8933V213.602V389.311L1606.26 395.29C1605.02 403.898 1604.23 407.355 1602.4 412.23C1599.93 418.827 1597 422.366 1591.93 424.861L1587.62 426.982L1580.24 427.712L1572.85 428.441L1573.05 431.795L1573.25 435.149L1630.87 435.319L1688.5 435.488V431.909V428.33L1683.35 427.866C1673.53 426.98 1668.45 425.205 1663.85 421.056C1659.16 416.816 1656.2 410.098 1654.12 398.967L1653.06 393.297L1652.81 315.407L1652.56 237.517H1671.16C1696.8 237.517 1708.83 238.542 1722.71 241.908C1750.06 248.539 1768.89 264.021 1778.77 288.005C1781.3 294.132 1784.47 306.421 1790.27 332.513C1790.64 334.157 1791.17 336.549 1791.46 337.828C1807.12 408.045 1813.7 424.466 1828.85 431.111C1837.41 434.863 1844.82 435.481 1881.3 435.481H1912.37V431.904V428.328L1907.89 427.869C1882.68 425.286 1866.22 414.867 1856.42 395.29C1853.4 389.253 1851.96 384.473 1847.56 365.729C1834.79 311.352 1818.79 274.117 1800.15 255.383C1786.13 241.299 1776.01 237.492 1744.97 234.624C1743.69 234.505 1744.74 234.358 1747.29 234.297C1749.85 234.236 1755.3 233.742 1759.4 233.199C1786.99 229.555 1807.42 220.744 1821.93 206.233C1837.75 190.415 1846.14 169.686 1848.94 139.532C1851.89 107.681 1847.28 76.3041 1836.78 56.826C1822.64 30.5959 1797.12 16.2475 1752.91 9.6609C1745.11 8.49903 1736.27 7.6806 1720.72 6.67883L1705.44 5.69499L1639.18 5.68503L1572.91 5.6744V8.85244ZM2519.99 9.16201C2519.33 11.0805 2518.09 14.5927 2517.23 16.9676C2516.37 19.3425 2514.27 25.1718 2512.57 29.9216C2510.86 34.6714 2508.72 40.6501 2507.8 43.2077C2506.88 45.7653 2505.14 50.5483 2503.93 53.8366C2502.72 57.1249 2500.98 61.908 2500.07 64.4655C2499.16 67.0231 2497.04 72.9268 2495.36 77.5856C2493.69 82.2444 2490.94 89.8673 2489.27 94.5254C2487.59 99.1835 2485.52 104.938 2484.66 107.313C2483.8 109.688 2479.97 120.301 2476.16 130.896C2472.34 141.492 2468.56 151.955 2467.77 154.147C2466.97 156.339 2465.46 160.524 2464.41 163.447C2463.36 166.37 2461.26 172.199 2459.74 176.401C2458.23 180.603 2456.13 186.432 2455.1 189.355C2454.06 192.278 2452.12 197.659 2450.79 201.313C2446.9 211.971 2443.21 222.167 2441.18 227.885C2440.14 230.808 2438.04 236.637 2436.51 240.839C2434.98 245.041 2432.88 250.87 2431.84 253.793C2430.8 256.716 2428.71 262.545 2427.19 266.747C2425.67 270.949 2423.58 276.778 2422.54 279.701C2421.5 282.624 2419.41 288.453 2417.89 292.655C2416.37 296.857 2414.28 302.686 2413.23 305.609C2403.03 334.179 2390.76 364.212 2381.75 382.668C2373.06 400.484 2366.72 410.337 2359.07 417.928C2351.98 424.954 2344.24 428.173 2334.42 428.173H2330.89V431.827V435.481H2394.99H2459.1V431.827V428.173L2452.95 428.169C2445.07 428.165 2435.23 426.674 2428.78 424.509C2416.75 420.469 2409.98 414.084 2406.16 403.173L2404.34 397.947L2404.36 387.319C2404.37 379.983 2404.75 374.734 2405.57 370.379C2406.69 364.422 2410.57 348.489 2411.96 344.139C2416.49 329.893 2420.69 317.148 2423.39 309.426L2426.69 299.957L2508.06 300.126L2589.43 300.294L2590.25 302.619C2590.7 303.898 2594.45 313.913 2598.59 324.874C2602.73 335.835 2606.77 346.597 2607.58 348.789C2608.39 350.981 2610.93 357.558 2613.21 363.404C2621.22 383.901 2623.85 394.307 2623.84 405.453C2623.81 419.912 2618.31 426.598 2605.25 428.032L2600.93 428.506L2600.73 431.993L2600.53 435.481H2661.01H2721.5V431.827V428.173H2719.3C2714.91 428.173 2709.11 426.703 2704.39 424.393C2696.42 420.489 2689.55 411.978 2681.74 396.32C2677.11 387.038 2675.29 382.651 2662.37 349.453C2656.82 335.204 2651.43 321.453 2650.38 318.895C2649.34 316.337 2645.92 307.668 2642.78 299.63C2635.62 281.286 2628.15 262.245 2620.23 242.168C2616.85 233.581 2611.61 220.279 2608.59 212.606C2602.31 196.662 2591.17 168.433 2584.99 152.818C2571.26 118.094 2538.97 37.3074 2533.03 22.7803L2526.03 5.6744H2523.61H2521.19L2519.99 9.16201ZM1712.09 13.6022C1749.3 16.9563 1769.97 27.5726 1783.18 50.1185C1788.69 59.5105 1793.18 73.0909 1795.39 87.052C1798.69 107.83 1798.45 141.059 1794.85 161.786C1788.72 197.111 1771.93 217.517 1742.64 225.241C1727.99 229.107 1714.27 230.207 1680.7 230.209L1652.63 230.21V121.165V12.1215L1678.7 12.5327C1693.05 12.7586 1708.07 13.2402 1712.09 13.6022ZM2510.52 94.1933C2513.34 101.592 2516.66 110.186 2517.89 113.292C2519.12 116.398 2523.6 128.056 2527.85 139.2C2532.1 150.344 2536.3 161.33 2537.19 163.613C2540.42 171.876 2542.16 176.405 2549.77 196.33C2554.02 207.474 2558.21 218.385 2559.07 220.578C2559.94 222.77 2564.41 234.428 2569.02 246.486C2573.63 258.543 2577.83 269.454 2578.36 270.733C2578.88 272.012 2580.09 275.15 2581.06 277.708C2583.87 285.165 2585.81 290.243 2586.31 291.492L2586.79 292.655H2508C2464.66 292.655 2429.21 292.41 2429.21 292.111C2429.21 291.813 2430.28 288.599 2431.59 284.97C2437.32 269.1 2439.99 261.652 2440.5 260.104C2441.07 258.371 2445.06 247.251 2449.8 234.196C2451.33 229.994 2452.82 225.809 2453.11 224.896C2453.4 223.982 2455.58 217.854 2457.96 211.277C2460.35 204.701 2464.75 192.444 2467.74 184.041C2470.74 175.637 2475.23 163.082 2477.73 156.14C2480.22 149.198 2484.4 137.539 2487.01 130.232C2494.12 110.363 2494.6 109.025 2497.95 99.6738C2499.66 94.924 2501.78 89.0881 2502.66 86.7059C2503.55 84.323 2504.27 82.0065 2504.27 81.5575C2504.27 78.8577 2505.96 82.2749 2510.52 94.1933Z" fill="white"/>
</svg>
