<svg width="2772" height="433" viewBox="0 0 2772 433" fill="none" xmlns="http://www.w3.org/2000/svg">
<path fill-rule="evenodd" clip-rule="evenodd" d="M2548.81 1.14338L2544.69 1.33944V3.01923V4.69903H2529.63H2514.58V6.40382V8.10862L2509.89 8.11374C2507.31 8.11601 2503.86 8.27967 2502.22 8.47686L2499.23 8.83543V10.4607V12.0865H2493.55H2487.87V14.0754V16.0643H2482.18H2476.5V17.7691V19.4739H2472.81H2469.11V21.4629V23.4518H2465.14H2461.16V25.4407V27.4297H2457.46H2453.77V29.1345V30.8392H2450.08H2446.38V32.8282V34.8171H2442.69H2439V36.806V38.795H2437.01H2435.02V40.4338V42.0722L2431.32 42.4677L2427.63 42.8632V44.5231V46.1824H2425.64H2423.65V48.1714V50.1603H2421.66H2419.68V51.8293V53.4977L2417.83 53.6761L2415.98 53.854L2415.8 55.7009L2415.63 57.5477H2413.96H2412.29V59.2167V60.8852L2410.44 61.0636L2408.59 61.2415L2408.42 63.0253L2408.25 64.8096L2404.58 65.2017L2400.92 65.5938V68.9221V72.2505L2399.08 72.4289L2397.23 72.6068L2397.05 74.4201L2396.88 76.2334L2395.06 76.409L2393.25 76.5846L2393.07 78.4315L2392.89 80.2784H2391.23H2389.56V82.2673V84.2562H2387.57H2385.58V86.2452V88.2341H2383.93H2382.28L2381.89 91.6437L2381.49 95.0533H2379.84H2378.19V97.3263V99.5994H2376.2H2374.21V103.293V106.987H2372.54H2370.88L2370.7 108.834L2370.52 110.681L2368.67 110.858L2366.83 111.037V114.694V118.352H2364.84H2362.85V122.046V125.74H2361.22H2359.6L2359.24 128.723C2359.04 130.364 2358.88 132.921 2358.88 134.406L2358.87 137.105H2357.17H2355.46V140.763V144.42L2353.61 144.599L2351.77 144.777L2351.61 150.601L2351.44 156.426H2349.82H2348.2L2347.79 163.813L2347.38 171.201H2345.74H2344.1V182.566V193.931H2342.47H2340.84L2340.49 196.915C2340.02 200.795 2340.02 236.507 2340.49 240.387L2340.84 243.371H2342.47H2344.1V254.736V266.101H2345.74H2347.38L2347.79 273.489L2348.2 280.876H2349.84H2351.48V286.559V292.241H2353.47H2355.46V296.219V300.197H2357.17H2358.87L2358.88 302.896C2358.88 304.381 2359.04 306.938 2359.24 308.579L2359.6 311.563H2361.16H2362.72L2363.11 315.256L2363.51 318.95H2365.1H2366.69L2367.09 322.61L2367.48 326.27L2369 326.446L2370.52 326.622L2370.7 328.468L2370.88 330.315H2372.54H2374.21V334.009V337.703H2376.2H2378.19V339.692V341.681H2379.83H2381.47L2381.86 345.374L2382.26 349.068H2383.92H2385.58V351.057V353.046H2387.57H2389.56V355.035V357.024H2391.23H2392.89L2393.07 358.871L2393.25 360.717L2395.06 360.893L2396.88 361.069L2397.05 362.882L2397.23 364.695L2399.08 364.873L2400.92 365.052V366.72V368.389H2402.59H2404.26L2404.44 370.236L2404.62 372.083L2406.43 372.258L2408.24 372.434L2408.42 374.247L2408.59 376.061L2410.44 376.239L2412.29 376.417V378.085V379.754H2413.96H2415.63L2415.8 381.601L2415.98 383.448L2417.83 383.626L2419.68 383.804V385.473V387.142H2421.66H2423.65V389.131V391.12H2427.35H2431.04V393.109V395.098H2433.03H2435.02V396.802V398.507H2437.01H2439V400.166V401.826L2442.69 402.222L2446.38 402.617V404.211V405.804L2450.08 406.2L2453.77 406.595V408.234V409.872H2457.46H2461.16V411.861V413.85H2465.14H2469.11V415.839V417.828H2472.81H2476.5V419.533V421.238H2482.18H2487.87V423.227V425.216H2493.55H2499.23V426.841V428.467L2502.22 428.825C2503.86 429.022 2507.31 429.186 2509.89 429.188L2514.58 429.193V430.898V432.603H2556.34H2598.11V430.898V429.193L2602.8 429.188C2605.38 429.186 2608.83 429.022 2610.47 428.825L2613.45 428.467V426.841V425.216L2618.43 425.209C2621.16 425.206 2624.36 425.045 2625.53 424.851L2627.66 424.498V422.868V421.238H2631.92H2636.18V419.533V417.828L2638.6 417.823C2639.93 417.821 2642.36 417.657 2644 417.46L2646.98 417.101V415.476V413.85H2650.68H2654.37V411.861V409.872H2658.35H2662.32V408.203V406.535L2664.17 406.357L2666.02 406.179L2666.2 404.332L2666.37 402.485H2670.03H2673.69V400.496V398.507H2675.68H2677.67V396.868V395.23L2681.36 394.834L2685.06 394.439V392.779V391.12H2687.04H2689.03V389.131V387.142H2691.02H2693.01V385.493V383.844L2696.42 383.448L2699.83 383.053V381.403V379.754H2701.82H2703.81V377.765V375.777H2705.8H2707.79V373.788V371.799H2709.77H2711.76V370.094V368.389H2713.47H2715.17V366.4V364.411H2717.16H2719.15V362.422V360.433H2720.8H2722.45L2722.84 357.024L2723.24 353.614H2724.89H2726.54V351.625V349.636H2728.53H2730.52V347.647V345.658H2732.18H2733.84L2734.23 341.965L2734.63 338.271H2736.27H2737.9V336.282V334.293H2739.89H2741.88V330.635V326.978L2743.73 326.799L2745.58 326.622L2745.74 323.07L2745.91 319.518H2747.52H2749.12L2749.51 315.54L2749.91 311.563H2751.58H2753.25V307.905V304.247L2755.09 304.069L2756.94 303.891L2757.11 300.055L2757.28 296.219H2758.93H2760.59L2760.76 290.679L2760.92 285.138L2762.77 284.96L2764.61 284.782V277.467V270.151L2766.46 269.973L2768.31 269.795L2768.46 261.981L2768.62 254.168H2770.31H2772V218.651V183.134H2770.3H2768.59L2768.59 176.457C2768.58 172.785 2768.42 168.437 2768.22 166.797L2767.86 163.813H2766.24H2764.61V158.131V152.448H2762.99H2761.36L2761 149.811C2760.8 148.362 2760.63 145.804 2760.63 144.129V141.083H2758.96H2757.28L2757.11 137.247L2756.94 133.411L2755.09 133.233L2753.25 133.055V129.398V125.74H2751.6H2749.95L2749.55 121.762L2749.15 117.784H2747.53H2745.91L2745.74 114.232L2745.58 110.681L2743.73 110.503L2741.88 110.324V106.667V103.009H2739.89H2737.9V101.02V99.0311H2736.23H2734.55L2734.38 95.4795L2734.21 91.9278L2732.36 91.7499L2730.52 91.5715V89.6189V87.6658H2728.53H2726.54V85.6769V83.688H2724.89H2723.24L2722.84 80.2784L2722.45 76.8688H2720.8H2719.15V74.8798V72.8909H2717.16H2715.17V70.902V68.913H2713.47H2711.76V67.2083V65.5035H2709.77H2707.79V63.5145V61.5256H2705.8H2703.81V59.5367V57.5477H2701.82H2699.83V55.8986V54.2495L2696.45 53.858L2693.08 53.4659L2692.9 51.6707L2692.73 49.8761L2690.88 49.6983L2689.03 49.5198V47.8514V46.1824H2687.04H2685.06V44.5134V42.845L2683.21 42.6666L2681.36 42.4887L2681.18 40.6418L2681.01 38.795H2677.35H2673.69V36.806V34.8171H2670.03H2666.37L2666.2 32.9702L2666.02 31.1234L2664.17 30.9455L2662.32 30.7671V29.0986V27.4297H2658.35H2654.37V25.4407V23.4518H2650.68H2646.98V21.8243V20.1968L2644.34 19.8354C2642.9 19.6365 2640.47 19.4739 2638.95 19.4739H2636.18V17.7691V16.0643H2632.24H2628.3L2628.12 14.2175L2627.94 12.3706L2620.7 12.2115L2613.45 12.0524V10.4436V8.83543L2610.47 8.47686C2608.83 8.27967 2605.38 8.11601 2602.8 8.11374L2598.11 8.10862V6.40382V4.69903H2583.05H2567.99V3.07492V1.45139L2564.5 1.08599C2561.09 0.730257 2557.19 0.744462 2548.81 1.14338ZM0 216.662V425.216H88.9336H177.867V423.227V421.238H185.539H193.21V419.533V417.828H196.256C197.932 417.828 200.489 417.666 201.939 417.467L204.576 417.105V415.478V413.85H208.269H211.963V411.861V409.872H215.941H219.919V408.213V406.553L223.613 406.158L227.306 405.762V404.124V402.485H229.295H231.284V400.496V398.507H234.978H238.672V396.518V394.529H240.376H242.081V392.824V391.12H244.07H246.059V389.131V387.142H248.048H250.037V385.153V383.164H251.686H253.335L253.731 379.754L254.126 376.345H255.775H257.424V374.072V371.799H259.413H261.402V368.105V364.411H263.391H265.38V360.717V357.024H267.085H268.79V353.046V349.068H270.779H272.768V343.385V337.703H274.387H276.007L276.376 332.501C276.579 329.64 276.745 323.759 276.745 319.431V311.563H278.45H280.155V303.891V296.219H278.45H276.745L276.74 287.837C276.738 283.228 276.574 278.113 276.377 276.472L276.019 273.489H274.393H272.768V270.443C272.768 268.767 272.605 266.21 272.406 264.76L272.045 262.123H270.417H268.79V258.43V254.736H267.151H265.512L265.117 251.042L264.721 247.348H263.062H261.402V245.36V243.371H259.413H257.424V241.382V239.393H255.72H254.015V237.404V235.415H252.062H250.109L249.931 233.568L249.753 231.721L247.906 231.543L246.059 231.365V229.696V228.027H244.39H242.722L242.543 226.181L242.365 224.334L240.518 224.156L238.672 223.977V222.309V220.64H236.683H234.694V218.981V217.321L231 216.925L227.306 216.53V214.949V213.368L223.328 212.968L219.351 212.569V210.922V209.275H215.657H211.963V207.647V206.02L209.326 205.658C207.877 205.459 205.319 205.297 203.644 205.297H200.598V203.671V202.046L197.614 201.687C195.974 201.49 192.649 201.326 190.227 201.324L185.823 201.319V199.614V197.909H189.517H193.21V195.92V193.931H195.199H197.188V192.282V190.633L200.598 190.238L204.007 189.842V188.193V186.544H205.961H207.913L208.092 184.697L208.269 182.85L210.116 182.672L211.963 182.494V180.541V178.588H213.612H215.261L215.653 175.211L216.045 171.833L217.84 171.659L219.635 171.485L219.811 169.354L219.988 167.223H221.658H223.328V163.529V159.836H225.317H227.306V156.142V152.448H228.934H230.561L230.923 149.811C231.122 148.362 231.284 145.804 231.284 144.129V141.083H232.989H234.694V133.411V125.74H236.32H237.945L238.303 122.756C238.766 118.906 238.769 112.97 238.31 109.624L237.949 106.987H236.321H234.694V95.6215V84.2562H232.989H231.284L231.279 81.557C231.277 80.0721 231.113 77.5149 230.916 75.8743L230.557 72.8909H228.932H227.306V69.1972V65.5035H225.317H223.328V63.2304V60.9573H221.624H219.919V57.5477V54.1381H217.93H215.941V52.1492V50.1603H213.952H211.963V48.1714V46.1824H210.258H208.554V44.1935V42.2046H206.565H204.576V40.4998V38.795H202.871H201.166V36.806V34.8171H199.213H197.26L197.082 32.9702L196.904 31.1234L195.057 30.9455L193.21 30.7671V29.0986V27.4297H189.517H185.823V25.4407V23.4518H183.55H181.277V21.8243V20.1968L178.64 19.8354C177.19 19.6365 174.761 19.4739 173.241 19.4739H170.48V17.7691V16.0643H166.502H162.524V14.4368V12.8093L159.887 12.4479C158.438 12.249 154.985 12.0865 152.216 12.0865H147.181V10.4675V8.8485L141.64 8.4814C138.593 8.27967 105.477 8.11316 68.0498 8.11146L0 8.10862V216.662ZM338.828 8.51948L336.982 8.74905V216.621V424.493L339.618 424.854C341.068 425.053 395.667 425.216 460.95 425.216H579.646L579.496 406.321L579.347 387.426L480.895 387.282L382.443 387.138V197.987V8.83543L379.459 8.47686C376.29 8.09612 341.95 8.13249 338.828 8.51948ZM615.574 8.51948L613.727 8.74905V144.812V280.876H615.432H617.137V292.526V304.175H618.778H620.419L620.83 311.563L621.241 318.95H622.883H624.524L624.529 321.649C624.531 323.134 624.695 325.691 624.892 327.332L625.251 330.315H626.876H628.502V334.009V337.703H630.149H631.796L632.196 341.681L632.595 345.658H634.176H635.757L636.152 349.352L636.548 353.046H638.208H639.867V355.035V357.024H641.527H643.186L643.582 360.717L643.977 364.411H645.58H647.182L647.361 366.258L647.539 368.105L649.386 368.283L651.232 368.461V370.414V372.367H652.937H654.642V374.072V375.777H656.631H658.62V377.765V379.754H660.609H662.598V381.743V383.732H664.303H666.007V385.437V387.142H667.996H669.985V389.131V391.12H671.938H673.891L674.069 392.967L674.247 394.813L676.094 394.991L677.941 395.17V396.838V398.507H681.635H685.328V400.496V402.485H687.317H689.306V404.144V405.804L693 406.2L696.694 406.595V408.234V409.872H700.387H704.081V411.861V413.85H707.739H711.396L711.575 415.697L711.753 417.544L715.589 417.712L719.424 417.88V419.559V421.238H725.107H730.79V423.227V425.216H736.472H742.155V426.841V428.467L745.138 428.825C746.78 429.022 750.999 429.186 754.515 429.188L760.908 429.193V430.898V432.603H791.31H821.712V430.898V429.193L828.105 429.188C831.622 429.186 835.84 429.022 837.482 428.825L840.465 428.467V426.861V425.255L846.29 425.093L852.114 424.932L852.292 423.085L852.471 421.238H857.833H863.196V419.559V417.88L867.031 417.712L870.867 417.544L871.045 415.697L871.223 413.85H874.881H878.539V411.861V409.872H882.232H885.926V408.225V406.578L889.904 406.179L893.882 405.779V404.168V402.557L895.729 402.379L897.576 402.201L897.753 400.354L897.932 398.507H901.269H904.607L904.785 396.66L904.963 394.813L906.81 394.636L908.657 394.457V392.789V391.12H910.646H912.635V389.131V387.142H914.624H916.613V385.473V383.804L918.459 383.626L920.306 383.448L920.484 381.601L920.663 379.754H922.331H924V377.765V375.777H925.989H927.978V374.072V372.367H929.683H931.387V370.378V368.389H933.376H935.365V364.695V361.002H937.354H939.343V359.013V357.024H940.982H942.62L943.016 353.33L943.411 349.636H945.071H946.731V347.363V345.09H948.39H950.05L950.445 341.396L950.841 337.703H952.479H954.118L954.123 335.288C954.125 333.96 954.289 331.53 954.486 329.889L954.845 326.906H956.47H958.096V322.928V318.95H959.723H961.351L961.712 316.313C961.911 314.864 962.074 311.411 962.074 308.642V303.607H963.69H965.307L965.677 295.509C965.881 291.055 966.048 285.046 966.049 282.155L966.052 276.898H967.427H968.803L969.161 273.347C969.698 268.02 969.252 9.41449 968.704 8.86612C968.122 8.28308 932.46 7.87109 927.552 8.39105L924 8.76724V152.494V296.219H922.011H920.022V301.902V307.585H918.396H916.771L916.412 310.568C916.215 312.209 916.052 314.766 916.049 316.251L916.044 318.95H914.339H912.635V322.644V326.337H910.646H908.657V328.326V330.315H907.018H905.38L904.984 334.009L904.589 337.703H902.929H901.269V339.692V341.681H899.28H897.292V343.67V345.658H895.632H893.972L893.577 349.352L893.181 353.046H891.543H889.904V354.751V356.455H887.915H885.926V358.378V360.301L882.232 360.696L878.539 361.092V362.752V364.411H876.55H874.561V366.08V367.749L872.714 367.927L870.867 368.105L870.689 369.952L870.511 371.799H866.853H863.196V373.788V375.777H859.502H855.808V377.436V379.096L852.114 379.491L848.421 379.887V381.525V383.164H844.443H840.465V385.153V387.142H833.077H825.69V388.76V390.379L819.635 390.749C816.305 390.953 811.19 391.12 808.269 391.12H802.959V392.824V394.529H791.594H780.229V392.824V391.12L774.404 391.117C771.2 391.115 766.099 390.95 763.068 390.749L757.557 390.384L757.386 388.905L757.214 387.426L750.003 387.267L742.793 387.108L742.616 385.278L742.439 383.448L738.603 383.28L734.768 383.112V381.491V379.87L730.79 379.47L726.812 379.071V377.424V375.777H723.118H719.424V373.788V371.799H715.766H712.109L711.931 369.952L711.753 368.105L709.906 367.927L708.059 367.749V366.08V364.411H706.07H704.081V362.762V361.113L700.704 360.721L697.326 360.329L697.152 358.534L696.978 356.74L695.131 356.562L693.284 356.383V354.715V353.046H691.295H689.306V351.057V349.068H687.647H685.987L685.592 345.374L685.196 341.681H683.274H681.351V339.692V337.703H679.646H677.941V335.714V333.725H676.282H674.622L674.226 330.031L673.831 326.337H672.192H670.553V322.644V318.95H668.565H666.576V314.972V310.994H664.948H663.321L662.959 308.357C662.76 306.908 662.598 303.583 662.598 300.97V296.219H660.984H659.37L658.996 282.155C658.79 274.42 658.622 209.757 658.621 138.461L658.62 8.83145L655.983 8.47004C653.192 8.08759 618.716 8.12964 615.574 8.51948ZM1028.13 8.51607L1026.29 8.74905V146.801V284.854H1027.99H1029.7L1029.7 293.236C1029.7 297.846 1029.87 302.961 1030.07 304.601L1030.42 307.585H1032.05H1033.68V313.267V318.95H1035.3H1036.93L1037.28 321.933C1037.48 323.575 1037.65 326.132 1037.65 327.616L1037.65 330.315H1039.36H1041.06V334.009V337.703H1043.05H1045.04V341.681V345.658H1047.03H1049.02V349.352V353.046H1050.72H1052.43V355.035V357.024H1054.42H1056.41V360.717V364.411H1058.39H1060.38V366.4V368.389H1062.05H1063.72L1063.9 370.236L1064.08 372.083L1065.92 372.261L1067.77 372.439V374.072V375.704L1069.62 375.883L1071.46 376.061L1071.64 377.908L1071.82 379.754H1073.49H1075.16V381.743V383.732H1077.15H1079.14V385.401V387.07L1080.98 387.248L1082.83 387.426L1083.01 389.273L1083.19 391.12H1084.82H1086.45L1086.63 392.967L1086.81 394.813L1088.65 394.991L1090.5 395.17V396.838V398.507H1094.2H1097.89V400.496V402.485H1099.88H1101.87V404.144V405.804L1105.56 406.2L1109.25 406.595V408.234V409.872H1111.53H1113.8V411.503V413.133L1115.93 413.485C1117.1 413.679 1119.53 413.841 1121.33 413.844L1124.6 413.85V415.839V417.828H1128.29H1131.99V419.533V421.238H1137.67H1143.35V423.227V425.216H1149.03H1154.72V426.841V428.467L1157.7 428.825C1159.34 429.022 1163.69 429.186 1167.36 429.188L1174.04 429.193V430.898V432.603H1204.15H1234.27V430.898V429.193L1240.95 429.188C1244.62 429.186 1248.97 429.022 1250.61 428.825L1253.59 428.467V426.841V425.216H1259.28H1264.96V423.227V421.238H1270.64H1276.32V419.533V417.828H1280.02H1283.71V415.839V413.85H1287.69H1291.67V411.861V409.872H1295.36H1299.06V408.234V406.595L1302.75 406.2L1306.44 405.804V404.144V402.485H1308.43H1310.42V400.496V398.507H1314.11H1317.81V396.518V394.529H1319.8H1321.79V392.86V391.192L1323.63 391.013L1325.48 390.836L1325.66 388.989L1325.84 387.142H1327.5H1329.17V385.437V383.732H1331.16H1333.15V381.779V379.827L1335 379.648L1336.85 379.47L1337.02 377.623L1337.2 375.777H1338.87H1340.54V373.788V371.799H1342.53H1344.52V370.094V368.389H1346.16H1347.79L1348.19 364.695L1348.58 361.002H1350.24H1351.9V359.048V357.096L1353.75 356.917L1355.6 356.74L1355.77 353.222L1355.93 349.704L1357.75 349.528L1359.58 349.352L1359.75 345.801L1359.91 342.249H1361.59H1363.27V338.271V334.293H1365.26H1367.25V330.599V326.906H1368.87H1370.5L1370.86 323.922C1371.05 322.281 1371.22 319.724 1371.22 318.24L1371.23 315.54H1372.93H1374.63V309.574V303.607H1376.26H1377.89L1378.25 300.97C1378.45 299.52 1378.61 234.823 1378.61 157.199V16.0643H1380.32H1382.02V14.3595V12.6547H1380.32H1378.61V10.3817V8.10862L1360.57 8.11374C1350.65 8.11601 1341.18 8.27967 1339.54 8.47686L1336.56 8.83543V150.822V292.81H1334.86H1333.15L1333.15 297.214C1333.14 299.636 1332.98 302.96 1332.78 304.601L1332.42 307.585H1330.8H1329.17V313.267V318.95H1327.18H1325.2V322.644V326.337H1323.49H1321.79V328.326V330.315H1319.8H1317.81V334.009V337.703H1315.82H1313.83V339.692V341.681H1312.16H1310.49L1310.31 343.527L1310.14 345.374L1308.29 345.552L1306.44 345.731V347.683V349.636H1304.79H1303.14L1302.75 353.006L1302.36 356.376L1298.72 356.766L1295.08 357.156V358.759V360.361L1293.23 360.54L1291.38 360.717L1291.21 362.564L1291.03 364.411H1289.36H1287.69V366.116V367.821H1285.7H1283.71V369.81V371.799H1280.02H1276.32V373.788V375.777H1272.35H1268.37V377.436V379.096L1264.68 379.491L1260.98 379.887V381.525V383.164L1257.71 383.17C1255.92 383.174 1253.49 383.335 1252.32 383.529L1250.18 383.881V385.511V387.142H1244.22H1238.25V388.761V390.38L1232.71 390.747C1229.66 390.949 1224.55 391.115 1221.35 391.117L1215.52 391.12V392.824V394.529H1204.15H1192.79V392.824V391.12L1186.96 391.117C1183.76 391.115 1178.65 390.949 1175.6 390.747L1170.06 390.38V388.761V387.142H1162.71H1155.36L1155.18 385.295L1155 383.448L1151.16 383.28L1147.33 383.112V381.5V379.887L1143.67 379.495L1140.01 379.103L1139.83 377.582L1139.66 376.061L1135.82 375.892L1131.99 375.725V373.761V371.799H1128.29H1124.6V370.13V368.461L1122.75 368.283L1120.9 368.105L1120.73 366.258L1120.55 364.411H1117.21H1113.87L1113.69 362.564L1113.52 360.717L1111.7 360.542L1109.89 360.366L1109.71 358.553L1109.54 356.74L1107.69 356.562L1105.85 356.383V354.715V353.046H1103.86H1101.87V351.057V349.068H1100.24H1098.6L1098.22 345.658L1097.83 342.249H1096.16H1094.48V339.976V337.703H1092.49H1090.5V335.714V333.725H1088.82H1087.15L1086.98 330.173L1086.81 326.622L1084.96 326.444L1083.11 326.265V322.608V318.95H1081.47H1079.82L1079.42 314.972L1079.02 310.994H1077.39H1075.77L1075.61 305.454L1075.44 299.913L1073.6 299.735L1071.75 299.557V155.822V12.0865H1070.08H1068.41L1068.23 10.2396L1068.06 8.39275L1049.02 8.3382C1038.55 8.30751 1029.15 8.38764 1028.13 8.51607ZM1440.98 8.52231L1438.85 8.74565V216.98V425.216H1459.87H1480.9V251.042V76.8688H1482.61H1484.31V78.5736V80.2784H1486.3H1488.29V82.2673V84.2562H1489.93H1491.57L1491.96 87.9499L1492.36 91.6437H1494.02H1495.68V93.6326V95.6215H1497.66H1499.65V97.6105V99.5994H1501.32H1502.99L1503.17 101.446L1503.35 103.293L1505.14 103.468L1506.94 103.641L1507.32 106.986L1507.71 110.331L1509.22 110.506L1510.73 110.681L1510.91 112.527L1511.09 114.374H1512.76H1514.43V116.363V118.352H1516.42H1518.41V120.341V122.33H1520.06H1521.7L1522.1 125.707L1522.49 129.085L1524.28 129.259L1526.08 129.433L1526.26 131.28L1526.43 133.127H1528.1H1529.77V135.08V137.033L1531.62 137.211L1533.46 137.389L1533.64 139.236L1533.82 141.083H1535.49H1537.16V143.072V145.061H1539.12H1541.08L1541.25 148.612L1541.42 152.164L1543.27 152.342L1545.11 152.52V154.473V156.426H1546.78H1548.45L1548.63 158.273L1548.81 160.12L1550.65 160.298L1552.5 160.476V162.144V163.813H1554.16H1555.82L1556.22 167.507L1556.61 171.201H1558.25H1559.89V173.19V175.179H1561.88H1563.87V177.168V179.157H1565.86H1567.85V181.146V183.134H1569.49H1571.14L1571.54 186.544L1571.93 189.954H1573.58H1575.23V191.943V193.931H1577.22H1579.21V195.92V197.909H1580.92H1582.62V199.898V201.887H1584.57H1586.53L1586.7 203.734L1586.88 205.581L1588.39 205.756L1589.9 205.93L1590.3 209.308L1590.69 212.684H1592.34H1593.99V214.673V216.662H1595.97H1597.96V218.651V220.64H1599.95H1601.94V222.629V224.618H1603.58H1605.22L1605.61 228.312L1606.01 232.005H1607.63H1609.26L1609.43 233.852L1609.61 235.699L1611.46 235.877L1613.31 236.055V237.724V239.393H1615.01H1616.72V241.382V243.371H1618.64H1620.56L1620.96 247.064L1621.35 250.758H1623.01H1624.67V252.747V254.736H1626.34H1628.01L1628.19 256.583L1628.37 258.43L1630.21 258.608L1632.06 258.786V260.419V262.051L1633.91 262.23L1635.75 262.408L1635.93 264.254L1636.11 266.101H1637.71H1639.31L1639.71 269.795L1640.11 273.489H1641.77H1643.42V271.784V270.079H1645.41H1647.4V268.09V266.101H1649.39H1651.38V264.112V262.123H1653.05H1654.72L1654.9 260.277L1655.07 258.43L1656.92 258.252L1658.77 258.073V254.736V251.398L1660.61 251.22L1662.46 251.042L1662.64 249.195L1662.82 247.348H1664.49H1666.15V245.36V243.371H1668.14H1670.13V241.382V239.393H1671.79H1673.45L1673.85 235.699L1674.24 232.005H1675.85H1677.45L1677.63 230.158L1677.8 228.312L1679.65 228.134L1681.5 227.955V226.323V224.69L1683.35 224.512L1685.19 224.334L1685.37 222.487L1685.55 220.64H1687.15H1688.75L1689.15 216.946L1689.54 213.253H1691.2H1692.86V211.264V209.275H1694.85H1696.84V207.286V205.297H1698.51H1700.18L1700.36 203.45L1700.54 201.603L1702.38 201.425L1704.23 201.247V199.294V197.341H1705.88H1707.53L1707.92 193.931L1708.32 190.522H1709.97H1711.62V188.533V186.544H1713.61H1715.59V184.555V182.566H1717.58H1719.57V180.577V178.588H1721.22H1722.87L1723.27 175.179L1723.66 171.769H1725.31H1726.96V169.816V167.863L1728.81 167.685L1730.65 167.507L1730.83 165.66L1731.01 163.813H1732.68H1734.35V161.824V159.836H1736.34H1738.32V156.142V152.448H1740.31H1742.3V150.743V149.038H1744.01H1745.71V147.05V145.061H1747.7H1749.69V143.072V141.083H1751.35H1753.01L1753.4 137.389L1753.8 133.695H1755.44H1757.08V131.706V129.717H1759.07H1761.06V127.729V125.74H1763.04H1765.03V124.035V122.33H1766.74H1768.44V120.341V118.352H1770.1H1771.76L1772.16 114.658L1772.55 110.965H1774.48H1776.4V108.976V106.987H1778.07H1779.74L1779.91 105.14L1780.09 103.293L1781.94 103.115L1783.79 102.937V100.984V99.0311H1785.44H1787.08L1787.48 95.6215L1787.88 92.2119H1789.52H1791.17V90.223V88.2341H1793.16H1795.15V86.281V84.3284L1797 84.15L1798.84 83.9721L1799.02 82.1252L1799.2 80.2784H1800.87H1802.54V252.747V425.216H1823.57H1844.59L1844.45 216.804L1844.31 8.39275L1823.42 8.24387L1802.54 8.09441V10.0907V12.0865H1800.55H1798.56V14.0754V16.0643H1796.89H1795.22L1795.04 17.9112L1794.87 19.7581L1793.02 19.9359L1791.17 20.1144V23.7717V27.4297H1789.18H1787.2V29.1345V30.8392H1785.49H1783.79V32.8282V34.8171H1781.8H1779.81V36.806V38.795H1778.15H1776.49L1776.09 42.4887L1775.7 46.1824H1773.78H1771.85V48.1714V50.1603H1770.15H1768.44V51.8293V53.4977L1766.6 53.6761L1764.75 53.854L1764.57 55.7009L1764.39 57.5477H1762.79H1761.19L1760.79 61.2415L1760.4 64.9352H1758.74H1757.08V66.9241V68.913H1755.09H1753.1V70.902V72.8909H1751.43H1749.76L1749.58 74.7378L1749.41 76.5846L1747.56 76.7625L1745.71 76.9409V78.8935V80.8466H1744.06H1742.41L1742.02 84.2238L1741.63 87.6016L1739.84 87.7755L1738.04 87.9499L1737.86 89.7968L1737.68 91.6437H1736.02H1734.35V93.6326V95.6215H1732.36H1730.37V97.6105V99.5994H1728.72H1727.07L1726.68 102.976L1726.29 106.353L1724.78 106.528L1723.27 106.703L1723.09 108.516L1722.91 110.329L1721.1 110.505L1719.29 110.681L1719.11 112.527L1718.93 114.374H1717.26H1715.59V116.363V118.352H1713.61H1711.62V122.046V125.74H1709.63H1707.64V127.729V129.717H1705.93H1704.23V131.422V133.127H1702.24H1700.25V135.116V137.105H1698.59H1696.93L1696.54 140.767L1696.15 144.43L1694.36 144.603L1692.58 144.777L1692.4 146.623L1692.22 148.47H1690.55H1688.89V150.459V152.448H1686.9H1684.91V154.437V156.426H1683.26H1681.61L1681.21 159.836L1680.82 163.245H1679.17H1677.52V165.234V167.223H1675.53H1673.54V169.212V171.201H1671.84H1670.13V173.19V175.179H1668.14H1666.15V177.168V179.157H1664.5H1662.84L1662.44 182.85L1662.04 186.544H1660.41H1658.77V188.249V189.954H1656.78H1654.79V191.943V193.931H1652.8H1650.81V195.92V197.909H1649.17H1647.53L1647.14 201.603L1646.74 205.297H1643.42H1640.09L1639.91 203.45L1639.73 201.603L1637.88 201.425L1636.04 201.247V199.294V197.341H1634.39H1632.74L1632.34 193.931L1631.95 190.522H1630.3H1628.65V188.533V186.544H1626.66H1624.67V184.555V182.566H1623H1621.33L1621.16 180.719L1620.98 178.872L1619.18 178.698L1617.39 178.524L1617 175.146L1616.6 171.769H1614.99H1613.38L1613.2 169.638L1613.02 167.507L1611.18 167.329L1609.33 167.151V165.482V163.813H1607.62H1605.92V161.824V159.836H1603.93H1601.94V157.847V155.858H1600.28H1598.62L1598.23 152.164L1597.83 148.47H1596.23H1594.63L1594.45 146.623L1594.27 144.777L1592.42 144.599L1590.58 144.42V142.752V141.083H1588.87H1587.17V139.094V137.105H1585.24H1583.32L1582.93 133.411L1582.53 129.717H1580.87H1579.21V127.729V125.74H1577.22H1575.23V123.751V121.762H1573.56H1571.9L1571.72 119.915L1571.54 118.068L1569.69 117.89L1567.85 117.712V114.374V111.037L1566 110.858L1564.15 110.681L1563.97 108.834L1563.79 106.987H1562.13H1560.46V104.998V103.009H1558.47H1556.48V101.02V99.0311H1554.83H1553.18L1552.79 95.6215L1552.39 92.2119H1550.74H1549.09V90.223V88.2341H1547.1H1545.11V86.2452V84.2562H1543.45H1541.78L1541.6 82.4094L1541.42 80.5625L1539.64 80.3892L1537.85 80.2159L1537.46 76.5534L1537.07 72.8909H1535.41H1533.75V70.902V68.913H1531.76H1529.77V66.9241V64.9352H1528.07H1526.36V63.2304V61.5256H1524.37H1522.38V59.5367V57.5477H1520.72H1519.06L1518.67 53.854L1518.27 50.1603H1516.64H1515V48.1714V46.1824H1513.01H1511.02V44.1935V42.2046H1509.31H1507.61V40.4998V38.795H1505.69H1503.76L1503.37 35.1012L1502.97 31.4075H1501.31H1499.65V29.4186V27.4297H1497.66H1495.68V25.4407V23.4518H1493.97H1492.27V21.4629V19.4739H1490.28H1488.29V16.1001V12.7269L1486.44 12.5485L1484.59 12.3706L1484.42 10.5971L1484.25 8.82293L1481.64 8.46606C1478.91 8.09043 1444.65 8.13817 1440.98 8.52231ZM1906.67 8.51948L1904.83 8.74905V216.982V425.216H1993.11C2041.67 425.216 2082.59 425.053 2084.03 424.854L2086.67 424.493V422.865V421.238H2094.06H2101.45V419.533V417.828H2104.49C2106.17 417.828 2108.73 417.666 2110.18 417.467L2112.81 417.105V415.478V413.85H2116.79H2120.77V411.861V409.872H2124.46H2128.15V408.168V406.463H2130.14H2132.13V404.474V402.485H2135.83H2139.52V400.496V398.507H2141.51H2143.5V396.838V395.17L2145.34 394.991L2147.19 394.813L2147.37 393L2147.54 391.187L2149.36 391.011L2151.17 390.836L2151.35 388.989L2151.53 387.142H2153.19H2154.86V385.473V383.804L2156.71 383.626L2158.56 383.448L2158.74 381.601L2158.91 379.754H2160.52H2162.12L2162.51 376.061L2162.91 372.367H2164.57H2166.23V370.378V368.389H2167.9H2169.57L2169.96 364.411L2170.35 360.433H2171.98H2173.62V356.74V353.046H2175.61H2177.59V347.363V341.681H2179.22H2180.85L2181.21 339.044C2181.41 337.594 2181.57 334.142 2181.57 331.372V326.337H2183.28H2184.98V305.596V284.854H2183.28H2181.57L2181.57 280.166C2181.56 277.587 2181.4 274.135 2181.2 272.494L2180.85 269.511H2179.22H2177.59V264.148V258.786L2175.75 258.608L2173.9 258.43L2173.73 254.594L2173.56 250.758H2171.92H2170.28L2170.1 248.911L2169.92 247.064L2168.15 246.892L2166.37 246.719L2165.99 243.375L2165.61 240.032L2164.07 239.854L2162.54 239.677L2162.36 237.83L2162.18 235.983H2160.51H2158.84V233.994V232.005H2156.85H2154.86V230.016V228.027H2152.87H2150.89V226.368V224.708L2147.19 224.313L2143.5 223.917V222.315V220.712L2141.65 220.534L2139.8 220.356L2139.63 218.509L2139.45 216.662H2135.79H2132.13V214.673V212.684H2128.44H2124.75V211.006V209.326L2120.91 209.159L2117.07 208.991L2116.9 207.144L2116.72 205.297H2111.07H2105.42V203.669V202.042L2102.79 201.68C2101.34 201.481 2098.78 201.319 2097.1 201.319H2094.06V199.614V197.909H2096.05H2098.04V196.25V194.59L2101.73 194.195L2105.42 193.799V192.161V190.522H2107.41H2109.4V188.533V186.544H2111.39H2113.38V184.555V182.566H2115.08H2116.79V180.861V179.157H2118.78H2120.77V177.168V175.179H2122.43H2124.09L2124.48 171.516L2124.87 167.854L2126.66 167.68L2128.44 167.507L2128.62 165.66L2128.8 163.813H2130.46H2132.13V159.836V155.858H2133.79H2135.45L2135.85 152.164L2136.24 148.47H2137.82H2139.4L2139.81 140.799L2140.23 133.127H2141.86H2143.5V114.374V95.6215H2141.85H2140.21L2139.79 87.9499L2139.38 80.2784H2137.77H2136.16L2135.99 76.4426L2135.83 72.6068L2133.98 72.4289L2132.13 72.2505V68.5931V64.9352H2130.47H2128.81L2128.42 61.2415L2128.02 57.5477H2126.38H2124.75V55.5588V53.5699H2122.76H2120.77V49.8761V46.1824H2118.78H2116.79V44.4776V42.7728H2115.08H2113.38V40.7839V38.795H2111.39H2109.4V36.806V34.8171H2107.41H2105.42V33.1578V31.4979L2101.73 31.1024L2098.04 30.7068V29.0685V27.4297H2096.05H2094.06V25.4407V23.4518H2090.37H2086.67V21.7817V20.111L2082.69 19.7189L2078.72 19.3273V17.6958V16.0643H2073.35H2067.99L2067.81 14.2175L2067.63 12.3706L2060.11 12.2121L2052.58 12.0535V10.451V8.8485L2047.04 8.4814C2041.17 8.09271 1909.82 8.12851 1906.67 8.51948ZM2244.3 8.51436L2242.52 8.73826L2242.17 11.3438C2241.97 12.7775 2241.81 106.484 2241.81 219.583V425.216H2243.51H2245.22V426.92V428.625H2264.54H2283.86V218.73V8.83543L2280.88 8.47686C2277.73 8.09953 2247.34 8.13078 2244.3 8.51436ZM2571.4 44.4776V46.1824H2576.71C2579.63 46.1824 2584.75 46.3489 2588.08 46.5529L2594.13 46.9234V48.1804V49.4374L2596.77 49.7989C2598.22 49.9978 2601.67 50.1603 2604.44 50.1603H2609.48V52.1492V54.1381H2614.87H2620.27V55.7855V57.4324L2624.25 57.8319L2628.23 58.2314V59.8782V61.5256H2631.89H2635.54L2635.72 63.3725L2635.9 65.2193L2639.45 65.3887L2643 65.5574V67.1776V68.7977L2646.98 69.1972L2650.96 69.5967V71.2435V72.8909H2652.63H2654.3L2654.48 74.7378L2654.65 76.5846L2658.17 76.7528L2661.69 76.921L2661.86 78.7418L2662.04 80.5625L2663.89 80.7404L2665.73 80.9188V82.5872V84.2562H2667.72H2669.71V86.2452V88.2341H2671.7H2673.69V89.9389V91.6437H2675.39H2677.1V93.6326V95.6215H2679.09H2681.08V97.6105V99.5994H2683.07H2685.06V101.304V103.009H2686.76H2688.46V104.998V106.987H2690.45H2692.44V108.976V110.965H2694.1H2695.76L2696.16 114.658L2696.55 118.352H2698.19H2699.83V120.341V122.33H2701.82H2703.81V126.024V129.717H2705.8H2707.79V133.411V137.105H2709.42H2711.06L2711.46 140.799L2711.85 144.492H2713.51H2715.17V148.47V152.448H2717.16H2719.15V157.847V163.245H2720.86H2722.56L2722.57 166.229C2722.57 167.869 2722.73 170.555 2722.93 172.195L2723.29 175.179H2724.91H2726.54V184.555V193.931H2728.16H2729.79L2730.15 196.915C2730.61 200.795 2730.61 236.507 2730.15 240.387L2729.79 243.371H2728.16H2726.54V252.747V262.123H2724.91H2723.29L2722.93 265.107C2722.73 266.748 2722.57 269.305 2722.57 270.789L2722.56 273.489H2720.86H2719.15V279.171V284.854H2717.16H2715.17V288.832V292.81H2713.51H2711.85L2711.46 296.503L2711.06 300.197H2709.42H2707.79V303.891V307.585H2705.8H2703.81V311.278V314.972H2701.82H2699.83V316.961V318.95H2698.19H2696.55L2696.16 322.644L2695.76 326.337H2694.1H2692.44V328.326V330.315H2690.45H2688.46V332.304V334.293H2686.76H2685.06V335.998V337.703H2683.07H2681.08V339.692V341.681H2679.09H2677.1V343.67V345.658H2675.39H2673.69V347.363V349.068H2671.7H2669.71V351.057V353.046H2667.72H2665.73V354.695V356.344L2662.32 356.74L2658.92 357.135V358.75V360.365L2656.78 360.541L2654.65 360.717L2654.48 362.564L2654.3 364.411H2652.34H2650.39V366.071V367.73L2646.7 368.126L2643 368.521V370.16V371.799H2639.31H2635.62V373.788V375.777H2631.92H2628.23V377.424V379.071L2624.25 379.47L2620.27 379.87V381.496V383.123L2614.73 383.286L2609.19 383.448L2609.01 385.295L2608.84 387.142H2601.48H2594.13V388.76V390.379L2588.08 390.749C2584.75 390.953 2578.74 391.12 2574.72 391.12H2567.42V392.824V394.529H2556.06H2544.69V392.824V391.12L2539.72 391.117C2536.99 391.116 2531.1 390.949 2526.65 390.745L2518.55 390.375V388.758V387.142H2512.59H2506.62V385.514V383.887L2503.98 383.525C2502.53 383.326 2499.98 383.164 2498.3 383.164H2495.25V381.459V379.754L2492.84 379.749C2491.51 379.747 2489.08 379.583 2487.44 379.386L2484.46 379.028V377.402V375.777H2480.76H2477.07V373.788V371.799H2473.09H2469.11V369.81V367.821H2467.13H2465.14V366.116V364.411H2461.44H2457.75V362.422V360.433H2455.76H2453.77V358.764V357.096L2451.92 356.917L2450.08 356.74L2449.9 354.893L2449.72 353.046H2446.35H2442.97V351.057V349.068H2440.99H2439V347.079V345.09H2437.01H2435.02V343.385V341.681H2433.31H2431.61V339.692V337.703H2429.62H2427.63V335.714V333.725H2425.64H2423.65V330.351V326.978L2421.81 326.799L2419.96 326.622L2419.78 324.775L2419.6 322.928H2417.93H2416.27V320.939V318.95H2414.28H2412.29V315.256V311.563H2410.65H2409.01L2408.62 307.869L2408.22 304.175H2406.56H2404.9V301.902V299.629H2402.91H2400.92V295.935V292.241H2399.22H2397.51V289.48C2397.51 287.96 2397.35 285.531 2397.15 284.081L2396.79 281.444H2395.16H2393.54V278.399C2393.54 276.723 2393.37 274.165 2393.17 272.716L2392.81 270.079H2391.18H2389.56V264.112V258.146H2387.85H2386.15V253.69C2386.15 251.239 2385.98 245.357 2385.77 240.62L2385.4 232.005H2383.79H2382.17V218.651V205.297H2383.79H2385.4L2385.77 196.682C2385.98 191.945 2386.15 186.063 2386.15 183.612V179.157H2387.85H2389.56V173.19V167.223H2391.18H2392.81L2393.17 164.586C2393.37 163.137 2393.54 160.579 2393.54 158.904V155.858H2395.16H2396.79L2397.15 153.221C2397.35 151.771 2397.51 149.342 2397.51 147.822V145.061H2399.22H2400.92V141.403V137.745L2402.77 137.567L2404.62 137.389L2404.78 133.553L2404.95 129.717H2406.92H2408.88V127.729V125.74H2410.58H2412.29V122.046V118.352H2414.28H2416.27V116.363V114.374H2417.93H2419.6L2419.78 112.527L2419.96 110.681L2421.81 110.503L2423.65 110.324V106.951V103.577H2425.64H2427.63V101.588V99.5994H2429.62H2431.61V97.6105V95.6215H2433.31H2435.02V93.9525V92.2841L2436.87 92.1057L2438.71 91.9278L2438.89 90.0809L2439.07 88.2341H2441.02H2442.97V86.3008V84.3676L2446.35 83.9761L2449.73 83.584L2449.9 82.0729L2450.08 80.5625L2451.92 80.3846L2453.77 80.2062V78.5378V76.8688H2455.76H2457.75V74.8798V72.8909H2461.41H2465.06L2465.24 71.044L2465.42 69.1972L2467.27 69.0193L2469.11 68.8409V67.198V65.5552L2472.95 65.3875L2476.79 65.2193L2476.96 63.3725L2477.14 61.5256H2480.8H2484.46V59.8867V58.2484L2488.15 57.8529L2491.84 57.4574V55.7975V54.1381H2497.53H2503.21V52.1492V50.1603H2510.88H2518.55V48.5413V46.9223L2524.09 46.5552C2527.14 46.3535 2532.26 46.187 2535.46 46.1853L2541.28 46.1824V44.4776V42.7728H2556.34H2571.4V44.4776ZM121.801 46.5575L136.384 46.9331V48.5464V50.1603H143.771H151.159V52.1492V54.1381H155.137H159.114V55.7975V57.4574L162.808 57.8529L166.502 58.2484V59.8867V61.5256H168.491H170.48V63.5145V65.5035H172.184H173.889V67.2083V68.913H175.878H177.867V70.902V72.8909H179.536H181.205L181.383 74.7378L181.561 76.5846L183.408 76.7625L185.255 76.9409V80.5983V84.2562H187.244H189.232V89.9389V95.6215H190.851H192.47L192.838 101.162C193.307 108.247 193.306 118.726 192.836 129.007L192.465 137.105H190.849H189.232V142.752V148.398L187.386 148.577L185.539 148.754L185.369 152.306L185.201 155.858H183.557H181.914L181.737 157.989L181.561 160.12L179.714 160.298L177.867 160.476V163.849V167.223H175.878H173.889V169.185V171.147L170.338 171.316L166.786 171.485L166.608 173.332L166.43 175.179H164.477H162.524V176.884V178.588H158.83H155.137V180.557V182.525L149.596 182.688L144.055 182.85L143.883 184.34L143.71 185.83L141.104 186.187C139.671 186.383 135.465 186.544 131.758 186.544H125.018V188.249V189.954H64.4982H3.97786V188.249V186.544H5.68266H7.38745V184.839V183.134H9.37638H11.3653V181.146V179.157H13.3542H15.3432V177.168V175.179H17.048H18.7528V173.51V171.841L20.5996 171.663L22.4465 171.485L22.6221 169.672L22.7977 167.858L24.611 167.683L26.4244 167.507L26.6022 165.66L26.7807 163.813H28.4133H30.0459L30.2243 161.967L30.4022 160.12L32.2491 159.942L34.0959 159.763V158.131V156.498L35.9428 156.32L37.7897 156.142L37.9675 154.295L38.146 152.448H39.8144H41.4834V150.459V148.47H43.4723H45.4613V146.481V144.492H47.1661H48.8708V142.788V141.083H50.8598H52.8487V139.094V137.105H54.8376H56.8266V135.116V133.127H58.4757H60.1248L60.5163 129.75L60.9084 126.372L62.7036 126.198L64.4982 126.024L64.676 124.177L64.8545 122.33H66.5229H68.1919V119.284C68.1919 117.608 68.0294 115.051 67.8305 113.601L67.469 110.965H65.8415H64.214V109.012V107.059L62.3672 106.881L60.5203 106.703L60.3424 104.856L60.164 103.009H58.4956H56.8266V101.34V99.6716L54.9797 99.4931L53.1328 99.3153L52.955 97.4684L52.7765 95.6215H51.1439H49.5113L49.3329 93.7747L49.155 91.9278L47.3416 91.7522L45.5283 91.5766L45.3527 89.7633L45.1771 87.9499L43.3303 87.7721L41.4834 87.5936V85.9252V84.2562H39.7786H38.0738V82.2673V80.2784H36.0849H34.0959V78.2894V76.3005H32.107H30.1181V74.5957V72.8909H28.4133H26.7085V70.902V68.913H24.7196H22.7306V66.9241V64.9352H20.7417H18.7528V63.2304V61.5256H17.048H15.3432V59.5367V57.5477H13.3542H11.3653V55.5588V53.5699H9.66052C8.60184 53.5699 7.95572 53.2766 7.95572 52.797C7.95572 52.3714 7.7949 50.849 7.59771 49.4136L7.24027 46.8035L11.4335 46.6058C19.5228 46.2245 107.37 46.1864 121.801 46.5575ZM2028.57 46.5302L2041.21 46.9234V48.1804V49.4374L2043.85 49.7989C2045.3 49.9978 2048.75 50.1603 2051.52 50.1603H2056.55V51.8196V53.4795L2060.25 53.875L2063.94 54.2705V55.8429V57.4153L2067.63 57.8108L2071.33 58.2064V59.8663V61.5256H2075.02H2078.72V63.5145V65.5035H2080.7H2082.69V67.4924V69.4813H2084.35H2086.01L2086.41 73.175L2086.8 76.8688H2088.41H2090.01L2090.19 78.7156L2090.37 80.5625L2092.21 80.7404L2094.06 80.9188V86.2452V91.5715L2095.91 91.7499L2097.75 91.9278L2097.91 99.4573L2098.07 106.987H2099.76H2101.45V114.374V121.762H2099.74H2098.04V131.422V141.083H2096.41H2094.78L2094.42 143.72C2094.22 145.169 2094.06 147.726 2094.06 149.402V152.448H2092.07H2090.08V156.142V159.836H2088.41H2086.74L2086.57 161.682L2086.39 163.529L2084.54 163.707L2082.69 163.886V165.518V167.151L2080.85 167.329L2079 167.507L2078.82 169.354L2078.64 171.201H2076.98H2075.31V172.86V174.52L2071.61 174.916L2067.92 175.311V176.892V178.473L2063.94 178.872L2059.96 179.272V180.893V182.514L2056.13 182.682L2052.29 182.85L2052.12 184.34L2051.95 185.83L2049.34 186.187C2047.91 186.383 2043.7 186.544 2039.99 186.544H2033.25V188.249V189.954H1972.73H1912.21V188.249V186.544H1914.2H1916.19V184.555V182.566H1917.86H1919.53L1919.71 180.719L1919.89 178.872L1921.68 178.698L1923.48 178.524L1923.87 175.146L1924.26 171.769H1925.91H1927.56V169.78V167.791H1929.55H1931.54V165.802V163.813H1933.52H1935.51V162.109V160.404H1937.22H1938.92V158.415V156.426H1940.91H1942.9V154.437V152.448H1944.89H1946.88V150.743V149.038H1948.58H1950.29V147.05V145.061H1952.28H1954.27V143.072V141.083H1956.25H1958.24V139.094V137.105H1959.95H1961.65V135.436V133.768L1963.5 133.589L1965.35 133.411L1965.52 131.564L1965.7 129.717H1967.34H1968.97L1969.15 127.871L1969.32 126.024L1971.17 125.846L1973.02 125.667V124.035V122.402L1974.87 122.224L1976.71 122.046L1976.88 118.21L1977.05 114.374H1975.03H1973.02V112.385V110.396H1971.03H1969.04V108.692V106.987H1967.34H1965.63V104.998V103.009H1963.64H1961.65V101.02V99.0311H1959.95H1958.24V97.3263V95.6215H1956.25H1954.27V93.6326V91.6437H1952.28H1950.29V89.6547V87.6658H1948.62H1946.95L1946.77 85.819L1946.59 83.9721L1944.75 83.7942L1942.9 83.6158V81.9474V80.2784H1940.91H1938.92V78.2894V76.3005H1937.27H1935.62L1935.23 72.9233L1934.84 69.5455L1933.05 69.3716L1931.25 69.1972L1931.07 67.3503L1930.89 65.5035H1929.23H1927.56V63.5503V61.5978L1925.71 61.4193L1923.86 61.2415L1923.69 59.3946L1923.51 57.5477H1921.84H1920.17V55.8429V54.1381H1918.18H1916.19V52.1492V50.1603H1914.49H1912.78V48.2151V46.2705L1964.35 46.2034C1992.72 46.1665 2021.61 46.3137 2028.57 46.5302ZM153.574 228.4L159.114 228.767V230.386V232.005H168.491H177.867V233.633V235.26L180.504 235.622C181.954 235.821 184.511 235.983 186.187 235.983H189.232V237.662V239.341L193.068 239.509L196.904 239.677L197.082 241.524L197.26 243.371H200.918H204.576V245.36V247.348H208.269H211.963V249.337V251.326H213.668H215.373V253.031V254.736H217.296H219.218L219.614 258.43L220.009 262.123H221.669H223.328V264.112V266.101H224.988H226.648L227.043 269.795L227.439 273.489H229.077H230.716V279.171V284.854H232.705H234.694V303.891V322.928H232.705H230.716V328.61V334.293H229.011H227.306V337.055C227.306 338.574 227.144 341.004 226.945 342.453L226.583 345.09H224.956H223.328V349.068V353.046H221.339H219.351V355.035V357.024H217.646H215.941V358.729V360.433H213.952H211.963V362.422V364.411H209.974H207.985V366.4V368.389H206.28H204.576V370.028V371.666L200.882 372.062L197.188 372.457V374.117V375.777H194.915H192.642V377.404V379.032L190.005 379.393C188.556 379.592 186.126 379.754 184.607 379.754H181.845V381.459V383.164L177.157 383.169C174.578 383.171 171.126 383.335 169.485 383.532L166.502 383.891V385.516V387.142H86.9446H7.38745V386.085C7.38745 385.503 7.54998 383.841 7.74887 382.391L8.11029 379.754H9.7378H11.3653V378.085V376.417L13.2122 376.239L15.059 376.061L15.2369 374.214L15.4153 372.367H17.0838H18.7528V370.378V368.389H20.7417H22.7306V366.4V364.411H24.7196H26.7085V362.706V361.002H28.4133H30.1181V359.013V357.024H32.107H34.0959V355.035V353.046H36.0849H38.0738V351.341V349.636H39.7786H41.4834V347.647V345.658H43.4723H45.4613V343.67V341.681H47.4502H49.4391V339.692V337.703H51.1439H52.8487V335.998V334.293H54.8376H56.8266V332.304V330.315H58.4956H60.164L60.3424 328.468L60.5203 326.622L62.3336 326.446L64.147 326.27L64.3226 324.457L64.4982 322.644L66.0364 322.466L67.5753 322.289L67.9572 318.915L68.3385 315.54H70.2541H72.1697V313.551V311.563H73.841C76.0555 311.563 76.2755 311.057 75.8191 307.024L75.4327 303.607H73.837H72.2419L72.0635 301.76L71.8856 299.913L70.0387 299.735L68.1919 299.557V297.888V296.219H66.5229H64.8545L64.676 294.372L64.4982 292.526L62.7212 292.353L60.9442 292.18L60.5618 288.801L60.1799 285.422H58.5029H56.8266V283.469V281.517L54.9797 281.338L53.1328 281.16L52.9572 279.347L52.7817 277.534L50.9683 277.358L49.155 277.182L48.9771 275.336L48.7987 273.489H47.1661H45.5334L45.355 271.642L45.1771 269.795L43.3303 269.617L41.4834 269.439V267.77V266.101H39.7786H38.0738V264.112V262.123H36.0849H34.0959V260.134V258.146H32.107H30.1181V256.441V254.736H28.4133H26.7085V252.747V250.758H24.7196H22.7306V248.769V246.78H20.7417H18.7528V245.075V243.371H17.048H15.3432V241.382V239.393H13.3542H11.3653V237.404V235.415H9.69632H8.02789L7.84946 233.568L7.67159 231.721L5.82472 231.543L3.97786 231.365V230.016V228.668L5.82472 228.438C8.97462 228.048 147.706 228.012 153.574 228.4ZM2060.96 228.396L2063.94 228.754V230.018V231.282L2066.58 231.644C2068.03 231.843 2072.37 232.005 2076.24 232.005H2083.26V233.633V235.26L2085.9 235.622C2087.35 235.821 2089.91 235.983 2091.58 235.983H2094.63V237.688V239.393H2097.39C2098.91 239.393 2101.34 239.555 2102.79 239.754L2105.42 240.116V241.743V243.371H2107.41H2109.4V245.03V246.69L2113.1 247.085L2116.79 247.481V249.119V250.758H2118.78H2120.77V252.747V254.736H2122.44H2124.1L2124.28 256.583L2124.46 258.43L2126.27 258.605L2128.09 258.781L2128.26 260.594L2128.44 262.408L2129.96 262.583L2131.48 262.759L2131.87 266.419L2132.27 270.079H2133.9H2135.54V272.841C2135.54 274.36 2135.7 276.79 2135.9 278.239L2136.27 280.876H2137.89H2139.52V303.891V326.906H2137.89H2136.27L2135.9 329.542C2135.7 330.992 2135.54 333.549 2135.54 335.225V338.271H2133.84H2132.13V341.033C2132.13 342.552 2131.97 344.982 2131.77 346.431L2131.41 349.068H2129.78H2128.15V351.057V353.046H2126.17H2124.18V355.035V357.024H2122.54H2120.9L2120.5 360.717L2120.11 364.411H2118.45H2116.79V366.05V367.688L2113.1 368.084L2109.4 368.479V370.139V371.799H2107.41H2105.42V373.788V375.777H2101.73H2098.04V377.424V379.071L2094.06 379.47L2090.08 379.87V381.5V383.131L2082.55 383.29L2075.02 383.448L2074.84 385.295L2074.67 387.142H1993.72H1912.78V385.153V383.164H1914.49H1916.19V381.495V379.827L1918.04 379.648L1919.89 379.47L1920.06 377.623L1920.24 375.777H1921.87H1923.51L1923.69 373.93L1923.86 372.083L1925.71 371.905L1927.56 371.726V370.058V368.389H1929.23H1930.89L1931.07 366.542L1931.25 364.695L1933.06 364.52L1934.86 364.345L1935.25 360.685L1935.65 357.024H1937.28H1938.92V355.355V353.686L1940.77 353.508L1942.62 353.33L1942.79 351.517L1942.97 349.703L1944.78 349.528L1946.59 349.352L1946.77 347.505L1946.95 345.658H1948.62H1950.29V343.67V341.681H1952.28H1954.27V340.012V338.343L1956.11 338.165L1957.96 337.987L1958.14 336.14L1958.32 334.293H1959.98H1961.65V332.304V330.315H1963.64H1965.63V328.61V326.906H1967.34H1969.04V324.917V322.928H1971.03H1973.02V320.939V318.95H1975.01H1977V317.245V315.54H1978.7H1980.41V313.551V311.563H1982.39H1984.38V307.905V304.247L1982.54 304.069L1980.69 303.891L1980.51 302.044L1980.33 300.197H1978.67H1977V298.208V296.219H1975.01H1973.02V294.23V292.241H1971.03H1969.04V290.537V288.832H1967.34H1965.63V286.843V284.854H1963.64H1961.65V282.865V280.876H1959.95H1958.24V279.171V277.467H1956.25H1954.27V275.478V273.489H1952.28H1950.29V271.5V269.511H1948.62H1946.95L1946.77 267.664L1946.59 265.817L1944.75 265.639L1942.9 265.461V263.792V262.123H1940.91H1938.92V260.134V258.146H1937.25H1935.59L1935.41 256.299L1935.23 254.452L1933.38 254.274L1931.54 254.095V252.427V250.758H1929.55H1927.56V247.064V243.371H1925.57H1923.58V241.382V239.393H1921.59H1919.6V237.688V235.983H1917.9H1916.19V234.03V232.077L1914.35 231.899C1912.48 231.718 1911.77 230.584 1912.43 228.847L1912.75 228.027L1985.36 228.033C2025.3 228.035 2059.32 228.198 2060.96 228.396Z" fill="white"/>
</svg>
