<svg width="996" height="1202" viewBox="0 0 996 1202" fill="none" xmlns="http://www.w3.org/2000/svg">
<path fill-rule="evenodd" clip-rule="evenodd" d="M476.139 0.604251C425.632 3.46568 375.885 15.1483 330.089 34.9019C307.824 44.5062 303.556 47.0693 300.144 52.8931C292.082 66.6496 298.541 83.9103 313.364 88.2195C320.792 90.379 324.83 89.6244 337.4 83.7305C372.71 67.1728 410.722 56.1 450.914 50.6645L465.72 48.6618L499.171 48.7177L532.622 48.7737L546.022 50.6688C585.832 56.2985 621.254 66.5476 655.458 82.3365L669.716 88.9181L675.748 89.0519C695.237 89.4862 706.248 68.5382 695.254 51.94L691.902 46.8796L678.615 40.5129C618.278 11.5981 543.213 -3.1971 476.139 0.604251ZM222.676 74.317C220.503 74.7667 216.555 76.4085 213.902 77.9659C209.747 80.4062 206.431 83.7173 195.018 96.8191C193.919 98.0804 178.126 115.785 159.922 136.162C141.718 156.54 125.713 175.248 124.355 177.738C119.363 186.893 121.949 200.127 130.033 206.791C135.491 211.289 140.596 212.626 152.316 212.626H162.199L163.56 214.266L164.921 215.906L162.959 218.927C161.149 221.715 153.13 232.594 125.157 270.206C101.726 301.711 95.5733 310.305 93.2043 314.831L90.7289 319.56L90.6884 328.334L90.6478 337.108L93.1988 342.043C96.7951 349.001 103.716 355.746 110.263 358.674L115.856 361.176L148.843 361.754L181.829 362.333L186.318 365.306C200.073 374.417 202.699 391.399 192.239 403.618C190.108 406.109 186.363 409.056 183.916 410.167L179.467 412.187L152.048 412.233C136.968 412.258 121.175 412.765 116.952 413.359C95.4658 416.381 78.0373 433.261 74.384 454.59L73.1622 461.723L75.0388 478.494C82.693 546.91 104.818 609.346 141.14 665.037C183.439 729.889 241.219 781.298 309.982 815.263C395.191 857.35 492.454 869.704 585.266 850.231C660.433 834.459 731.089 797.984 786.063 746.575C847.513 689.108 889.374 619.701 909.381 542.109C915.948 516.637 922.518 476.971 922.518 462.789C922.518 437.858 903.603 416.544 878.647 413.354C874.123 412.776 858.363 412.288 843.624 412.269L816.825 412.235L812.094 409.945C793.83 401.103 792.594 376.724 809.831 365.306L814.32 362.333L847.305 361.782L880.293 361.23L886.419 358.36C893.855 354.876 899.129 349.764 902.75 342.532L905.464 337.108L905.392 328.334C905.285 315.361 908.436 320.5 863.254 259.632C849.661 241.319 836.88 224.006 834.851 221.159L831.163 215.984L832.556 214.304L833.949 212.626H843.2C848.288 212.626 854.584 212.089 857.191 211.433C863.296 209.895 869.614 204.654 872.184 198.995C874.638 193.593 874.856 184.369 872.655 179.102C871.772 176.989 859.509 162.322 845.403 146.509C831.297 130.696 812.287 109.367 803.158 99.1124C785.238 78.9826 780.445 75.314 770.225 73.909C763.033 72.9197 754.168 75.4609 748.534 80.1287C746.202 82.059 739.889 88.7053 734.504 94.8976C729.12 101.09 723.165 107.779 721.271 109.763C705.302 126.488 663.095 175.304 661.429 178.974C657.326 188.009 659.208 198.341 666.234 205.356C671.886 211.001 677.025 212.626 689.221 212.626C699.629 212.626 702.07 213.187 702.07 215.576C702.07 216.465 694.79 227.07 685.893 239.141C676.996 251.215 667.527 264.129 664.851 267.842C662.176 271.555 654.399 282.12 647.569 291.318L635.152 308.044L632.693 308.014L630.233 307.984L597.373 263.594C579.3 239.179 564.084 218.437 563.561 217.503C561.635 214.061 564.598 212.89 576.318 212.455L587.597 212.037L593.001 209.256C596.241 207.589 599.716 204.611 601.674 201.826L604.941 197.178L605.278 189.822C605.524 184.477 605.083 181.352 603.666 178.395C602.595 176.155 582.623 152.938 559.285 126.8L516.852 79.2776L511.732 76.7211C508.748 75.2295 503.76 73.9354 499.769 73.6151L492.926 73.0656L486.286 76.0455L479.646 79.0243L472.135 87.4002C468.003 92.0066 457.96 103.208 449.817 112.293C409.058 157.764 393.612 175.716 392.065 179.419C390.934 182.123 390.511 185.748 390.797 190.249C391.336 198.702 395 204.68 402.245 208.926L407.366 211.928L419.251 212.417C427.623 212.762 431.513 213.361 432.413 214.445L433.689 215.984L430.008 221.159C423.56 230.23 369.643 302.894 366.913 306.195C362.911 311.034 360.883 308.718 320.038 252.658C315.643 246.626 307.913 236.089 302.862 229.243L293.678 216.797L294.815 214.986L295.952 213.175L307.901 212.515C314.474 212.152 320.839 211.454 322.045 210.965C333.164 206.459 339.154 193.513 335.749 181.35L334.347 176.344L315.031 154.728C304.408 142.839 289.846 126.449 282.67 118.306C259.808 92.3608 246.75 78.7808 242.652 76.6915C237.982 74.3083 228.289 73.1567 222.676 74.317ZM452.62 363.853C458.028 366.31 464.79 373.943 466.266 379.262C467.798 384.776 467.625 391.942 465.857 396.173C463.621 401.527 457.553 407.925 452.569 410.19L448.172 412.187L364.159 412.211C304.464 412.229 279.069 411.876 276.419 410.993C271.494 409.352 264.704 402.891 262.166 397.429C259.66 392.037 259.483 382.883 261.78 377.378C264.028 371.987 269.464 366.384 274.885 363.869L279.272 361.833H363.722H448.172L452.62 363.853ZM721.273 363.83C726.258 366.095 732.325 372.494 734.561 377.847C736.566 382.644 736.474 391.593 734.368 396.642C732.12 402.033 726.685 407.637 721.263 410.152L716.876 412.187L632.108 412.211L547.34 412.235L543.271 410.138C527.934 402.233 524.019 383.47 535.024 370.613C537.254 368.007 541.081 364.964 543.528 363.853L547.976 361.833H632.426H716.876L721.273 363.83ZM465.914 463.335C475.858 470.703 476.879 483.938 468.134 492.105C465.427 494.635 461.797 495.869 370.57 525.29C335.756 536.517 329.823 537.705 323.91 534.628C318.879 532.01 316.394 528.45 309.294 513.685C300.286 494.949 298.278 492.046 291.962 488.608C278.967 481.535 263.631 487.361 258.428 501.347C255.578 509.012 256.796 514.59 265.024 531.539C268.939 539.606 272.143 547.641 272.143 549.395C272.143 551.354 270.978 553.844 269.127 555.845L266.111 559.106L235.102 569.009C218.048 574.455 202.748 579.618 201.103 580.479C193.506 584.46 188.838 592.432 188.838 601.425C188.838 614.456 199.195 625.006 211.986 625.006C216.2 625.006 237.364 618.482 319.029 592.011C330.038 588.442 348.051 582.604 359.061 579.036C370.07 575.469 398.571 566.315 422.398 558.697C446.225 551.078 466.854 544.372 468.239 543.797C472.89 541.863 481.013 542.557 484.976 545.227L488.653 547.705L493.525 558.597L498.396 569.489V577.07V584.651L484.294 613.041C476.538 628.656 468.985 642.732 467.51 644.324C463.473 648.677 455.884 651.681 451.163 650.796C449.011 650.392 437.092 646.922 424.679 643.086C388.348 631.857 382.239 630.708 369.328 632.664C355.725 634.726 354.644 635.241 297.508 666.852C290.044 670.982 283.602 674.36 283.19 674.36C281.891 674.36 275.747 681.353 274.005 684.817C268.2 696.359 272.938 710.589 284.689 716.9C286.808 718.039 290.675 718.709 295.175 718.718L302.304 718.731L313.271 712.62C319.303 709.258 328.681 704.137 334.109 701.239C339.538 698.34 344.474 695.595 345.077 695.139C345.68 694.682 352.092 691.253 359.325 687.518L372.475 680.727L380.163 681.155C385.436 681.45 394.396 683.578 408.689 687.932L429.527 694.28L433.091 698.013C435.185 700.206 436.656 702.888 436.656 704.514C436.656 706.036 431.474 717.637 425.14 730.294L413.624 753.306L413.634 760.171L413.645 767.035L416.891 772.697L420.139 778.357L426.216 781.331L432.294 784.305L438.039 783.817C445.313 783.199 451.425 780.298 454.657 775.929C456.044 774.053 473.587 739.945 493.64 700.133C513.693 660.321 531.379 626.388 532.943 624.725C536.598 620.84 542.285 619.228 547.393 620.628C549.524 621.213 563.605 629.716 578.685 639.526L606.104 657.36L608.634 662.295C610.431 665.8 610.996 668.343 610.582 671.069C610.262 673.181 603.244 689.714 594.985 707.81L579.97 740.713L579.506 747.294L579.042 753.874L582.192 759.869L585.342 765.863L591.187 768.917C601.537 774.324 613.807 772.246 620.413 763.968C622.102 761.851 628.338 749.337 634.271 736.158C649.767 701.743 651.05 699.295 654.739 697.117C660.479 693.728 663.563 694.601 677.523 703.567C684.69 708.171 692.528 712.849 694.941 713.962C706.276 719.196 720.122 713.818 725.729 702.005C729.743 693.55 727.327 680.864 720.547 674.798C719.131 673.531 703.167 663.005 685.07 651.407C639.24 622.032 640.388 622.846 638.061 618.083L636.019 613.902L637.513 609.988L639.007 606.072L666.974 587.032C682.356 576.559 697.039 567.178 699.602 566.188C702.684 564.997 705.85 564.603 708.944 565.027C711.814 565.421 728.041 572.757 750.894 583.993L788.165 602.316L794.197 602.772L800.23 603.228L806.261 600.133C812.831 596.762 816.526 592.206 818.432 585.129C820.493 577.473 817.49 567.249 811.553 561.712C808.505 558.868 731.748 521.01 722.908 517.991C714.193 515.014 698.473 515.162 688.361 518.317C679.394 521.113 675.958 523.249 628.131 555.748C608.277 569.24 590.598 580.779 588.846 581.39C583.315 583.318 577.606 581.664 566.595 574.945C555.114 567.938 548.595 562.123 544.643 555.362C541.135 549.359 525.821 513.955 523.824 507.229C522.752 503.62 522.203 496.875 522.203 487.326V472.882L524.67 469.256C526.027 467.262 528.531 464.598 530.234 463.335L533.33 461.041L695.844 460.726C785.226 460.554 859.928 460.693 861.848 461.037C866.515 461.871 872.902 468.399 873.815 473.268C874.691 477.943 871.951 496.748 867.683 515.33C854.725 571.762 829.358 624.028 792.316 670.623C787.086 677.202 774.373 690.975 764.065 701.23C733.726 731.414 703.83 753.036 666.962 771.464C609.572 800.148 551.705 812.909 487.107 811.127C462.054 810.435 444.917 808.477 421.301 803.611C318.99 782.524 229.525 719.052 174.206 628.306C160.363 605.596 145.336 572.778 137.31 547.723C129.169 522.306 121.099 483.143 122.23 474.528C122.907 469.363 126.297 464.588 130.901 462.311L134.5 460.531L298.659 460.785L462.818 461.041L465.914 463.335ZM5.64061 900.565C4.94307 903.732 3.64889 909.778 2.76491 914C1.88093 918.223 0.898258 922.541 0.579102 923.597L0 925.516L4.18743 925.52C9.30598 925.525 15.1856 928.927 16.6268 932.717C17.2815 934.44 17.6961 963.366 17.6961 1007.4V1079.27L15.87 1082.36C13.6941 1086.05 10.1724 1087.84 5.09662 1087.84C0.531929 1087.84 -0.0372859 1088.65 1.19656 1093.42C1.72849 1095.48 3.23105 1101.97 4.53619 1107.85L6.90846 1118.54H48.2308H89.5532L92.4947 1104.08C94.1135 1096.12 95.1894 1089.21 94.8878 1088.72C94.5862 1088.23 92.4607 1087.84 90.1652 1087.84C84.8207 1087.84 80.6278 1084.58 79.1582 1079.29C78.5308 1077.03 78.0274 1063.62 78.0241 1049.12L78.0176 1023.01L103.165 1023.34L128.314 1023.68L131.406 1025.98C133.452 1027.51 134.836 1029.85 135.49 1032.89C136.041 1035.45 137.012 1037.29 137.683 1037.04C138.346 1036.8 143.699 1035.44 149.581 1034.03L160.274 1031.47V1004.4V977.334L148.619 974.414C142.208 972.807 136.849 971.636 136.709 971.811C136.57 971.986 135.769 974.346 134.929 977.055C133.824 980.626 132.498 982.437 130.113 983.635L126.823 985.289L102.42 985.654L78.0176 986.02V959.542V933.063L107.356 933.402L136.694 933.742L140.248 935.684C144.653 938.091 146.928 941.475 148.688 948.243L150.05 953.483L152.146 953.288C153.299 953.182 158.561 952.256 163.838 951.233L173.435 949.373V922.09V894.807H90.1729H6.91064L5.64061 900.565ZM442.14 952.262C427.361 956.606 414.517 960.45 413.597 960.805C412.538 961.213 410.971 965.425 409.329 972.273C407.902 978.225 406.531 983.641 406.285 984.307C406.009 985.047 408.091 985.786 411.633 986.205C418.585 987.028 422.198 989.444 425.14 995.231L427.333 999.547V1039.68V1079.82L425.842 1082.61C424.04 1085.98 420.293 1087.84 415.282 1087.84C413.235 1087.84 411.297 1088.26 410.974 1088.78C410.652 1089.31 411.733 1096.22 413.377 1104.15L416.366 1118.57L455.765 1118.28L495.163 1118L498.212 1103.74C499.888 1095.9 501.283 1089.11 501.312 1088.66C501.341 1088.21 499.413 1087.84 497.029 1087.84C491.732 1087.84 488.051 1086.26 485.951 1083.1L484.365 1080.71L484.041 1039.9L483.716 999.094L488.041 996.887C495.168 993.253 507.906 990.224 516.076 990.224C525.696 990.224 532.189 993.068 534.713 998.39L536.46 1002.07V1041.6V1081.13L533.928 1084.08L531.396 1087.02L525.702 1087.57C522.571 1087.87 519.992 1088.42 519.971 1088.8C519.95 1089.17 521.308 1096.02 522.987 1104.01L526.041 1118.54L565.799 1118.54C587.666 1118.54 605.556 1118.34 605.556 1118.08C605.556 1117.83 606.79 1111.92 608.298 1104.94C609.806 1097.97 611.04 1091.26 611.04 1090.05V1087.84H607.146C601.134 1087.84 597.065 1085.19 595.742 1080.43C595.048 1077.93 594.59 1060.41 594.575 1035.74L594.55 995.16L593.007 987.878C590.829 977.601 587.532 971.007 581.248 964.364C563.924 946.046 528.474 944.183 493.139 959.733C487.71 962.122 482.625 964.161 481.84 964.263C481.018 964.372 479.127 961.191 477.383 956.773C473.881 947.902 471.683 944.118 470.117 944.263C469.508 944.319 456.918 947.919 442.14 952.262ZM255.692 949.104C251.167 949.908 236.115 952.346 222.241 954.523C208.367 956.7 195.967 958.708 194.687 958.985L192.357 959.488L189.477 970.984C187.893 977.307 186.596 982.989 186.596 983.611C186.596 984.232 188.11 984.741 189.959 984.741C194.389 984.741 196.868 986.169 199.955 990.497L202.499 994.063L203.216 1036.84L203.934 1079.61L205.676 1086.49C208.19 1096.4 211.917 1103.05 218.326 1109.04C228.782 1118.83 241.779 1122.49 262.666 1121.55C278.41 1120.84 290.088 1117.46 308.884 1108.15C316.726 1104.27 323.29 1101.52 323.472 1102.04C323.654 1102.55 325.628 1105.95 327.859 1109.58C332.933 1117.83 338.275 1124.04 340.264 1124C341.102 1123.98 353.385 1120.63 367.56 1116.55L393.334 1109.13V1097.11V1085.09L388.399 1084.5C381.797 1083.72 378.052 1081.02 375.017 1074.86L372.496 1069.74V1025.82V981.903L374.525 978.807C375.64 977.104 378.473 974.904 380.819 973.919C383.166 972.934 385.091 971.408 385.097 970.527C385.107 969.01 379.602 948.435 378.964 947.61C378.699 947.268 310.175 957.704 304.497 958.951L302.304 959.433L299.83 970.167C296.602 984.178 296.628 984.741 300.51 984.741C304.559 984.741 309.226 988.442 311.459 993.425L313.221 997.353L313.611 1033.36L314.003 1069.36L312.141 1071.42C311.118 1072.55 306.512 1075.08 301.905 1077.04L293.53 1080.61L282.918 1080.66L272.307 1080.71L269.277 1078.45C267.61 1077.2 265.229 1074.82 263.985 1073.16L261.724 1070.13L261.386 1030.66C261.165 1004.93 261.467 989.165 262.252 985.385C263.582 978.981 267.372 974.431 272.417 973.184C274.076 972.774 275.417 971.875 275.398 971.187C275.378 970.498 273.982 964.999 272.295 958.967L269.228 947.999L266.572 947.822C265.113 947.724 260.216 948.301 255.692 949.104ZM683.243 950.266C673.925 951.952 662.16 956.067 656.114 959.757C649.728 963.652 639.734 973.74 636.327 979.73C630.162 990.569 627.676 1005.2 629.595 1019.37C632.035 1037.39 643.648 1053.77 659.2 1061.14C662.812 1062.85 665.792 1064.58 665.822 1064.97C665.852 1065.37 657.487 1071.91 647.232 1079.51C636.978 1087.11 628.588 1093.87 628.588 1094.52C628.588 1097.06 644.908 1110.93 650.898 1113.49C651.741 1113.85 651.557 1114.42 650.349 1115.19C639.934 1121.82 630.067 1132.71 625.503 1142.61L622.75 1148.58L622.822 1156.32C623.044 1180.13 639.126 1194.49 671.685 1199.92C683.752 1201.94 713.692 1201.58 726.747 1199.27C762.259 1192.98 787.721 1176.91 798.215 1154.15L801.234 1147.61L801.676 1137.07C802.628 1114.33 794.452 1101.83 774.186 1095.02C763.997 1091.6 752.198 1090.2 723.457 1089.01C706.595 1088.31 699.029 1087.55 695.215 1086.2C692.351 1085.17 690.016 1084.02 690.027 1083.62C690.038 1083.22 693.734 1080.56 698.238 1077.69C704.23 1073.88 707.536 1072.48 710.556 1072.46C716.276 1072.43 728.763 1070.57 736.583 1068.58C758.572 1063 774.464 1048.58 780.296 1028.92C783.851 1016.94 783.47 1001.4 779.368 991.047L778.608 989.128H790.241H801.875V971.733V954.34L775.827 953.712C758.721 953.301 744.184 952.306 733.482 950.817C714.816 948.218 695.72 948.008 683.243 950.266ZM875.357 949.184C873.849 949.441 868.914 950.184 864.39 950.836C855.317 952.141 837.776 956.292 830.939 958.753L826.552 960.331L826.894 963.488C827.222 966.514 834.295 999.687 835.459 1003.66L836.022 1005.58H845.049H854.078L855.547 1001.52C856.355 999.283 859.539 994.937 862.622 991.86C869.441 985.053 875.222 983.112 888.531 983.159L897.867 983.192L902.789 985.886C906.261 987.785 908.439 990.022 910.179 993.473L912.647 998.367V1007.29V1016.21L899.212 1016.93C863.129 1018.87 840.187 1026.4 825.351 1041.16L817.569 1048.9L815.034 1055.48C811.614 1064.36 810.788 1080.39 813.305 1089.04C818.485 1106.82 832.292 1117.76 854.233 1121.47L864.908 1123.27L875.343 1122.03C881.081 1121.35 888.738 1120.03 892.357 1119.1C899.664 1117.21 917.197 1109.11 921.36 1105.69L924.042 1103.48L929.217 1109.14C935.432 1115.94 943.306 1119.99 953.954 1121.87L961.81 1123.25L971.351 1122.02C976.597 1121.34 984.291 1119.69 988.446 1118.35L996 1115.92V1101.21V1086.5L992.984 1087.44C991.325 1087.96 986.589 1088.38 982.46 1088.38L974.951 1088.38L972.435 1085.23C971.051 1083.49 969.623 1080.28 969.262 1078.1C968.901 1075.91 968.6 1055.54 968.593 1032.82L968.581 991.516L966.582 985.112C961.15 967.709 947.294 956.506 924.711 951.254C916.823 949.419 882.431 947.976 875.357 949.184ZM718.018 982.416C727.036 986.511 731.682 996.067 731.682 1010.51C731.682 1030.44 722.947 1040.66 705.909 1040.66C687.668 1040.66 679.211 1029.6 680.38 1007.26C680.961 996.15 682.81 991.062 688.17 985.822C692.399 981.686 696.097 980.572 705.909 980.477C711.15 980.426 714.992 981.04 718.018 982.416ZM910.453 1060.83V1076.61L906.598 1079.55C900.004 1084.58 891.343 1087.91 883.065 1088.6L875.329 1089.25L870.937 1087.27C862.678 1083.55 859.11 1073.25 863.111 1064.68C864.345 1062.03 866.249 1058.87 867.34 1057.65C873.45 1050.8 889.182 1045.78 906.34 1045.2L910.453 1045.06V1060.83ZM697.23 1130.05C703.21 1130.96 712.791 1131.71 718.521 1131.72C731.779 1131.76 743.249 1133.41 747.529 1135.9C749.788 1137.21 751.201 1139.14 751.877 1141.85L752.878 1145.84L750.168 1151.11C745.177 1160.82 733.786 1167.16 715.946 1170.18C705.91 1171.88 684.458 1170.92 677.677 1168.48C671.215 1166.15 665.076 1160.17 664.167 1155.32C662.781 1147.94 670.157 1137.53 681.232 1131.24C683.946 1129.7 686.21 1128.44 686.263 1128.43C686.315 1128.42 691.251 1129.15 697.23 1130.05Z" fill="white"/>
</svg>
