<svg width="2860" height="420" viewBox="0 0 2860 420" fill="none" xmlns="http://www.w3.org/2000/svg">
<path fill-rule="evenodd" clip-rule="evenodd" d="M0.5 209.746V419.005H29.7763H59.0535L59.2705 264.179L59.4884 109.352L112.879 115.576C142.244 118.999 167.92 122.042 169.938 122.339L173.605 122.878L173.383 76.5385L173.159 30.1978L88.3367 15.3878C41.6842 7.24224 2.83542 0.558034 2.007 0.533061L0.5 0.488281V209.746ZM298.255 52.4652L218.397 75.8384L218.383 101.766L218.37 127.692L223.752 128.243C226.712 128.547 233.106 129.235 237.961 129.775L246.787 130.757V158.557V186.357L250.002 185.469C251.769 184.981 256.553 184.741 260.632 184.936L268.047 185.291L275.437 188.836L282.825 192.381L283.308 191.125C283.945 189.464 290.597 186.522 292.346 187.128C293.101 187.389 295.19 189.001 296.985 190.709C298.782 192.418 302.057 194.397 304.265 195.107C309.104 196.664 311.194 199.738 311.965 206.434C312.257 208.966 313.227 211.981 314.121 213.134C315.281 214.632 315.587 215.955 315.19 217.763C314.55 220.675 315.685 221.769 319.366 221.79C325.406 221.822 333.984 228.284 335.51 233.951C336.075 236.047 336.922 237.303 337.771 237.303C339.689 237.303 345.638 244.058 346.79 247.546C347.389 249.356 347.54 252.851 347.188 256.736L346.621 263.004L349.791 265.423C351.535 266.753 353.498 269.122 354.151 270.688L355.341 273.534L354.373 277.13C353.669 279.742 351.876 282.224 347.82 286.201C344.749 289.213 341.685 292.993 341.013 294.603C339.308 298.684 339.521 304.223 341.554 308.705C343.427 312.834 343.8 315.321 342.873 317.491C342.442 318.498 343.109 319.375 345.276 320.654C346.926 321.627 348.903 323.381 349.67 324.552C353.335 330.145 351.633 338.016 346.275 340.255C344.597 340.956 342.194 342.686 340.935 344.099C339.259 345.979 337.875 346.668 335.774 346.668H332.902L332.881 349.898C332.837 356.823 330.037 363.161 327.667 361.696C327.296 361.467 325.541 362.265 323.767 363.468C319.552 366.328 317.385 366.81 311.973 366.089C297.66 364.182 297.302 364.237 292.518 369.068C290.037 371.574 288.411 372.503 286.501 372.503C283.634 372.503 280.372 369.704 280.372 367.244C280.372 364.21 279.169 362.857 274.721 360.89L270.163 358.874L264.014 362.11C257.253 365.668 252.601 369.614 250.593 373.498C248.698 377.163 247.662 388.118 247.655 404.58L247.649 419.005H313.526H379.404V223.955C379.404 116.678 379.113 28.9483 378.758 28.9991C378.402 29.0507 342.176 39.6109 298.255 52.4652ZM71.975 271.749V419.005H150.712H229.448L229.894 417.498C230.14 416.669 230.774 409.878 231.302 402.408L232.263 388.824L230.406 385.819C228.445 382.645 223.288 378.743 218.546 376.843L215.709 375.706L213.554 376.688C212.369 377.228 208.889 377.67 205.821 377.67H200.242L199.461 379.727C198.239 382.941 193.277 388.141 190.208 389.423C186.566 390.945 180.152 390.907 177.133 389.346C175.813 388.663 173.662 386.7 172.353 384.984L169.973 381.864L168.552 383.097C167.693 383.843 164.217 384.542 159.753 384.868L152.374 385.406L148.266 381.776C143.242 377.335 140.702 373.069 138.385 365.177L136.613 359.143L131.141 353.535C127.717 350.026 124.566 345.685 122.72 341.934L119.769 335.94L119.779 330.755C119.792 323.926 121.239 320.755 125.859 317.437L129.672 314.699V311.682C129.672 307.829 131.01 305.333 133.076 305.333C138.125 305.333 138.791 301.803 134.844 295.977C130.681 289.835 130.363 283.194 133.843 275.076C135.065 272.225 135.276 270.778 134.637 269.636C134.143 268.753 134.002 266.073 134.312 263.434L134.858 258.789L133.073 256.374C131.21 253.853 130.711 250.285 131.76 246.981C132.591 244.361 139.732 239.025 142.407 239.025C143.592 239.025 146.234 237.967 148.278 236.674L151.994 234.323L151.535 232.491C151.282 231.483 152.072 228.29 153.29 225.396C154.509 222.501 155.506 218.558 155.506 216.634C155.506 211.401 157.483 207.589 161.618 204.852L165.281 202.427H177.542H189.804L192.463 204.391L195.122 206.356L198.106 203.372C201.685 199.792 206.979 198.651 212.646 200.239L216.33 201.269L219.033 200.126C220.52 199.497 222.626 197.659 223.713 196.043C224.8 194.427 227.143 192.354 228.919 191.438L232.148 189.771V166.656C232.148 153.762 231.803 143.326 231.367 143.058C230.693 142.641 75.9561 124.497 73.0514 124.494L71.975 124.493V271.749ZM829.238 131.598C825.935 138.106 761.242 271.838 757.796 279.284L754.906 285.527H766.1H777.294L785.909 267.658C790.648 257.83 795.169 249.306 795.956 248.713L797.388 247.637H832.844H868.3L876.889 266.367L885.479 285.097L899.497 285.333L913.514 285.571L913.013 284.265C912.737 283.547 896.558 247.886 877.058 205.018L841.605 127.077H836.569H831.534L829.238 131.598ZM657.553 128.334C656.843 128.504 653.355 129.115 649.803 129.691C637.167 131.74 624.296 137.388 613.73 145.518C580.752 170.894 574.851 223.795 601.181 258.014C616.778 278.282 644.665 289.624 674.316 287.757C689.014 286.831 714.205 280.215 723.28 274.897L727.306 272.538V259.226V245.914H720.612H713.92L712.249 249.016C708.491 255.995 698.274 262.427 685.541 265.829L678.651 267.67L667.026 267.742L655.4 267.814L650.234 266.261C641.853 263.74 635.149 259.684 628.59 253.166C621.637 246.254 617.432 238.608 614.365 227.295L612.526 220.511V208.024V195.538L614.371 188.648C617.446 177.174 621.607 169.726 629.049 162.383C636.789 154.746 643.592 151.115 654.184 148.969C662.501 147.283 674.474 147.673 682.957 149.905C694.273 152.883 708.743 161.812 712.903 168.382L714.603 171.066L720.739 170.815L726.875 170.564L727.112 157.077L727.349 143.589L722.703 140.931C717.033 137.687 702.7 132.909 691.365 130.486C683.724 128.852 661.335 127.427 657.553 128.334ZM1898.03 131.468C1895.19 131.874 1889.57 133.221 1885.55 134.46C1851.58 144.919 1829.57 175.201 1829.57 211.469C1829.57 254.357 1859.34 287.422 1901.63 291.51C1930.02 294.256 1956.65 283.826 1972.67 263.687L1976 259.5L1969.48 254.961L1962.95 250.423L1955.04 258.34C1949.31 264.066 1945.4 267.143 1940.92 269.458C1920.79 279.848 1894.3 278.713 1875.86 266.668C1863.67 258.705 1854.38 245.775 1850.09 230.795L1848.13 223.955L1848.14 211.469C1848.15 202.165 1848.55 197.568 1849.69 193.435C1856.04 170.563 1872.15 154.191 1893.91 148.528C1902.47 146.297 1917.75 146.113 1926.45 148.134C1938.76 150.995 1951.33 159.039 1958.56 168.683L1960.37 171.107L1966.86 166.222L1973.35 161.337L1969.28 156.137C1962.08 146.953 1950.55 138.99 1938.29 134.741C1927.83 131.11 1910.44 129.698 1898.03 131.468ZM2584.29 131.867C2562.95 135.453 2543.39 148.048 2531.46 165.882C2522.11 179.859 2518.19 193.664 2518.26 212.33L2518.31 223.955L2520.45 232.146C2524.62 248.111 2531.41 259.747 2542.88 270.588C2574.3 300.289 2626.74 299.466 2657.41 268.791C2667.2 259.004 2673.94 247.041 2678 232.262L2679.81 225.678L2679.85 211.899L2679.89 198.121L2677.56 189.663C2673.41 174.641 2666.7 163.358 2655.6 152.764C2637.2 135.195 2610.69 127.43 2584.29 131.867ZM1176.82 209.746V288.111H1217.59H1258.36L1263.38 286.385C1287.46 278.101 1298.45 249.451 1286.55 225.979C1282.28 217.551 1272.86 209.727 1264.59 207.738L1262.37 207.203L1266.84 202.583C1283.06 185.848 1282.69 159.587 1266.02 142.915C1260.13 137.027 1254.7 134.052 1246.75 132.355C1243.81 131.729 1230.54 131.382 1209.5 131.382H1176.82V209.746ZM2077.11 134.612C2071.25 148.594 2014.39 288.018 2014.06 289.22L2013.64 290.759L2022.13 290.511L2030.63 290.263L2037.47 272.816L2044.31 255.369L2080.4 255.593L2116.49 255.818L2123.5 273.256L2130.5 290.694H2139.35C2144.21 290.694 2148.19 290.456 2148.19 290.166C2148.19 289.715 2084.96 138.756 2082.49 133.32C2081.13 130.315 2078.66 130.907 2077.11 134.612ZM2737.22 210.608V289.833H2745.46H2753.69L2753.42 229.323L2753.15 168.812L2756.73 173.564C2765.15 184.728 2857.15 292.416 2858.27 292.416H2859.5V212.297V132.179L2851.53 132.426L2843.57 132.674L2843.35 184.192C2843.22 212.526 2843.47 240.04 2843.89 245.333C2844.31 250.626 2844.6 255.029 2844.52 255.117C2844.46 255.205 2842.27 252.433 2839.68 248.959C2837.08 245.484 2813.73 217.608 2787.77 187.011C2755.02 148.398 2740.08 131.382 2738.9 131.382H2737.22V210.608ZM958.093 208.455V284.666H967.996H977.899V231.949V179.233L1008.66 231.567L1039.42 283.901L1040.45 282.495C1041.02 281.722 1054.98 257.978 1071.48 229.732L1101.47 178.374L1101.7 231.52L1101.92 284.666H1114.83H1127.74V208.43V132.193L1116.35 132.434L1104.96 132.674L1074.02 185.466L1043.07 238.259L1042.04 237.135C1041.48 236.517 1027.34 212.663 1010.62 184.127L980.226 132.243H969.159H958.093V208.455ZM1329.25 208.455V284.666H1342.16H1355.08V208.455V132.243H1342.16H1329.25V208.455ZM1398.47 133.488C1398.2 134.172 1398.15 158.488 1398.35 187.525L1398.71 240.317L1400.39 246.426C1404.52 261.424 1416.65 274.143 1432.75 280.366C1451.61 287.657 1479.69 287.097 1496.61 279.093C1510.48 272.532 1520.25 258.984 1523.95 241.178L1525.56 233.428L1525.58 183.266L1525.59 133.105H1515.68H1505.78V182.462C1505.78 214.194 1505.45 233.645 1504.85 236.929C1502.17 251.58 1493.52 260.583 1479.21 263.617C1471.78 265.191 1456.71 265.187 1450.78 263.608C1439.45 260.592 1430.82 254.003 1426.7 245.222L1424.4 240.317L1424.15 186.28L1423.89 132.243H1411.42H1398.94L1398.47 133.488ZM1576.39 208.455V284.666H1586.72H1597.05L1597.27 232.519L1597.49 180.373L1627.08 230.753C1643.35 258.463 1657.12 281.766 1657.68 282.536L1658.71 283.938L1689.24 231.654L1719.78 179.37L1720 232.017L1720.22 284.666H1733.13H1746.04V208.455V132.243L1735.06 132.248L1724.08 132.251L1692.95 184.993C1675.82 214 1661.54 237.734 1661.2 237.734C1660.86 237.734 1646.78 214.004 1629.9 185.001L1599.21 132.268L1587.8 132.255L1576.39 132.243V208.455ZM2200.72 211.394V290.694H2209.34H2217.95V259.693V228.692L2235.82 228.698L2253.68 228.705L2271.62 259.268L2289.56 289.833H2299.76H2309.95L2291.38 258.616C2281.17 241.448 2272.65 226.819 2272.46 226.108C2272.22 225.209 2273.43 224.349 2276.45 223.277C2286.97 219.549 2297.56 209.267 2301.36 199.095C2305.22 188.786 2305.42 173.952 2301.84 163.084C2297.37 149.493 2285.41 139.393 2268.19 134.666L2261.44 132.812L2231.08 132.452L2200.72 132.093V211.394ZM2365.2 210.965V289.833H2398.52H2431.83L2437.48 288.449C2454.33 284.327 2464.97 274.066 2469.04 258.029C2470.97 250.423 2470.4 236.195 2467.89 229.316C2464.23 219.291 2455.58 211.011 2445.14 207.544L2440.67 206.058L2445.44 203.645C2451.51 200.574 2457.59 193.846 2459.92 187.614C2462.52 180.668 2463.07 171.012 2461.32 163.167C2458.13 148.831 2449.49 139.672 2434.53 134.763L2428.5 132.784L2396.85 132.441L2365.2 132.097V210.965ZM2614.77 148.3C2623.99 150.214 2635.38 156.227 2642.48 162.923C2656.16 175.829 2662.49 191.516 2662.42 212.33C2662.37 224.463 2660.4 232.958 2655.22 243.331L2651.57 250.651L2644.23 258.043C2633.21 269.143 2622.55 274.279 2606.62 276.158C2575.51 279.826 2547.77 261.22 2538.99 230.795L2537.01 223.955V211.469V198.982L2538.99 192.142C2548.65 158.657 2579.29 140.933 2614.77 148.3ZM1238.83 150.639C1246.59 154.768 1250.46 160.755 1251.85 170.789L1252.78 177.453L1250.94 182.316C1248.5 188.774 1243.46 194.366 1237.78 196.904L1233.23 198.942L1215.79 199.254L1198.35 199.566V174.025V148.485L1217.08 148.76L1235.81 149.036L1238.83 150.639ZM2267.63 151.09C2281.04 155.982 2287.6 167.269 2286.63 183.81C2285.77 198.705 2279.36 207.073 2265.35 211.613L2259.71 213.439L2239.26 213.845L2218.81 214.249V181.362V148.474L2240.55 148.81L2262.3 149.146L2267.63 151.09ZM2427.87 149.919C2433.88 151.703 2439.15 155.927 2441.8 161.081L2444 165.36L2444 174.851L2444 184.343L2442.14 187.787C2440 191.744 2436.53 195.194 2432.79 197.082C2428 199.49 2420.14 200.274 2400.78 200.274H2381.56V174.439V148.605H2402.51H2423.45L2427.87 149.919ZM2098.55 211.253L2110.18 239.886H2080.53C2064.23 239.886 2050.89 239.576 2050.89 239.196C2050.89 238.816 2056.44 224.769 2063.23 207.979C2070.02 191.19 2076.45 174.741 2077.51 171.425C2078.57 168.11 2079.62 164.834 2079.84 164.146C2080.06 163.457 2081.75 167.332 2083.58 172.758C2085.42 178.182 2092.15 195.506 2098.55 211.253ZM846.351 199.197C852.839 213.761 858.396 226.356 858.697 227.185L859.245 228.692H832.888C815.964 228.692 806.531 228.385 806.531 227.834C806.531 226.681 833.521 172.717 834.098 172.717C834.348 172.717 839.861 184.634 846.351 199.197ZM2433.44 216.63C2441.42 219.092 2446.29 223.13 2449.74 230.141L2452.57 235.901L2452.57 244.137C2452.58 254.212 2450.88 259.718 2446.07 265.173C2441.77 270.059 2435.23 273.308 2428.03 274.128C2424.97 274.477 2413.27 274.646 2402.02 274.504L2381.56 274.244V244.579V214.913H2404.73H2427.88L2433.44 216.63ZM1250.45 221.25C1255.33 223.531 1261.54 229.825 1263.58 234.556C1265.44 238.857 1265.41 248.569 1263.52 254.777C1261.63 261.005 1257.48 265.723 1251.52 268.416L1247.01 270.457L1222.68 270.721L1198.35 270.986V245.102V219.219L1222.25 219.228L1246.15 219.236L1250.45 221.25ZM228.161 328.963C226.679 329.609 225.236 330.507 224.956 330.96C224.454 331.772 231.211 339.779 232.398 339.779C232.734 339.779 233.009 337.067 233.009 333.751C233.009 327.185 232.777 326.955 228.161 328.963ZM257.241 329.474C255.829 330.65 253.921 331.168 250.997 331.168H246.787V338.251V345.334L253.074 339.089C256.531 335.655 260.04 331.692 260.872 330.284L262.385 327.723L260.83 327.752C259.974 327.768 258.359 328.543 257.241 329.474ZM216.329 339.995C216.044 341.061 215.804 343.191 215.798 344.731C215.791 346.358 215.073 348.243 214.082 349.234L212.378 350.938L212.931 353.71C213.237 355.235 214.371 357.787 215.453 359.38C216.534 360.974 217.664 363.913 217.964 365.912L218.509 369.546L224.683 372.319C228.078 373.845 231.183 375.091 231.583 375.09C231.983 375.088 232.176 371.308 232.014 366.69L231.717 358.294L228.975 352.504C226.522 347.326 219.154 338.057 217.491 338.057C217.137 338.057 216.615 338.928 216.329 339.995ZM267.885 340.994C261.327 345.336 249.1 358.735 251.709 358.721C252.081 358.718 255.327 357.228 258.924 355.407C262.521 353.587 266.59 351.697 267.966 351.208C271.246 350.041 274.839 343.592 274.023 340.34C273.708 339.084 273.167 338.077 272.821 338.101C272.474 338.124 270.254 339.427 267.885 340.994Z" fill="white"/>
</svg>
