<svg width="2200" height="544" viewBox="0 0 2200 544" fill="none" xmlns="http://www.w3.org/2000/svg">
<path fill-rule="evenodd" clip-rule="evenodd" d="M248.443 0.201857C182.457 6.99455 125.621 33.697 79.9591 79.3586C35.3421 123.977 8.95869 178.951 1.57664 242.681L0 256.289L0.500208 277.873C0.841813 292.636 1.60573 303.4 2.91585 311.93C20.9759 429.446 111.519 521.302 228.266 540.547C253.157 544.65 288.253 544.939 312.413 541.241C370.642 532.325 423.193 505.746 464.778 464.174C516.246 412.724 544.511 344.176 544.529 270.764C544.56 136.867 446.123 22.959 312.53 2.30404L300.059 0.375475L276.128 0.0958093C262.966 -0.0590393 250.507 -0.011177 248.443 0.201857ZM306.159 32.9453C322.059 35.3919 332.96 37.9774 347.452 42.742C399.123 59.7294 442.798 92.8079 472.662 137.571C493.356 168.591 505.121 199.225 511.407 238.457L513.06 248.781L513.021 272.243L512.981 295.705L510.948 308.13C507.972 326.319 504.256 340.423 497.998 357.291L494.646 366.323L486.508 364.541C482.031 363.56 477.892 362.591 477.309 362.385C476.576 362.127 477.076 358.619 478.931 351.015C481.908 338.815 486.414 313.137 486.651 307.039C486.834 302.279 484.505 298.331 480.991 297.449C478.944 296.935 462.3 298.883 446.266 301.513L443.255 302.006L442.981 262.979L442.707 223.951L440.361 221.656C439.071 220.394 401.512 194.412 356.898 163.919L275.781 108.479H272.429H269.077L186.967 164.631L104.856 220.785L103.215 223.99L101.574 227.196L101.573 264.606L101.571 302.018L98.5212 301.518C96.8432 301.243 88.8681 300.068 80.7972 298.908L66.1232 296.796L63.0853 298.054C61.1905 298.839 59.5754 300.442 58.7927 302.315L57.538 305.318L59.3783 317.404C61.9019 333.972 65.4184 351.138 68.3061 360.977L68.7331 362.434L59.7425 364.202L50.7509 365.97L49.9072 364.622C48.0228 361.613 41.5097 341.819 38.7975 330.859C34.7424 314.471 33.1695 304.547 31.9101 287.417L30.8186 272.561L31.9316 256.794C38.836 158.959 100.414 77.3474 192.134 44.4698C210.21 37.9896 226.641 34.4816 254.543 31.1453C261.788 30.2781 296.751 31.4982 306.159 32.9453ZM865.022 137.254C860.666 139.55 857.895 142.387 856.003 146.487L854.27 150.241L854.25 269.223L854.229 388.205L855.687 391.694C858.684 398.869 866.145 404.057 873.468 404.057C880.791 404.057 888.252 398.869 891.249 391.694L892.707 388.205V334.138V280.071L897.634 274.404C907.673 262.855 922.571 252.993 934.938 249.705C941.831 247.873 954.895 247.929 961.253 249.818C971.593 252.888 977.079 258.739 981.214 271.103L983.164 276.935L983.527 333.883L983.889 390.829L986.521 394.98C989.699 399.991 997.125 404.11 1002.93 404.078C1010.91 404.035 1019.24 397.544 1021.35 389.729C1021.99 387.386 1022.2 366.015 1021.97 327.789L1021.62 269.427L1020.05 263.556C1016.24 249.311 1009.15 237.09 999.385 227.956C992.092 221.133 987.119 218.16 977.536 214.891L970.131 212.366L957.415 211.924L944.698 211.482L936.768 213.487C925.946 216.22 911.505 223.485 903.601 230.172C900.045 233.18 896.138 236.416 894.921 237.362L892.707 239.083L892.686 194.662L892.665 150.241L890.933 146.487C888.836 141.944 885.865 139.084 881.227 137.147C876.781 135.289 868.647 135.342 865.022 137.254ZM1798.81 136.997C1795.24 138.553 1789.22 145.164 1788.27 148.575C1787.87 150.007 1787.54 204.813 1787.54 270.366V389.552L1789.65 393.486C1793.1 399.953 1800.18 404.099 1807.75 404.099C1809.77 404.099 1813.39 402.986 1816.26 401.486L1821.26 398.872L1823.88 393.87L1826.49 388.869V269.759V150.65L1825.04 147.174C1821.92 139.714 1815.57 135.674 1807.05 135.731C1804.07 135.752 1800.35 136.32 1798.81 136.997ZM1219.19 140.743C1211.79 143.389 1206.31 149.445 1204.26 157.27C1199.96 173.613 1216.15 189.818 1232.4 185.442C1238.39 183.831 1244.19 179.491 1247.19 174.376L1249.8 169.949L1249.78 162.91L1249.75 155.872L1247.7 152.001C1242.4 141.987 1229.72 136.979 1219.19 140.743ZM754.799 180.839C752.442 181.781 701.718 231.327 699.656 234.704C698.18 237.118 698.142 240.995 699.564 244.115C701.505 248.376 704.652 249.25 718.065 249.25H730.272L730.561 309.547L730.85 369.844L732.951 375.4C736.035 383.555 739.123 388.358 744.245 392.964C754.324 402.025 764.965 405.283 784.782 405.372L798.39 405.433L805.898 402.883C810.027 401.481 815.505 399.175 818.072 397.759L822.738 395.183L824.531 390.844C827.931 382.616 824.614 373.598 816.718 369.61C811.846 367.148 807.531 366.951 801.12 368.895C798.52 369.685 792.833 370.297 788.067 370.302C778.129 370.312 774.116 368.751 771.206 363.744L769.297 360.459L769.034 304.855L768.771 249.25H789.483H810.196L813.911 247.354C825.912 241.232 825.688 223.25 813.528 216.608L810.59 215.003L789.709 214.687L768.828 214.371V200.779C768.828 192.618 768.409 186.368 767.78 185.137C765.323 180.333 760.262 178.658 754.799 180.839ZM2129.15 180.929C2125.03 183.274 2073.47 234.4 2072.89 236.717C2072.06 240.034 2073.91 245.094 2076.79 247.358L2079.19 249.25H2091.74H2104.28L2104.31 304.855L2104.35 360.459L2105.67 367.891C2108.32 382.768 2116.19 393.585 2128.9 399.819C2136.88 403.733 2142.1 404.839 2156.28 405.618L2166.69 406.189L2175.13 404.17C2186.12 401.545 2195.14 397.089 2197.89 392.933C2202.19 386.443 2199.59 374.41 2193.02 370.347C2188.54 367.58 2182.7 367.056 2175.94 368.815C2168.35 370.786 2156.14 370.772 2151.18 368.787C2148.45 367.694 2146.85 366.239 2145.53 363.663L2143.7 360.065V304.658V249.25H2163.9C2185.91 249.25 2188.11 248.846 2192.67 243.969C2197.51 238.798 2198.55 231.234 2195.4 224.287C2191.65 216.02 2186.61 214.539 2162.23 214.532L2143.7 214.526V201.827C2143.7 188.08 2142.75 184.032 2138.89 181.333C2136.37 179.568 2131.87 179.38 2129.15 180.929ZM1945.68 210.272C1886.31 220.149 1848.9 278.896 1865.5 336.169C1875.92 372.143 1906.02 399.401 1943.1 406.433C1952.28 408.176 1969.08 408.218 1978.52 406.523C2009.07 401.036 2035.99 380.877 2050.07 352.952C2064.21 324.886 2063.62 290.204 2048.52 261.817C2043.06 251.55 2037.73 244.729 2028.03 235.592C2015.24 223.549 1998.57 214.875 1981.14 211.194C1971.25 209.107 1955.19 208.69 1945.68 210.272ZM1146.1 213.212C1134.6 216.279 1124.17 222.567 1113.01 233.154L1107.62 238.274V232.932C1107.62 221.402 1099.75 213.588 1088.14 213.588H1082.65L1078.38 216.295C1075.34 218.224 1073.39 220.436 1071.62 223.987L1069.14 228.972L1069.16 308.793L1069.18 388.614L1070.89 392.376C1071.83 394.444 1074.11 397.462 1075.95 399.081C1085.35 407.333 1099.66 404.801 1105.43 393.863L1107.62 389.726V334.161V278.596L1109.65 275.889C1115.59 267.982 1125.28 259.703 1133.43 255.586C1140.55 251.984 1147.57 250.197 1156.89 249.611C1167.38 248.952 1170.69 247.965 1174.94 244.239C1179.03 240.65 1180.82 236.598 1180.82 230.95C1180.82 223.228 1177.04 216.951 1170.3 213.497L1166.82 211.711L1159.04 211.773C1154.76 211.807 1148.93 212.454 1146.1 213.212ZM1541.79 213.115C1515.82 218.489 1497 232.689 1484.8 256.101C1467.13 290.032 1469.16 340.351 1489.4 370.023C1494.07 376.879 1504.33 386.801 1511.46 391.359C1529.91 403.16 1556.55 408.09 1585.1 404.984C1600.88 403.267 1609.46 400.761 1623.75 393.691L1636.91 387.183L1639.19 383.675C1643.72 376.746 1643.49 368.763 1638.61 363.207C1632.36 356.091 1626.2 355.404 1613.98 360.463C1601.01 365.832 1592.33 367.561 1575.36 368.159L1560.26 368.691L1553.07 367.091C1539.26 364.02 1528.01 356.455 1521.06 345.565C1517.84 340.531 1513.04 328.341 1513.04 325.21V323.39H1573.61H1634.18L1637.66 321.604C1641.75 319.504 1644.52 316.646 1646.78 312.181L1648.42 308.949L1647.93 297.166C1646.23 256.473 1621.94 224.153 1585.72 214.416L1578.26 212.411L1563.25 212.096C1552.8 211.877 1546.27 212.187 1541.79 213.115ZM1217.61 215.585C1213.18 217.779 1209.81 221.72 1208.16 226.632C1206.68 231.052 1206.66 385.109 1208.14 390.491C1209.51 395.471 1216.07 401.787 1221.37 403.213C1226.19 404.51 1232.62 403.772 1236.56 401.47C1238.15 400.544 1240.72 397.975 1242.28 395.761L1245.1 391.737L1245.35 309.559L1245.6 227.382L1243.58 223.194C1242.22 220.398 1240.13 218.105 1237.28 216.297L1233.01 213.588L1227.32 213.589C1223.42 213.589 1220.38 214.214 1217.61 215.585ZM1287.11 215.988C1284.8 217.375 1282.11 220.13 1280.67 222.575L1278.21 226.778L1278.61 233.088L1279.02 239.396L1310.39 314.834L1341.77 390.272L1345.88 394.886C1351.08 400.702 1356.11 403.284 1363.39 403.869C1374.6 404.769 1384.3 399.523 1389.22 389.888C1393.63 381.271 1452.21 240.109 1453.1 235.963C1454.5 229.425 1453.53 225.747 1449.09 220.702C1444.01 214.926 1441.16 213.585 1434.02 213.603C1427.43 213.621 1422.15 215.952 1418.96 220.261C1417.96 221.608 1405.75 251.804 1391.82 287.362C1377.88 322.92 1366.2 352.31 1365.86 352.672C1365.51 353.034 1353.66 323.807 1339.52 287.724L1313.81 222.117L1310.9 219.121C1306.99 215.107 1303.03 213.586 1296.52 213.596L1291.09 213.606L1287.11 215.988ZM1573.01 246.941C1591.67 251.339 1605.43 266.795 1609.11 287.493L1609.66 290.543H1560.96H1512.27L1513.62 284.677C1518.07 265.358 1531.91 250.381 1548.66 246.775C1555.95 245.204 1565.94 245.273 1573.01 246.941ZM1979.46 251.133C2017.31 263.78 2033.11 308.403 2011.45 341.449C1993.39 369.001 1957.61 377.014 1929.17 359.875C1922.83 356.049 1912.31 345.235 1908.72 338.838C1907.28 336.278 1905 331.015 1903.65 327.143L1901.18 320.105L1901.18 308.374L1901.17 296.643L1903.65 289.759C1907.22 279.842 1911.45 273.2 1918.98 265.672C1926.59 258.073 1937.57 251.936 1947.55 249.701C1956.14 247.78 1971.49 248.469 1979.46 251.133ZM284.857 270.13C313.959 311.83 334.378 357.781 341.47 397.529L343.229 407.383V427.56V447.738L341.048 457.48C337.248 474.45 331.453 488.757 322.881 502.33C320.849 505.546 318.473 508.391 317.6 508.653C299.579 514.045 234.475 513.483 225.919 507.86C224.887 507.183 222.014 503.255 219.535 499.133C209.575 482.573 203.207 463.11 201.03 442.576C195.608 391.42 219.774 323.941 266.176 260.679L271.905 252.87L274.533 255.986C275.979 257.701 280.624 264.066 284.857 270.13ZM183.349 281.282C193.085 287.325 206.445 296.651 220.564 307.262L222.716 308.88L216.668 321.53C184.563 388.683 180.625 446.948 204.922 495.365C207.447 500.397 209.229 504.515 208.883 504.515C208.537 504.515 205.896 503.776 203.014 502.873L197.775 501.231L188.855 492.281C163.992 467.336 149.481 434.54 143.197 389.083C141.176 374.461 140.896 334.141 142.695 316.82C144.6 298.489 148.802 272.096 150.958 264.927L151.463 263.243L161.476 268.583C166.982 271.519 176.825 277.233 183.349 281.282ZM397.147 283.974C403.329 319.771 404.84 361.809 400.993 390.96C396.705 423.45 385.713 453.731 370.502 474.953C367.172 479.599 360.438 487.451 355.535 492.404L346.621 501.407L341.23 502.942C338.264 503.785 335.744 504.379 335.629 504.261C335.515 504.143 337.491 499.835 340.021 494.688C345.398 483.748 349.644 471.48 352.282 459.266C354.698 448.086 355.667 420.532 354.11 407.292C350.886 379.883 341.005 348.009 327.157 320.355C324.383 314.815 322.113 309.944 322.113 309.53C322.113 309.116 325.809 306.008 330.325 302.622C348.135 289.269 365.534 278.112 384.102 268.132L392.968 263.367L394.126 268.275C394.763 270.973 396.122 278.038 397.147 283.974ZM90.6052 311.738C102.813 313.75 117.49 316.864 127.861 319.643L131.158 320.526L130.369 332.516C129.937 339.11 129.819 352.107 130.11 361.398C131.339 400.659 138.112 431.179 151.771 458.999C156.871 469.386 160.187 474.693 171.019 489.805C174.197 494.239 137.299 472.864 128.629 465.249C123.779 460.988 113.733 445.538 105.706 429.996C88.0732 395.852 76.8687 359.06 69.3158 310.496L68.9883 308.394L72.8455 308.92C74.9664 309.21 82.9585 310.478 90.6052 311.738ZM475.085 310.194C475.085 314.377 470.072 340.89 466.646 354.829C457.648 391.437 443.48 425.554 426.49 451.532C418.567 463.645 415.742 466.403 402.665 474.802C393.424 480.736 372.791 491.865 372.791 490.914C372.791 490.568 374.22 488.525 375.968 486.373C389.29 469.966 402.872 439.739 408.298 414.422C413.354 390.831 415.557 361.659 414.18 336.528C413.714 328.012 413.464 320.905 413.624 320.737C415.258 319.016 450.634 311.877 474.381 308.474C474.769 308.419 475.085 309.192 475.085 310.194ZM74.7365 384.156C79.7404 399.463 83.9692 410.129 90.4259 423.726C96.5035 436.522 96.0136 436.637 86.1099 424.745C75.7163 412.264 55.5859 380.977 55.5859 377.304C55.5859 376.51 65.5666 373.722 70.1633 373.232C70.6954 373.176 72.7535 378.091 74.7365 384.156ZM482.609 375.069C485.439 375.661 488.12 376.487 488.569 376.905C489.656 377.923 481.081 393.328 471.8 407.026C464.989 417.079 449.701 436.178 448.984 435.529C448.822 435.384 450.558 431.525 452.84 426.954C458.386 415.85 465.654 397.682 469.987 384.094L473.522 373.004L475.493 373.499C476.577 373.771 479.779 374.477 482.609 375.069Z" fill="white"/>
</svg>
