<svg width="848" height="1415" viewBox="0 0 848 1415" fill="none" xmlns="http://www.w3.org/2000/svg">
<path fill-rule="evenodd" clip-rule="evenodd" d="M436.487 2.15756C436.375 3.34439 435.965 8.89778 435.577 14.4988C434.424 31.12 434.221 34.0135 433.184 48.502C433.007 50.9702 432.696 55.3198 432.493 58.1678C432.29 61.0158 431.979 65.3654 431.802 67.8337C431.412 73.2904 430.853 81.1284 430.423 87.1654C430.248 89.6337 429.943 93.867 429.745 96.5724C429.331 102.24 429.051 106.193 427.832 123.585C427.346 130.515 426.789 138.438 426.594 141.191C426.399 143.944 426.109 148.06 425.949 150.339C425.789 152.617 425.729 154.598 425.816 154.74C425.903 154.883 426.936 154.999 428.111 154.998C429.287 154.998 431.88 155.145 433.874 155.326C435.868 155.507 439.985 155.825 443.024 156.034C446.062 156.242 450.462 156.576 452.801 156.776C455.14 156.975 457.141 157.051 457.248 156.944C457.462 156.73 457.793 153.171 458.376 144.815C458.588 141.778 458.907 137.273 459.086 134.804C459.265 132.336 459.57 128.103 459.763 125.397C460.494 115.158 460.83 110.497 461.161 105.979C462.421 88.7644 463.311 75.3116 463.67 68.0567L464.085 59.6495L467.229 64.2594C471.703 70.8198 489.025 96.2476 504.821 119.443C512.255 130.36 519.042 140.302 519.902 141.536C520.762 142.77 523.525 146.809 526.041 150.511C533.695 161.772 534.694 162.455 544.705 163.258C554.376 164.034 560.585 164.436 560.724 164.296C560.929 164.087 561.447 157.506 562.827 137.566C563.483 128.073 564.185 118.053 564.386 115.3C564.946 107.627 565.364 101.824 565.766 96.1409C565.967 93.2929 566.278 88.9433 566.456 86.475C566.635 84.0068 566.945 79.6571 567.147 76.8091C567.349 73.9612 567.659 69.6115 567.837 67.1433C568.016 64.675 568.329 60.3254 568.534 57.4774C568.738 54.6294 569.048 50.3575 569.222 47.9841C571.157 21.5991 571.917 9.8219 571.699 9.62513C571.472 9.41974 546.358 7.59806 542.126 7.47966L540.065 7.42201L539.654 12.9454C539.428 15.9832 539.068 20.9542 538.854 23.9921C538.641 27.0299 538.314 31.5349 538.13 34.0031C537.945 36.4714 537.407 44.0833 536.934 50.9184C536.461 57.7536 535.917 65.5208 535.726 68.1789C535.534 70.837 535.22 75.2643 535.028 78.0174C534.837 80.7704 534.585 83.955 534.469 85.0942C534.353 86.2334 534.162 91.2582 534.043 96.2603L533.829 105.355L531.387 101.784C530.044 99.8194 523.139 89.6682 516.041 79.2256C508.943 68.783 502.351 59.1216 501.392 57.756C500.432 56.39 496.668 50.8753 493.027 45.501C476.484 21.0823 467.474 7.94673 465.917 5.9742C463.027 2.31429 461.302 1.64527 453.209 1.04564C450.266 0.827813 446.071 0.504696 443.887 0.328294C441.703 0.151547 439.19 0.00552335 438.304 0.0034521L436.691 0L436.487 2.15756ZM346.349 2.25318C346.159 2.32326 342.586 2.54558 338.408 2.74718C323.872 3.4483 317.676 3.78108 315.078 4.00029L312.465 4.22088L311.221 8.06513C309.093 14.6441 299.239 44.7913 297.496 50.0554C296.585 52.8084 293.428 62.4398 290.482 71.4584C287.535 80.477 282.765 95.0794 279.881 103.908C276.996 112.737 273.89 122.213 272.978 124.966C266.032 145.937 260.875 161.998 261.037 162.16C261.232 162.355 271.186 161.883 284.546 161.047L291.797 160.593L293.44 159.878C295.397 159.027 298.269 156.432 299.4 154.493C299.847 153.727 300.544 151.858 300.949 150.339C302.853 143.198 307.943 125.456 308.15 125.235C308.278 125.099 311.41 124.827 315.109 124.632C318.808 124.436 324.71 124.122 328.223 123.935C344.504 123.066 348.49 122.855 354.29 122.551C357.708 122.372 361.905 122.124 363.616 122.001L366.727 121.776L372.187 135.433C375.19 142.944 378.096 149.767 378.645 150.596C380.591 153.534 384.472 155.471 388.472 155.501C389.611 155.51 394.194 155.31 398.657 155.057C403.119 154.803 409.137 154.483 412.03 154.344C414.923 154.204 417.372 154.008 417.473 153.908C417.573 153.807 417.096 152.497 416.412 150.996C415.036 147.976 414.835 147.529 411.855 140.846C410.712 138.282 409.284 135.108 408.681 133.792C408.078 132.476 405.98 127.815 404.021 123.436C402.061 119.056 400.052 114.58 399.557 113.488C399.062 112.396 398.252 110.61 397.757 109.518C397.262 108.426 395.258 103.96 393.304 99.593C391.349 95.2261 389.36 90.7988 388.882 89.7545C388.405 88.7102 387.397 86.4578 386.643 84.749C385.889 83.0402 384.777 80.565 384.171 79.2487C383.566 77.9325 381.466 73.2721 379.507 68.8925C377.547 64.5128 375.538 60.0361 375.043 58.9445C374.548 57.853 373.738 56.0662 373.243 54.9746C372.748 53.8831 370.744 49.4168 368.79 45.0499C366.835 40.683 364.845 36.2556 364.368 35.2114C363.89 34.1671 362.353 30.7495 360.951 27.6168C359.55 24.484 356.402 17.4548 353.956 11.996L349.509 2.07126L348.101 2.09853C347.328 2.11337 346.539 2.18311 346.349 2.25318ZM609.508 16.829C609.399 17.5411 609.145 19.0166 608.944 20.1085C608.743 21.2004 608.423 22.9478 608.234 23.9921C608.044 25.0363 607.733 26.7451 607.543 27.7894C607.143 29.9877 607.311 29.067 603.916 47.6389C602.475 55.5183 601.148 62.7805 600.967 63.7775C600.786 64.7741 600.482 66.4442 600.292 67.4885C600.103 68.5327 599.792 70.2415 599.602 71.2858C599.412 72.33 599.101 74.0388 598.911 75.0831C598.374 78.0381 598.081 79.6406 595.286 94.9326C592.491 110.225 592.198 111.827 591.661 114.782C591.471 115.826 591.16 117.535 590.97 118.58C590.78 119.624 590.47 121.333 590.28 122.377C589.742 125.332 589.45 126.934 586.654 142.226C582.645 164.16 582.773 163.458 582.344 165.948C582.158 167.033 582.119 168.018 582.258 168.136C582.397 168.254 586.24 169.018 590.798 169.832C595.355 170.647 599.783 171.442 600.638 171.599C601.492 171.756 603.085 172.046 604.177 172.244C607.631 172.872 609.904 173.285 611.773 173.626C612.77 173.808 620.888 175.291 629.813 176.921C645.848 179.849 647.846 180.214 651.564 180.89C652.609 181.08 654.318 181.39 655.362 181.58C657.702 182.006 660.726 182.554 662.786 182.928C663.64 183.083 667.89 183.863 672.23 184.661C676.569 185.459 680.198 186.033 680.295 185.937C680.391 185.841 680.686 184.549 680.95 183.067C681.852 178.008 682.173 176.23 682.466 174.676C682.627 173.822 682.938 172.113 683.156 170.879C683.375 169.645 683.689 167.936 683.855 167.081C685.017 161.095 685.302 159.081 685.023 158.831C684.851 158.677 683.234 158.288 681.43 157.966C679.626 157.644 677.451 157.244 676.596 157.079C675.742 156.913 674.033 156.598 672.798 156.38C671.564 156.161 669.855 155.851 669 155.69C668.146 155.528 666.437 155.218 665.202 154.999C663.968 154.781 662.259 154.458 661.405 154.283C660.172 154.03 646.577 151.555 631.107 148.767C630.11 148.587 628.401 148.276 627.31 148.075C626.218 147.874 624.744 147.62 624.034 147.512L622.744 147.315L622.887 146.583C622.965 146.18 623.208 144.841 623.426 143.607C623.644 142.373 623.955 140.664 624.116 139.81C624.277 138.956 624.588 137.247 624.806 136.013C625.025 134.778 625.346 133.07 625.519 132.215C625.692 131.361 626.622 126.316 627.584 121.005C628.547 115.694 629.371 111.311 629.416 111.267C629.461 111.221 633.297 111.886 637.942 112.742C642.586 113.599 647.201 114.447 648.198 114.627C649.195 114.807 650.865 115.11 651.91 115.3C652.954 115.49 654.663 115.801 655.708 115.99C656.752 116.18 658.422 116.482 659.419 116.66C660.416 116.839 664.718 117.621 668.978 118.399C673.239 119.176 676.907 119.743 677.13 119.657C677.353 119.571 677.624 118.828 677.732 118.005C677.84 117.182 678.087 115.654 678.281 114.61C680.589 102.171 682.053 93.7147 681.921 93.5825C681.787 93.4482 675.118 92.1799 665.548 90.4684C663.651 90.1291 661.359 89.7148 657.779 89.0641C656.735 88.8742 654.987 88.5566 653.895 88.3585C652.803 88.1603 651.211 87.87 650.356 87.7136C649.502 87.5576 645.507 86.8285 641.479 86.0942L634.156 84.7586L634.312 84.0634C634.467 83.3685 639.294 56.7138 640.033 52.4719C640.248 51.2377 640.471 50.0551 640.527 49.8434C640.598 49.5794 641.153 49.5452 642.3 49.734C644.777 50.1424 674.446 55.5297 676.251 55.8991C677.106 56.0738 678.815 56.3959 680.049 56.6144C681.283 56.8329 682.992 57.1436 683.847 57.3048C684.701 57.466 686.333 57.7667 687.472 57.9735C688.612 58.1802 692.556 58.9007 696.238 59.5746C699.919 60.2484 703.042 60.6737 703.176 60.5194C703.31 60.3654 704.245 55.6564 705.252 50.0554C706.26 44.4544 707.215 39.1727 707.374 38.3183C707.533 37.4639 707.76 35.9853 707.879 35.0322L708.096 33.3L696.921 31.2863C690.775 30.1789 684.192 28.9783 682.293 28.6186C680.394 28.2585 677.908 27.7966 676.769 27.5919C675.63 27.3869 673.998 27.0876 673.144 26.9264C672.289 26.7651 670.658 26.4645 669.518 26.2577C668.379 26.0509 664.495 25.3449 660.887 24.6884C657.279 24.0318 653.006 23.2626 651.392 22.9789C649.778 22.6955 645.039 21.8286 640.861 21.0533C636.684 20.2776 632.45 19.4954 631.453 19.3148C630.456 19.1343 628.786 18.8312 627.741 18.6413C626.697 18.4515 625.027 18.1497 624.029 17.9706C623.032 17.7914 619.619 17.17 616.443 16.5897C613.267 16.0094 610.452 15.5344 610.187 15.5344C609.896 15.5344 609.627 16.046 609.508 16.829ZM176.651 19.9075C176.176 19.9828 173.884 20.3501 171.558 20.7236C158.573 22.8094 153.704 23.5826 148.857 24.3293C146.958 24.6221 144.983 24.9486 144.468 25.0553L143.532 25.2493L143.682 26.1741C143.765 26.6826 144.147 29.0794 144.532 31.5004C144.917 33.9213 145.542 37.8436 145.922 40.2169C146.302 42.5902 146.923 46.4738 147.303 48.8472C147.683 51.2205 148.3 55.0651 148.673 57.3911C149.047 59.7171 149.657 63.5617 150.029 65.935C151.342 74.3081 152.509 81.6897 153.182 85.8709C153.557 88.1969 154.174 92.0415 154.554 94.4148C154.933 96.7881 155.555 100.672 155.935 103.045C156.315 105.418 156.931 109.263 157.305 111.589C157.678 113.915 158.288 117.76 158.661 120.133C159.973 128.506 161.141 135.888 161.814 140.069C162.189 142.395 162.806 146.239 163.185 148.613C165.018 160.065 165.329 162.004 165.928 165.701C166.281 167.884 166.847 171.494 167.185 173.722C167.523 175.95 167.901 177.937 168.025 178.139C168.266 178.527 172.244 177.951 198.057 173.791C217.099 170.721 224.73 169.506 232.584 168.29C235.717 167.804 240.689 167.019 243.632 166.543C252.133 165.17 257.155 164.368 258.736 164.133C259.542 164.013 260.265 163.812 260.342 163.686C260.419 163.56 260.201 161.748 259.858 159.659C259.516 157.571 258.905 153.765 258.502 151.202C258.098 148.639 257.469 144.677 257.104 142.399C256.738 140.121 256.34 137.596 256.22 136.789C256.07 135.781 255.832 135.322 255.46 135.322C255.163 135.322 252.03 135.792 248.499 136.367C241.054 137.579 234.4 138.647 231.203 139.143C229.968 139.335 228.104 139.638 227.06 139.818C225.019 140.168 221.883 140.664 212.904 142.054C204.532 143.35 200.74 143.957 199.9 144.136L199.153 144.296L198.935 142.829C198.708 141.309 197.861 135.976 196.686 128.677C196.312 126.351 195.69 122.429 195.303 119.96C194.917 117.492 194.131 112.521 193.556 108.914C192.981 105.306 192.277 100.879 191.991 99.0752C191.705 97.2714 191.166 93.8929 190.793 91.5669C190.421 89.2408 189.805 85.3962 189.426 83.0229C189.046 80.6496 188.429 76.805 188.055 74.479C187.68 72.153 187.058 68.2307 186.672 65.7624C186.286 63.2942 185.499 58.3232 184.924 54.7157C184.349 51.1083 183.645 46.681 183.359 44.8773C183.073 43.0735 182.535 39.6946 182.162 37.3689C181.789 35.0433 181.167 31.1597 180.78 28.7387C180.393 26.3177 179.902 23.2889 179.689 22.0071L179.302 19.6769L178.408 19.7239C177.916 19.7498 177.125 19.8326 176.651 19.9075ZM346.87 71.9762C352.234 85.4566 356.693 96.7336 356.778 97.0357L356.932 97.5856L350.259 97.9798C346.589 98.1966 340.48 98.537 336.682 98.7358C332.884 98.935 327.189 99.2481 324.028 99.4318C320.866 99.6154 317.58 99.7656 316.727 99.7656H315.175L315.484 98.5573C315.654 97.8928 315.935 96.8444 316.108 96.2272C316.282 95.6099 316.659 94.2509 316.947 93.2066C317.482 91.26 321.733 76.0459 322.347 73.8749C322.535 73.2103 324.026 68.0063 325.659 62.3103C329.97 47.2854 330.49 45.4023 331.332 41.7704C331.75 39.9666 332.246 37.8757 332.435 37.1235L332.777 35.7561L334.947 41.6112C336.14 44.8317 341.505 58.4958 346.87 71.9762ZM728.451 39.095C728.28 39.7119 726.533 45.8442 724.571 52.7215C722.608 59.5991 721.071 65.2809 721.155 65.3475C721.24 65.4141 730.553 68.0812 741.852 71.2741C753.15 74.4672 762.513 77.1837 762.658 77.3111C762.841 77.4716 731.023 190.532 728.548 198.517L728.381 199.057L739.173 202.106C745.109 203.783 750.975 205.434 752.21 205.774C753.444 206.114 756.375 206.954 758.723 207.64C761.072 208.326 763.069 208.811 763.162 208.718C763.255 208.625 771.057 181.354 780.499 148.117C789.942 114.879 797.767 87.5859 797.888 87.4651C798.048 87.3052 836.677 98.0102 839.424 98.9757C839.646 99.0538 840.206 97.704 840.772 95.7263C841.628 92.7392 842.063 91.1823 843.411 86.3024C843.763 85.0244 844.238 83.3547 844.735 81.6421C846.343 76.106 847.497 71.9065 847.5 71.5837C847.502 71.368 847.076 71.109 846.554 71.0082C846.032 70.9074 845.06 70.6654 844.396 70.4711C843.731 70.2764 842.1 69.8097 840.77 69.4341C832.651 67.1391 823.31 64.5021 822.126 64.1707C821.366 63.9577 820.357 63.6643 819.882 63.5186C819.407 63.3729 818.319 63.0622 817.465 62.8282C816.61 62.5941 815.523 62.2834 815.048 62.1377C814.573 61.9921 813.563 61.7014 812.804 61.4918C810.083 60.7417 796.542 56.9175 794.85 56.4214C793.901 56.1432 792.502 55.7441 791.743 55.5346C790.983 55.325 789.973 55.034 789.498 54.8883C789.024 54.7427 788.014 54.4485 787.254 54.2348C786.495 54.0215 773.253 50.2753 757.828 45.9101C742.403 41.5446 729.553 37.9731 729.273 37.9731C728.993 37.9731 728.623 38.4774 728.451 39.095ZM69.9634 43.018C63.5125 43.7881 55.658 45.5197 40.6158 49.4872C38.8118 49.9629 35.1606 50.9164 32.502 51.6061C29.8435 52.2958 25.8816 53.3325 23.6978 53.91C18.467 55.2933 7.39255 58.1547 3.55353 59.1151L0.5 59.879L0.693004 60.9223C0.799001 61.4956 1.3428 63.6739 1.90109 65.7624C3.07914 70.1701 4.88108 77.0498 6.62502 83.7996C8.74151 91.9901 10.6059 99.1501 11.322 101.837C12.044 104.547 13.1392 108.75 15.2339 116.853C17.4336 125.362 19.2442 132.315 19.9537 134.977C20.7381 137.921 21.978 142.684 24.0416 150.684C24.8254 153.722 25.9154 157.916 26.464 160.005C27.0123 162.093 27.9352 165.627 28.5142 167.858C29.0936 170.089 30.041 173.74 30.6203 175.971C31.1994 178.201 32.1222 181.736 32.6705 183.824C33.2192 185.913 34.3102 190.107 35.0953 193.145C35.8805 196.183 36.9125 200.144 37.3886 201.948C37.8647 203.751 38.5297 206.315 38.8663 207.644L39.4781 210.06L40.1335 210.026C40.4936 210.007 42.9636 209.415 45.6222 208.709C51.2314 207.22 55.8624 206.01 63.576 204.019C73.5573 201.442 74.2147 201.264 74.3749 201.104C74.5341 200.945 73.9979 198.76 70.6436 185.895C69.6537 182.098 68.0976 176.117 67.1858 172.605C66.2739 169.092 64.955 164.044 64.2551 161.386C62.3658 154.21 61.6246 151.139 61.7506 151.013C61.8124 150.951 63.9579 150.358 66.5177 149.696C69.0775 149.034 72.3762 148.17 73.8477 147.776C75.3195 147.382 77.7278 146.742 79.1993 146.354C95.6033 142.028 106.859 136.135 115.721 127.235C121.937 120.992 125.887 113.901 127.759 105.624C128.039 104.384 128.441 101.432 128.652 99.0648L129.036 94.76L128.521 89.923C127.603 81.2934 125.759 74.7058 122.415 68.1009C119.84 63.0146 117.168 59.3612 113.257 55.5788C106.956 49.4837 99.7136 45.8242 89.9889 43.8213L86.3636 43.0746L78.7677 42.9741C74.59 42.9189 70.6281 42.9386 69.9634 43.018ZM77.0024 71.9548C80.4333 73.0419 82.5453 74.3361 85.1769 76.9635C88.8457 80.6268 90.7491 84.3537 92.0912 90.5015C92.9582 94.4742 93.0179 100.531 92.22 103.622C90.793 109.153 87.1439 113.508 81.5112 116.403C78.1521 118.129 75.1031 119.167 67.9046 121.036C65.3341 121.704 61.4723 122.706 59.323 123.263C57.1741 123.82 55.2123 124.275 54.9637 124.275C54.6813 124.275 54.2379 123.142 53.7822 121.255C53.381 119.594 52.4236 115.826 51.6547 112.884C50.8857 109.941 49.629 105.125 48.8618 102.182C48.0946 99.2391 47.1562 95.6662 46.7767 94.2422C46.3969 92.8182 45.3922 88.9346 44.5432 85.612C43.6945 82.2893 42.8366 79.0554 42.6366 78.4258C42.4367 77.7961 42.3276 77.2282 42.3939 77.164C42.5082 77.0539 54.5028 73.9008 60.4686 72.4126C61.9878 72.0339 64.0076 71.5954 64.9571 71.4384C67.5431 71.011 75.0368 71.332 77.0024 71.9548ZM289.208 263.076C269.003 263.876 253.598 265.273 232.239 268.24C217.826 270.241 202.401 273.131 186.318 276.842C175.442 279.351 156.84 284.419 156.284 285.025C155.994 285.34 107.252 431.302 107.252 431.854C107.252 432.039 111.331 430.105 116.315 427.557C131.385 419.853 143.249 414.545 159.56 408.208C174.925 402.238 196.141 395.773 214.975 391.32C221.286 389.829 237.017 386.784 243.46 385.808C257.56 383.67 267.76 382.545 283.511 381.388C291.267 380.818 323.667 380.819 331.33 381.39C342.235 382.202 349.514 382.865 354.894 383.538C364.044 384.683 363.893 384.661 373.97 386.306C418.609 393.595 463.114 409.054 501.374 430.562C503.083 431.523 505.025 432.614 505.689 432.986C510.579 435.727 520.314 441.829 527.354 446.567C548.365 460.708 564.142 473.693 582.017 491.558C603.844 513.373 620.986 535.263 636.813 561.534C639.083 565.304 641.409 569.242 641.981 570.286C642.553 571.331 643.841 573.661 644.843 575.464C646.848 579.072 653.808 592.874 655.549 596.695C656.155 598.024 657.006 599.888 657.44 600.837C666.465 620.571 675.248 646.756 680.192 668.671C684.67 688.526 686.996 704.3 688.743 726.666C689.34 734.304 689.348 767.298 688.756 774.823C687.297 793.327 685.972 803.965 683.163 819.7C680.945 832.132 676.161 851.734 672.463 863.542C669.709 872.335 667.681 878.408 665.891 883.219C661.221 895.77 659.44 900.188 655.101 909.973C645.868 930.793 634.727 950.971 621.612 970.626C616.289 978.603 604.903 994.323 601.784 998.001C601.382 998.476 598.589 1001.84 595.578 1005.47C565.983 1041.18 528.725 1072.92 487.563 1097.47C484.145 1099.51 481.037 1101.42 480.658 1101.7L479.967 1102.22L573.753 1102.24L667.538 1102.25L670.628 1098.89C672.327 1097.04 674.327 1094.82 675.071 1093.97C675.815 1093.11 676.503 1092.34 676.599 1092.24C677.164 1091.69 681.825 1086.28 684.927 1082.58C705.883 1057.57 724.57 1030.68 740.428 1002.71C742.35 999.319 743.923 996.49 743.923 996.425C743.923 996.359 744.411 995.483 745.008 994.478C746.366 992.189 756.761 971.635 758.676 967.45C759.458 965.741 760.734 962.969 761.512 961.289C762.289 959.609 763.863 956.036 765.008 953.349C766.154 950.662 767.304 947.997 767.563 947.428C768.389 945.613 772.771 934.483 774.632 929.477C775.619 926.819 776.716 923.867 777.068 922.918C779.289 916.937 781.947 909.025 784.315 901.342C785.105 898.779 785.889 896.294 786.057 895.819C786.225 895.344 786.98 892.781 787.733 890.123C794.665 865.677 799.652 842.025 802.981 817.802C808.623 776.742 808.911 731.472 803.785 691.11C802.768 683.107 802.702 682.623 801.569 675.057C801.398 673.918 801.014 671.588 800.715 669.879C800.416 668.17 799.954 665.53 799.688 664.011C798.767 658.745 797.385 651.898 795.994 645.715C795.226 642.297 794.466 638.879 794.306 638.12C794.146 637.361 793.632 635.263 793.163 633.46C792.694 631.656 791.83 628.333 791.243 626.075C789.889 620.867 787.847 613.527 787.439 612.402C787.267 611.927 786.635 609.908 786.035 607.914C784.461 602.685 780.077 589.633 778.24 584.7C777.373 582.373 776.232 579.305 775.705 577.881C774.701 575.168 769.852 563.169 768.8 560.793C762.061 545.583 754.987 530.902 749.588 520.921C742.398 507.63 733.087 492.234 724.744 479.841C713.99 463.868 702.979 449.444 690.089 434.446C684.513 427.959 684.34 427.767 677.04 419.948C650.763 391.799 622.088 367.683 588.899 345.821C575.741 337.154 565.386 330.979 550.401 322.864C542.567 318.621 529.836 312.423 516.738 306.475C512.095 304.367 498.777 298.867 494.296 297.207C492.871 296.679 490.386 295.752 488.771 295.146C486.224 294.189 475.753 290.492 471.681 289.111C456.867 284.088 431.723 277.304 416.093 274.113C415.333 273.958 412.77 273.433 410.396 272.945C372.453 265.153 328.041 261.537 289.208 263.076ZM306.126 553.24C293.825 553.829 278.58 555.723 265.902 558.236C260.982 559.212 259.517 559.533 254.077 560.831C245.128 562.966 233.906 566.338 226.024 569.259C224.41 569.857 222.312 570.623 221.363 570.961C214.932 573.248 200.971 579.459 193.223 583.478C172.237 594.366 155.212 605.946 136.772 621.875C130.532 627.265 116.421 641.301 111.243 647.268C109.184 649.641 107.087 652.049 106.583 652.619C99.742 660.359 87.7388 677.171 80.5576 689.072C66.0654 713.087 54.7196 741.261 48.3884 768.954C48.0846 770.284 47.6903 771.992 47.5121 772.752C47.113 774.451 46.197 779.03 45.7682 781.468C45.5928 782.465 45.2921 784.174 45.0998 785.266C44.0118 791.439 42.7288 801.789 41.9223 810.897C41.3226 817.67 41.3226 846.931 41.9223 853.703C42.7288 862.811 44.0118 873.161 45.0998 879.335C45.2921 880.427 45.5928 882.136 45.7682 883.133C46.197 885.571 47.113 890.15 47.5121 891.849C47.6903 892.609 48.0846 894.317 48.3884 895.646C57.6664 936.229 76.2894 974.449 102.887 1007.49C104.415 1009.39 105.752 1011.02 105.857 1011.12C105.962 1011.21 106.896 1012.3 107.933 1013.54C114.149 1020.94 127.862 1034.92 135.391 1041.53C159.71 1062.89 184.403 1078.3 214.63 1090.99C223.775 1094.82 238.953 1099.91 249.292 1102.59C258.773 1105.05 272.128 1107.75 280.058 1108.81C296.763 1111.04 304.597 1111.57 320.627 1111.57C336.656 1111.57 344.491 1111.04 361.196 1108.81C371.162 1107.48 391.516 1103.1 398.787 1100.71C399.57 1100.46 401.842 1099.75 403.836 1099.14C408.572 1097.7 416.702 1094.9 420.446 1093.42C422.08 1092.77 423.514 1092.24 423.631 1092.24C423.748 1092.24 424.862 1091.78 426.106 1091.21C427.35 1090.64 428.446 1090.17 428.542 1090.17C428.638 1090.17 431.392 1088.98 434.662 1087.53C460.596 1075.99 485.225 1059.95 507.395 1040.15C511.212 1036.74 523.409 1024.65 526.94 1020.77C555.831 989.064 577.1 951.389 588.71 911.353C596.434 884.717 599.922 860.185 599.94 832.351C599.95 817.192 599.318 808.106 597.141 792.083C593.902 768.243 585.579 739.277 576.079 718.779C575.344 717.193 574.743 715.846 574.743 715.785C574.743 715.228 568.296 702.548 564.742 696.115C560.985 689.314 553.639 677.617 549.782 672.296C544.703 665.286 543.23 663.315 540.243 659.523C527.955 643.925 512.398 628.137 496.713 615.349C453.607 580.206 402.667 559.458 346.176 554.035L338.753 553.322L323.734 553.219C315.474 553.162 307.55 553.172 306.126 553.24ZM337.717 674.65C351.205 676.205 363.686 679.168 376.003 683.741C378.261 684.579 380.946 685.648 381.97 686.116C382.993 686.584 383.916 686.967 384.019 686.967C384.123 686.967 386.565 688.115 389.447 689.518C423.466 706.077 450.452 734.008 465.743 768.486C469.991 778.066 473.678 789.527 475.776 799.678C476.986 805.533 477.603 809.543 478.484 817.284C479.057 822.317 479.057 842.284 478.484 847.317C477.187 858.713 475.702 866.581 473.175 875.452C468.488 891.905 461.142 907.568 451.561 921.537C427.867 956.083 391.841 979.837 350.838 987.951C340.621 989.973 333.652 990.579 320.627 990.579C308.119 990.579 305.428 990.382 294.473 988.659C284.502 987.091 268.241 982.486 261.068 979.198C260.499 978.937 259.205 978.398 258.193 978C251.965 975.553 240.165 969.129 232.584 964.059C201.636 943.364 178.478 911.775 168.384 876.487C163.985 861.108 162.158 848.14 162.158 832.3C162.158 816.461 163.985 803.493 168.384 788.114C175.74 762.398 190.083 738.391 209.407 719.452C226.87 702.338 247.523 689.592 269.892 682.128C281.918 678.115 293.974 675.522 305.09 674.559C307.463 674.353 309.949 674.125 310.614 674.052C313.571 673.727 333.525 674.167 337.717 674.65ZM82.5802 1214.51C82.0212 1216.97 80.4972 1223.45 79.6309 1227.05C78.2288 1232.87 77.1529 1237.4 75.3313 1245.17C74.4629 1248.87 73.4517 1253.15 73.0839 1254.66C72.7162 1256.18 72.0271 1259.06 71.5524 1261.05C71.078 1263.04 70.1513 1266.93 69.4932 1269.68C68.8351 1272.43 67.8943 1276.4 67.4026 1278.48C65.419 1286.91 63.7003 1294.17 63.0522 1296.87C62.6756 1298.43 62.0596 1301 61.6829 1302.56C61.0348 1305.26 59.3161 1312.52 57.3326 1320.94C56.8409 1323.03 55.9173 1326.92 55.2806 1329.57C51.4827 1345.42 48.1177 1359.6 47.8236 1360.99C47.6627 1361.75 47.3927 1362.94 47.2235 1363.64L46.9159 1364.9L50.5847 1365.78C52.6028 1366.27 56.2736 1367.14 58.7423 1367.73C67.2952 1369.76 70.5045 1370.53 75.3151 1371.67C77.9736 1372.31 80.648 1372.93 81.2581 1373.06L82.3675 1373.29L82.5556 1372.49C82.6592 1372.05 83.5997 1368.04 84.6459 1363.58C85.692 1359.12 86.8483 1354.22 87.2154 1352.7C87.582 1351.19 88.2701 1348.31 88.7442 1346.32C89.2182 1344.32 90.0717 1340.75 90.6407 1338.38C91.2097 1336 92.1337 1332.12 92.6937 1329.75C93.2534 1327.37 94.2892 1323 94.9945 1320.04L96.2775 1314.64L96.8448 1314.77C98.9986 1315.26 105.686 1316.83 109.151 1317.66C111.43 1318.21 114.615 1318.98 116.229 1319.36C117.843 1319.74 123.437 1321.07 128.659 1322.32C133.881 1323.56 139.474 1324.89 141.088 1325.26C142.702 1325.63 144.843 1326.14 145.845 1326.41C146.847 1326.67 147.727 1326.79 147.8 1326.67C147.934 1326.46 149.088 1321.75 151.112 1313.18C151.717 1310.61 152.661 1306.67 153.21 1304.41C153.759 1302.15 154.208 1300.13 154.208 1299.91C154.208 1299.7 153.315 1299.32 152.223 1299.07C151.131 1298.83 147.674 1298.02 144.541 1297.27C141.408 1296.53 137.135 1295.52 135.046 1295.03C131.245 1294.13 125.646 1292.8 119.164 1291.25C117.265 1290.8 113.381 1289.88 110.532 1289.2C102.837 1287.38 102.704 1287.34 102.891 1286.66C102.981 1286.34 103.29 1285.07 103.579 1283.83C103.869 1282.6 104.572 1279.65 105.142 1277.28C106.717 1270.72 107.748 1266.36 109.476 1258.98C111.668 1249.61 111.774 1249.25 112.269 1249.44C112.504 1249.53 113.764 1249.86 115.067 1250.17C116.371 1250.48 118.681 1251.03 120.2 1251.4C122.787 1252.02 129.713 1253.66 138.499 1255.73C140.588 1256.22 144.55 1257.16 147.303 1257.82C159.844 1260.83 162.223 1261.39 165.947 1262.26C168.131 1262.78 170.734 1263.4 171.731 1263.64C172.727 1263.89 173.615 1263.98 173.703 1263.83C173.791 1263.69 174.178 1262.19 174.563 1260.5C174.949 1258.81 175.966 1254.47 176.826 1250.87C177.685 1247.26 178.694 1242.99 179.068 1241.37C179.443 1239.76 179.845 1238.1 179.962 1237.68L180.176 1236.92L179.363 1236.73C178.195 1236.47 170.174 1234.57 166.12 1233.6C164.221 1233.15 160.415 1232.24 157.661 1231.58C150.651 1229.91 144.434 1228.44 139.189 1227.2C134.506 1226.1 130.738 1225.21 123.48 1223.46C116.401 1221.76 112.237 1220.77 106.039 1219.32C96.155 1217 84.3124 1214.17 83.3539 1213.89C82.9423 1213.77 82.7058 1213.96 82.5802 1214.51ZM710.087 1217.06C698.26 1218.34 687.722 1221.5 679.768 1226.15C667.377 1233.38 659.017 1244.57 655.976 1257.98C655.562 1259.8 655.392 1262.21 655.38 1266.4L655.362 1272.27L655.989 1275.18C657.561 1282.47 660.763 1290.03 664.246 1294.68C670.271 1302.72 677.689 1307.27 688.471 1309.53C694.605 1310.81 705.4 1311.8 713.363 1311.8C717.081 1311.8 724.289 1312.61 727.178 1313.35C730.207 1314.12 734.158 1316.17 735.796 1317.81C739.958 1321.97 741.315 1330.84 738.664 1336.55C735.492 1343.39 724.368 1348.13 712.767 1347.6C707.052 1347.33 703.48 1346.53 693.026 1343.18C690.277 1342.29 686.484 1342.3 684.399 1343.2C683.532 1343.57 682.154 1344.54 681.338 1345.36L679.853 1346.84L676.498 1356.94C674.653 1362.49 673.144 1367.25 673.144 1367.51C673.144 1368.6 682.338 1372.54 688.681 1374.16C696.847 1376.26 701.389 1376.81 710.605 1376.81C720.994 1376.81 727.641 1375.75 736.629 1372.68C753.395 1366.95 765.898 1354.88 770.623 1339.89C772.298 1334.57 772.734 1331.44 772.733 1324.74L772.732 1318.53L771.918 1314.56C769.849 1304.45 766.534 1297.77 760.688 1291.93C751.815 1283.06 740.699 1279.75 715.439 1278.47C706.957 1278.04 699.626 1276.82 696.276 1275.29C690.559 1272.67 688.062 1268.42 688.405 1261.87L688.553 1259.05L689.639 1256.85C692.106 1251.88 696.677 1248.85 704.794 1246.83L707.843 1246.06L712.677 1246.06C717.915 1246.06 720.94 1246.53 727.523 1248.34C729.99 1249.03 732.168 1249.4 733.738 1249.42L736.155 1249.44L737.813 1248.64C739.542 1247.81 740.609 1246.64 741.771 1244.31C742.385 1243.08 747.031 1225.29 747.031 1224.17C747.031 1223.67 742.479 1221.45 739.254 1220.37C736.156 1219.33 732.011 1218.3 728.539 1217.7C725.619 1217.2 712.878 1216.76 710.087 1217.06ZM571.463 1245.91C567.899 1246.16 556.787 1247.57 550.056 1248.62C548.917 1248.8 545.654 1249.26 542.806 1249.65C539.957 1250.04 534.364 1250.81 530.376 1251.36C526.388 1251.91 518.886 1252.95 513.705 1253.66L504.284 1254.96L504.47 1256.36C504.856 1259.28 506.723 1272.71 507.043 1274.86C507.226 1276.09 507.548 1278.42 507.758 1280.04C507.968 1281.65 508.284 1283.9 508.46 1285.04C508.636 1286.18 509.246 1290.53 509.816 1294.71C513.36 1320.69 514.819 1331.21 515.706 1337.17C515.876 1338.31 516.185 1340.56 516.393 1342.18C516.601 1343.79 516.915 1346.04 517.091 1347.18C517.267 1348.32 517.878 1352.67 518.447 1356.85C521.806 1381.47 523.077 1390.66 523.626 1394.3C523.812 1395.54 524.299 1399.11 524.709 1402.24C525.119 1405.37 525.507 1408.13 525.571 1408.36C525.642 1408.62 526.07 1408.73 526.651 1408.64C527.181 1408.55 528.857 1408.32 530.376 1408.12C531.895 1407.92 537.1 1407.21 541.942 1406.54C546.785 1405.88 554.087 1404.87 558.17 1404.31C562.253 1403.75 566.681 1403.13 568.01 1402.94C569.339 1402.74 572.68 1402.27 575.433 1401.89C578.187 1401.51 581.683 1401.03 583.202 1400.82C601.055 1398.35 614.546 1393.2 626.256 1384.38C648.364 1367.73 658.664 1341.29 654.47 1311.97C652.155 1295.77 645.974 1282.14 635.48 1270.07C629.626 1263.34 619.828 1256.27 611.01 1252.42C602.584 1248.74 593.56 1246.61 583.374 1245.88C577.845 1245.49 577.413 1245.49 571.463 1245.91ZM241.733 1246.06C222.227 1247.92 205.728 1255.4 193.039 1268.15C184.81 1276.41 178.777 1286.25 174.641 1298.16C173.19 1302.34 171.618 1309.27 170.723 1315.42C170.126 1319.53 170.131 1334.2 170.731 1337.69C172.509 1348.02 174.621 1354.75 178.463 1362.32C183.313 1371.87 189.529 1379.62 197.539 1386.11C210.29 1396.43 223.336 1401.71 242.597 1404.35C246.585 1404.9 259.618 1404.9 263.485 1404.35C290.382 1400.56 310.805 1386.33 322.492 1363.26C328.642 1351.11 331.408 1339.12 331.457 1324.4C331.483 1316.7 331.256 1314.26 329.891 1307.51C327.023 1293.35 320.483 1280.8 310.635 1270.58C297.992 1257.47 281.596 1249.48 261.591 1246.7C258.126 1246.22 244.641 1245.78 241.733 1246.06ZM408.324 1255.9C385.881 1258.82 368.177 1268.23 355.194 1284.14C344.495 1297.26 338.268 1315.68 338.242 1334.31C338.216 1352.93 343.606 1369.7 354.2 1383.95C357.204 1387.99 364.722 1395.49 368.556 1398.27C378.263 1405.32 388.418 1409.82 400.041 1412.24C412.529 1414.83 428.526 1414.57 440.94 1411.57C461.622 1406.56 479.317 1393.39 489.191 1375.66C495.496 1364.34 498.397 1354.35 499.508 1340.11L499.898 1335.12L499.487 1329.58C498.549 1316.95 496.179 1307.78 491.332 1298C486.459 1288.18 480.946 1280.99 473.201 1274.36C461.306 1264.19 447.153 1258.07 430.779 1256.03C426.406 1255.48 412.168 1255.4 408.324 1255.9ZM582.339 1274.33C598.212 1277.01 609.457 1287.63 615.153 1305.3C617.461 1312.46 618.415 1319.16 618.415 1328.19C618.415 1336.8 617.712 1341.18 615.296 1347.6C610.491 1360.37 599.601 1369.33 585.446 1372.17C583.636 1372.54 563.955 1375.36 559.837 1375.85L557.878 1376.08L557.664 1374.4C557.546 1373.48 557.305 1371.79 557.128 1370.65C556.951 1369.52 556.341 1365.17 555.772 1360.99C553.143 1341.67 550.562 1323.09 549.876 1318.53C549.704 1317.39 549.247 1314.13 548.86 1311.28C547.788 1303.4 546.613 1294.86 545.378 1285.98C544.763 1281.57 544.341 1277.87 544.439 1277.77C544.538 1277.67 547.318 1277.21 550.617 1276.75C553.917 1276.28 557.782 1275.73 559.206 1275.52C560.63 1275.32 563.737 1274.87 566.111 1274.52C571.422 1273.75 578.431 1273.67 582.339 1274.33ZM257.221 1276.41C261.708 1277.04 263.072 1277.34 266.806 1278.51C275.243 1281.14 282.596 1286.56 287.265 1293.6C290.469 1298.43 292.394 1303.35 293.776 1310.24L294.537 1314.04L294.531 1321.29C294.52 1333.85 292.241 1344.07 287.412 1353.22C281.496 1364.43 273.26 1370.91 261.207 1373.83L258.651 1374.45L251.746 1374.45C244.761 1374.45 242.782 1374.23 237.418 1372.84C229.997 1370.93 224.089 1367.65 219.013 1362.64C213.381 1357.07 210.154 1350.75 208.023 1341.09L207.235 1337.51L207.221 1329.75C207.205 1321.29 207.509 1318.45 209.175 1311.45C215.219 1286.06 233.095 1273.03 257.221 1276.41ZM423.911 1285.57C431.982 1286.36 438.562 1288.6 444.232 1292.47C452.596 1298.19 458.656 1308.19 461.14 1320.38C463.41 1331.52 462.769 1346.02 459.583 1355.6C454.537 1370.79 444.628 1379.82 429.386 1383.13L426.451 1383.77L418.855 1383.76L411.259 1383.75L408.497 1383.13C395.97 1380.36 386.848 1373.46 381.391 1362.63C375.688 1351.31 373.845 1335.09 376.618 1320.6C378.787 1309.27 384.096 1299.83 391.548 1294.05C397.731 1289.25 404.09 1286.76 412.813 1285.73C417.527 1285.17 419.567 1285.14 423.911 1285.57Z" fill="white"/>
</svg>
