<svg width="3022" height="397" viewBox="0 0 3022 397" fill="none" xmlns="http://www.w3.org/2000/svg">
<path fill-rule="evenodd" clip-rule="evenodd" d="M567.686 1.90115C519.085 7.36528 476.89 26.9825 444.907 58.9831C417.761 86.1439 401.507 117.227 392.549 159.112L389.723 172.329L389.694 197.503C389.655 231.24 393.494 251.342 405.438 279.94C429.274 337.008 482.981 379.581 546.641 391.866C565.236 395.455 592.047 397.377 609.853 396.399C646.961 394.361 672.806 388.25 700.576 374.944C760.699 346.139 799.261 293.559 809.482 226.454C811.857 210.855 811.287 181.166 808.282 164.12C801.067 123.186 783.608 89.1472 755.314 60.8536C721.231 26.7698 677.531 6.97761 625.053 1.85459C609.323 0.318944 581.553 0.341586 567.686 1.90115ZM979.289 1.92508C919.575 8.79017 876.353 33.9144 856.624 73.2282C850.699 85.0325 848.29 94.415 847.484 108.816L846.812 120.828L849.499 131.473C859.125 169.599 883.85 192.711 951.736 227.043C1011.14 257.085 1029.71 268.424 1045.45 284.259C1056.48 295.349 1062.25 305.132 1063.31 314.508C1064.2 322.414 1062.99 325.904 1057.17 332.215C1047.68 342.512 1033.1 345.189 1009.2 341.02C973.806 334.848 926.05 307.521 889.724 272.654L877.361 260.788L874.515 261.55C872.579 262.066 863.003 274.595 844.605 300.68C829.721 321.783 817.377 340.086 817.173 341.352C816.669 344.485 819.173 346.457 834.413 354.932C872.168 375.925 915.046 390.437 951.597 394.595C968.465 396.513 1014.11 395.382 1032.16 392.597C1081.55 384.978 1115.04 368.082 1138.25 339.062C1154.34 318.959 1161.8 299.813 1161.8 278.666C1161.8 258.18 1155.67 241.51 1141.78 224.272C1123.95 202.141 1097.68 184.083 1037.82 152.822C969.255 117.017 952.461 105.356 944.541 88.0559C936.09 69.598 944.308 50.8203 962.488 47.0454C978.314 43.7601 1003.13 49.1827 1021.46 59.9347C1042.85 72.4805 1063.44 93.1689 1079.14 117.889L1083.73 125.127H1087.25H1090.77L1118.42 85.9023C1133.63 64.3277 1146.57 45.837 1147.18 44.8086C1148.83 42.0357 1144.73 39.2501 1124.67 29.5038C1092.55 13.8956 1066.37 5.76923 1037.2 2.35431C1020.25 0.369298 994.477 0.179226 979.289 1.92508ZM1894.38 1.83823C1844.32 8.0664 1807.41 25.7528 1784.61 54.4416C1770.17 72.6189 1763.3 91.2103 1763.26 112.291C1763.23 127.416 1765.6 137.122 1773.16 152.819L1778.93 164.777L1791.71 177.47C1808.57 194.203 1827.66 206.735 1865.36 225.827C1881.67 234.085 1902.38 244.867 1911.38 249.787C1954.18 273.191 1974.58 292.168 1978.81 312.501L1980.21 319.247L1978.11 324.761C1975.35 331.983 1967.46 338.654 1958.64 341.219L1951.71 343.233L1938.46 342.481C1916.9 341.256 1894.84 334.036 1870.18 320.132C1843.79 305.26 1826.89 292.853 1807.22 273.914C1797.08 264.152 1793 260.994 1790.92 261.296C1787.1 261.851 1732 339.439 1732.92 342.968C1734.19 347.822 1777.23 369.802 1805.01 379.781C1836.39 391.054 1863.54 395.754 1897.28 395.752C1942.39 395.749 1977.53 389.311 2007.2 375.609C2033.37 363.521 2056.12 341.528 2069.04 315.824C2074.51 304.941 2076.88 295.981 2077.7 283.097C2079.38 256.394 2069.13 234.003 2044.52 210.662C2025.98 193.07 2000.08 176.816 1945.36 148.428C1921.47 136.032 1891.68 119.272 1883.05 113.378C1874.26 107.365 1864.78 97.2698 1860.89 89.7766L1857.35 82.9594L1857.3 74.0551L1857.25 65.1509L1861.04 59.0196C1863.73 54.6569 1866.63 51.9594 1871.08 49.6723L1877.33 46.4563L1889.95 46.5167C1905.83 46.5922 1915.31 49.0153 1931.52 57.1492C1954.07 68.4664 1976.19 89.224 1992.29 114.171L1999.43 125.244L2003.2 124.87L2006.96 124.497L2034.96 84.8474C2050.35 63.04 2062.97 44.246 2063 43.0816C2063.04 41.6077 2057.7 38.2481 2045.39 32.0049C2015.79 16.9883 1989.97 8.02486 1963.61 3.62183C1949.35 1.23906 1907.8 0.167897 1894.38 1.83823ZM2288.36 1.90115C2239.55 7.38919 2197.69 26.8441 2165.56 58.968C2137.55 86.9797 2121.17 118.899 2112.55 162.259L2110.3 173.588L2110.35 199.392L2110.4 225.195L2113.23 238.412C2126.97 302.548 2162.16 348.393 2218.61 375.703C2252.23 391.968 2293.53 399.008 2337.05 395.895C2389.05 392.177 2432.05 375.485 2466.9 345.489C2510.57 307.906 2535.78 245.03 2531.3 184.892C2529.62 162.45 2525.34 143.622 2517.31 123.347C2507.49 98.5726 2495.27 80.1977 2475.34 60.2192C2448.2 33.0194 2411.29 13.5733 2371.78 5.66096C2347.55 0.807314 2312.25 -0.783716 2288.36 1.90115ZM2.83213 11.227C1.27383 12.336 0 14.034 0 15.0007C0 15.9674 3.39856 25.5451 7.55236 36.2845L15.1047 55.8099V198.475V341.14L7.55236 359.879C3.39856 370.186 0 379.904 0 381.476C0 383.05 1.09508 384.922 2.43436 385.639C5.78384 387.431 128.9 387.431 132.249 385.639C133.589 384.922 134.684 383.05 134.684 381.476C134.684 379.904 131.285 370.186 127.131 359.879L119.579 341.14V313.693V286.244L134.998 286.275L150.418 286.305L183.278 336.31L216.138 386.312L277.331 386.638L338.523 386.966L340.538 383.892L342.552 380.817L341.088 378.08C340.283 376.575 332.675 365.634 324.181 353.766C309.508 333.261 269.982 272.539 270.848 271.831C271.072 271.649 276.05 269.026 281.909 266.003C343.247 234.367 371.633 166.585 349.489 104.63C339.507 76.7035 323.06 55.9307 296.818 38.1097C279.77 26.5332 257.562 18.1702 229.718 12.8395L215.872 10.1886L110.768 9.70023L5.66427 9.21185L2.83213 11.227ZM1448.29 12.156C1446.86 14.3751 1425.6 74.6014 1399.83 149.428L1397.74 155.477L1367.64 109.778C1351.09 84.6435 1335.07 60.33 1332.05 55.7495L1326.55 47.4205L1332.29 33.1478C1338.29 18.213 1339.02 14.5954 1336.52 12.0931L1335.01 10.5826H1257.89H1180.77L1179.37 13.1982C1178.6 14.6369 1178.29 16.6459 1178.68 17.6629C1179.07 18.6787 1210.84 65.633 1249.27 122.006L1319.15 224.501V283.451V342.399L1311.59 361.138C1307.44 371.444 1304.04 380.529 1304.04 381.325C1304.04 382.123 1305.08 383.713 1306.34 384.859L1308.64 386.942H1372.23H1435.82L1437.9 384.64C1439.05 383.373 1439.98 381.785 1439.98 381.108C1439.98 380.43 1436.58 371.444 1432.43 361.138L1424.88 342.399V284.653V226.906L1494.76 122.564C1533.2 65.1748 1564.96 17.3961 1565.35 16.3866C1565.73 15.3783 1564.87 13.377 1563.44 11.9382L1560.82 9.32386H1505.47H1450.11L1448.29 12.156ZM2561.07 11.6261C2559.93 12.8924 2558.99 14.5828 2558.99 15.3846C2558.99 16.1864 2562.39 25.3537 2566.54 35.7571L2574.1 54.6733V198.133V341.592L2566.54 360.509C2562.39 370.912 2558.99 380.225 2558.99 381.205C2558.99 382.185 2559.88 383.876 2560.97 384.964L2562.95 386.942H2627.02H2691.1L2693.07 383.928L2695.05 380.915L2686.81 360.365L2678.57 339.815V198.133V56.4506L2686.73 36.0894C2691.22 24.8905 2694.56 14.8383 2694.14 13.7495C2693.72 12.662 2692.35 11.2207 2691.09 10.5473C2689.7 9.80216 2664.26 9.32386 2625.98 9.32386H2563.16L2561.07 11.6261ZM2729.74 11.6261C2728.6 12.8924 2727.66 14.7641 2727.66 15.7874C2727.66 16.8108 2731.06 26.08 2735.21 36.3865L2742.76 55.1251V198.762V342.399L2735.21 361.138C2727.27 380.85 2726.73 382.996 2729.17 385.431L2730.68 386.942H2875.21H3019.75L3021.02 383.595C3021.82 381.499 3022.16 363.376 3021.93 335.087L3021.57 289.927L3019.68 288.733C3018.65 288.078 3016.49 287.533 3014.89 287.521C3013.29 287.511 2975.31 295.432 2930.49 305.125C2885.68 314.817 2848.61 322.747 2848.12 322.747C2847.64 322.747 2847.24 262.83 2847.24 189.599V56.4506L2855.4 36.0894C2859.89 24.8905 2863.22 14.8383 2862.81 13.7495C2862.39 12.662 2861.02 11.2207 2859.76 10.5473C2858.37 9.80216 2832.93 9.32386 2794.65 9.32386H2731.83L2729.74 11.6261ZM597.536 54.059C615.244 60.004 632.747 71.9921 650.206 90.1328C699.141 140.979 721.264 227.508 700.691 287.592C687.033 327.486 662.127 348.372 628.104 348.463C608.767 348.514 595.3 343.95 575.443 330.615C540.082 306.864 511.254 262.491 498.686 212.465C493.267 190.893 491.725 176.1 492.493 153.065L493.153 133.308L496.318 121.201C504.399 90.3091 520.531 67.6054 541.882 57.0787C547.42 54.3485 555.067 51.5781 558.875 50.9223C569.849 49.0329 586.617 50.3936 597.536 54.059ZM2318.31 54.0917C2335.76 59.9486 2354.06 72.5333 2371.2 90.4639C2414.96 136.243 2438.45 214.776 2425.64 272.532C2419.14 301.834 2404.74 325.636 2386.27 337.586C2345.32 364.083 2291.38 342.74 2250.91 284.031C2214.9 231.791 2202.46 156.133 2221.7 106.343C2230.86 82.627 2244.83 65.7626 2262.5 57.0887C2268.07 54.3523 2275.75 51.5781 2279.55 50.9223C2290.57 49.0254 2307.29 50.3936 2318.31 54.0917ZM193.214 76.6003C218.964 83.9462 238.772 102.228 246.095 125.409L249.228 135.326V147.585C249.228 170.024 242.515 186.104 227.162 200.441C216.394 210.499 206.475 216.092 192.98 219.719L183.145 222.362L151.362 222.985L119.579 223.609V148.442V73.2747L152.621 73.86L185.662 74.4453L193.214 76.6003Z" fill="white"/>
</svg>
