<svg width="32" height="32" viewBox="0 0 32 32" fill="none" xmlns="http://www.w3.org/2000/svg">
<rect width="32" height="32" rx="8" fill="#342B19"/>
<path d="M24.2339 14.0973C24.058 14.2905 23.9199 14.4884 23.8537 14.6864C23.7005 15.1447 23.8357 15.7414 24.2698 15.9403C24.5838 16.0835 24.9678 15.9788 25.2316 15.7539C25.4946 15.5281 25.6553 15.2033 25.7698 14.8728C26.5018 12.7636 25.3943 10.3614 23.7723 9.01132C23.6343 8.89601 23.4905 8.78839 23.342 8.68749C22.5939 8.18014 21.7513 7.88995 20.9105 7.83999C19.7141 6.37846 17.5918 5.80193 15.7816 6.05945C15.6048 6.08443 15.4289 6.11806 15.2558 6.1613C14.3469 6.38423 13.5393 6.84162 12.9236 7.47196C11.1238 7.46043 9.35901 8.61735 8.35084 10.0856C8.2487 10.2345 8.15318 10.3883 8.06617 10.5459C7.49588 11.5779 7.29348 12.7415 7.49588 13.8235C7.66611 14.7296 8.16452 15.5896 8.86438 16.1834C9.54438 16.76 10.3539 17.0396 11.1711 16.9877C11.2723 18.2157 11.7962 19.4226 12.7713 20.4133C13.6187 21.2743 14.6278 21.7883 15.671 21.9757C15.5982 22.5916 15.3107 23.1759 14.8368 23.6563C14.4321 24.0666 13.9185 24.3741 13.369 24.5442C13.3406 24.4567 13.3151 24.3674 13.2934 24.2732C13.2574 24.1147 13.2328 23.9523 13.2224 23.7899C13.2054 23.5276 13.1591 23.2893 13.0635 23.1048C12.8413 22.6762 12.323 22.3649 11.8823 22.5484C11.5636 22.681 11.3744 23.0365 11.3536 23.3853C11.3328 23.7342 11.4558 24.0762 11.6118 24.3885C11.6572 24.4798 11.7073 24.5672 11.7593 24.6537C11.103 24.5548 10.4485 24.2944 9.8754 23.8946C8.38394 22.853 7.31524 21.0004 8.47284 19.2718C8.56269 19.1372 8.66388 19.0094 8.77454 18.8912C8.95234 18.701 9.0942 18.504 9.1623 18.308C9.32213 17.8516 9.19445 17.2529 8.76319 17.0482C8.45109 16.9003 8.06522 17.0002 7.79946 17.2212C7.53276 17.4432 7.3682 17.766 7.24998 18.0947C6.48865 20.1933 7.56302 22.6109 9.16703 23.984C9.30321 24.1012 9.44508 24.2108 9.59262 24.3136C10.3757 24.8603 11.2675 25.1678 12.1547 25.2043C13.3463 26.6053 15.4024 27.178 17.1719 26.9522C17.3488 26.9291 17.5247 26.8984 17.6996 26.858C18.6161 26.6466 19.4342 26.1979 20.0593 25.5714C21.9224 25.6396 23.7572 24.4289 24.7786 22.8963C24.8789 22.7464 24.9716 22.5907 25.0567 22.4321C25.6128 21.3915 25.7991 20.225 25.5816 19.1468C25.399 18.2436 24.8883 17.3903 24.1809 16.8071C23.5681 16.3026 22.8559 16.0345 22.1296 16.0268C22.0425 14.7767 21.5177 13.5439 20.5256 12.5359C19.5959 11.5913 18.4714 11.0647 17.3213 10.9283C17.4178 10.3787 17.6855 9.85787 18.1063 9.41874C18.5243 8.98249 19.0634 8.65771 19.6403 8.48475C19.6602 8.54913 19.6791 8.61543 19.6961 8.68365C19.7349 8.8422 19.7604 9.00363 19.7737 9.16602C19.7945 9.42834 19.8437 9.66569 19.942 9.84922C20.17 10.2749 20.693 10.5785 21.1308 10.3892C21.4477 10.2528 21.6321 9.89438 21.6482 9.54461C21.6633 9.19485 21.5366 8.85469 21.3758 8.54528C21.3493 8.49532 21.3219 8.44631 21.2935 8.3973C21.9092 8.50012 22.522 8.74419 23.064 9.11125C24.5696 10.1317 25.6629 11.969 24.5299 13.7139C24.4419 13.8504 24.3426 13.9791 24.2339 14.0993V14.0973ZM9.18405 15.7924C8.5712 15.2725 8.13426 14.5201 7.98578 13.7274C7.80798 12.778 7.99523 11.7085 8.50027 10.7938C9.25309 9.43123 10.6074 8.32524 12.1017 8.64522C11.7641 9.3534 11.6118 10.1605 11.7319 10.935C11.8435 11.6547 12.1934 12.2418 12.6313 12.7742C11.6733 13.8369 11.1701 15.1534 11.1531 16.4784C10.4589 16.5255 9.76758 16.2863 9.18405 15.7914V15.7924ZM12.8356 13.0134C13.056 13.2604 13.2915 13.4977 13.526 13.7332C13.6613 13.8686 13.7956 14.0041 13.927 14.1444C14.5607 14.8199 15.1943 15.4954 15.828 16.1709C16.6215 17.0165 17.415 17.8621 18.2085 18.7077C18.7012 19.2324 19.193 19.7589 19.6867 20.2826C19.7444 20.3432 19.7992 20.4047 19.8541 20.4652C18.4704 21.3646 16.1949 20.8063 14.2883 18.8701C12.2946 16.8445 11.7726 14.3952 12.8356 13.0134ZM17.5871 26.3603C16.0606 26.712 14.311 26.416 13.5648 25.0131C14.1729 24.8152 14.7394 24.4702 15.1887 24.0147C15.7429 23.4526 16.0786 22.7656 16.1656 22.0391C17.5417 22.1496 18.9424 21.7019 20.082 20.7362C20.4821 21.2426 20.7535 21.7845 20.7809 22.4956C20.8036 23.0731 20.6788 23.6621 20.4319 24.1858C20.3676 24.156 20.3033 24.1243 20.239 24.0897C20.0971 24.0128 19.9619 23.9244 19.8352 23.8245C19.6299 23.664 19.4228 23.542 19.2232 23.4939C18.7598 23.3805 18.1876 23.5718 18.0325 24.0291C17.92 24.3597 18.0581 24.7392 18.303 24.9852C18.548 25.2312 18.8818 25.3638 19.2157 25.4494C19.2743 25.4647 19.333 25.4772 19.3916 25.4897C18.8799 25.9019 18.2567 26.2075 17.589 26.3622L17.5871 26.3603ZM25.0907 19.2468C25.2818 20.1942 25.1087 21.2656 24.616 22.1871C23.8593 23.6025 22.4606 24.7556 20.9057 24.3559C21.162 23.7947 21.2963 23.172 21.2727 22.5532C21.2424 21.7393 20.9114 21.0292 20.4442 20.3989C20.4556 20.3874 20.4669 20.3777 20.4783 20.3662C21.5394 19.2881 22.105 17.9169 22.139 16.5322C22.7462 16.5438 23.3458 16.7725 23.8631 17.1991C24.4826 17.7093 24.9299 18.456 25.0898 19.2468H25.0907ZM20.2541 20.1375C20.2541 20.1375 20.2484 20.1423 20.2466 20.1452C20.1908 20.0779 20.135 20.0116 20.0773 19.9463C19.9572 19.8108 19.8342 19.6782 19.7103 19.5466C18.9338 18.7173 18.1564 17.889 17.3762 17.0636C17.2996 16.9819 17.222 16.9012 17.1454 16.8196C16.1741 15.7962 15.1896 14.7863 14.2287 13.7533C13.8911 13.3911 13.5222 13.0307 13.1931 12.6416C14.5427 11.5077 16.9894 12.0256 19.0086 14.0762C21.1129 16.2142 21.563 18.8096 20.256 20.1385L20.2541 20.1375ZM17.7479 9.0632C17.2419 9.5917 16.9241 10.223 16.8191 10.8918C15.4563 10.8658 14.0906 11.3809 12.9983 12.4014C12.7647 12.0968 12.5613 11.771 12.4204 11.4097C12.0951 10.5747 12.1991 9.60515 12.5888 8.79992C12.6937 8.84412 12.7987 8.89505 12.9047 8.95462C13.0446 9.03342 13.1789 9.12374 13.3057 9.2256C13.509 9.38895 13.7142 9.51386 13.9128 9.56479C14.3744 9.6849 14.9494 9.50233 15.1111 9.04687C15.2284 8.71824 15.095 8.33677 14.8539 8.08694C14.6127 7.83806 14.2807 7.70066 13.9478 7.61033C13.8334 7.57958 13.7189 7.5546 13.6045 7.53442C14.1067 7.12412 14.7167 6.81567 15.3731 6.6552C16.9194 6.27565 18.704 6.56103 19.4502 8.01295C18.8109 8.21473 18.2141 8.57891 17.7488 9.0632H17.7479Z" fill="white"/>
</svg>
